<?xml version="1.0" encoding="UTF-8"?>
<!DOCTYPE svg PUBLIC "-//W3C//DTD SVG 1.1//EN" "http://www.w3.org/Graphics/SVG/1.1/DTD/svg11.dtd">
<!-- Creator: CorelDRAW 2018 (64 Bit) -->
<svg xmlns="http://www.w3.org/2000/svg" xml:space="preserve" width="15mm" height="14.5mm" version="1.1" style="shape-rendering:geometricPrecision; text-rendering:geometricPrecision; image-rendering:optimizeQuality; fill-rule:evenodd; clip-rule:evenodd"
viewBox="0 0 1500 1450"
 xmlns:xlink="http://www.w3.org/1999/xlink">
 <defs>
  <style type="text/css">
   <![CDATA[
    .fil3 {fill:#96C049}
    .fil2 {fill:#00A5FF}
    .fil4 {fill:#02A5FD}
    .fil0 {fill:#DD0100}
    .fil1 {fill:#F7C301}
   ]]>
  </style>
 </defs>
 <g id="Camada_x0020_1">
  <metadata id="CorelCorpID_0Corel-Layer"/>
  <g id="_1632358865168">
   <path class="fil0" d="M481.87 1255.79c-124.87,10.29 -257.11,57.39 -369.9,103.56 -20.83,8.52 -95.68,41.85 -106.34,52.33l136.47 -39.82c47.12,-12 97.43,-22.23 147.56,-30.45 106.11,-17.39 216.38,-26.26 327.54,-25.66 182.81,1 362.27,31.11 532.67,87.66 18.65,6.19 48.8,19.35 65.37,22.54 -36.45,-33.28 -123.52,-75.79 -171.57,-96.62 -181.61,-78.75 -366.56,-89.25 -561.8,-73.54z"/>
   <path class="fil1" d="M462.3 1284.15c-9.93,8.13 -20.17,16.77 -29.45,25.18 39.31,1.34 85,-17.36 114.88,-38.71 33.05,-23.62 58.61,-55.92 81.35,-89.36 11.46,-16.87 33.76,-62.4 48.78,-67.5 28.19,-9.58 54.45,66.54 70.92,99.74 21.21,42.77 47.07,92.97 118.02,116.95 -22.83,-43.05 -60.73,-123.07 -74.78,-210.32 -17,-105.6 5.04,-217.72 69.21,-298.33 15.78,-19.82 28.36,-32.13 45.22,-48.79 5.85,-5.79 50,-38.29 51.48,-40.89 -48.88,-3.61 -119.97,46.74 -145.31,70.82 -10.04,9.55 -18.32,16.29 -28.28,26.17 -30.57,30.33 -56.17,68.9 -101.77,24.74 -33.64,-32.58 -73.17,-140.78 -123.82,-202.76 -11.11,-13.59 -41.47,-45.94 -59.74,-51.26 5.34,11.84 14.7,26.53 21,37.83 51.05,91.64 94.65,198 112.25,303.82 20.68,124.3 -45.29,208.41 -115.51,290.73 -1.92,2.25 -51.33,49.39 -54.45,51.94z"/>
   <path class="fil2" d="M547.97 538.05c0.04,26.88 3.69,45.41 7.32,69.7 27.04,-3.86 78.89,-33.75 97.47,-46.49 95.43,-65.41 144.43,-168.28 144.2,-295.52 -0.06,-28.92 -3.43,-50.02 -6.81,-77.01 -42.77,10.37 -134.43,87.04 -165.74,128.79 -43.4,57.85 -76.58,125.47 -76.44,220.53z"/>
   <path class="fil2" d="M505.48 596.82c10.37,-131.68 -47.96,-278.65 -147.91,-348.49 -24.67,-17.25 -76.06,-50.61 -111.86,-54.64 -5.41,58.24 -9.88,96.93 4.82,154.56 20.59,80.76 75.3,150.23 142.33,193.99 25.23,16.47 79.06,48.58 112.62,54.58z"/>
   <path class="fil3" d="M996.46 725.14c141.08,3.97 268.74,-47.44 345.67,-152.3 11.82,-16.11 54.63,-86.97 52.57,-112.24 -46.58,-10.1 -109.93,-5.64 -153.82,6.11 -80.3,21.51 -147.62,76.06 -192,144.41 -12.18,18.76 -52.17,88.32 -52.42,114.02z"/>
   <path class="fil1" d="M695.59 694.02c0.06,25.41 3.51,50.44 8.89,73.82l13.57 45.46c1.18,3.23 1.11,3.57 2.77,7.08l5.22 7.2c9.83,-5.48 32.43,-28.7 40.79,-38.26 40.33,-46.15 66.02,-104.6 65.99,-172.05 -0.01,-30.82 -11.58,-99.64 -27.62,-115.95 -27.32,12.75 -62.18,47.5 -77.62,72.86 -19.77,32.48 -32.12,72.4 -31.99,119.84z"/>
   <path class="fil3" d="M1072.94 490.17c12.04,-4.83 40.07,-27.77 48.97,-36.26 18.19,-17.34 27.03,-27.52 41.37,-47.64 24.17,-33.9 43.12,-80.49 42.97,-133.11 -0.05,-19.33 -3.63,-58.42 -12.68,-72.91 -41.07,11.78 -88.31,60.56 -110.55,103.52 -27.08,52.29 -28.18,126.84 -10.08,186.4z"/>
   <path class="fil3" d="M958.57 697.02c12.31,-8.87 36.54,-53.04 41.77,-65.13 24.99,-57.75 35.99,-114.83 15.29,-178.05 -7.81,-23.85 -21.46,-56.72 -37.27,-69.03 -37.44,29.7 -68.77,91.63 -72.08,145.79 -2.05,33.53 3.84,67.44 14.06,94.98 8.76,23.64 23.49,57.16 38.23,71.44z"/>
   <path class="fil2" d="M176.09 609.85c7.12,13.87 41.37,37.92 60.82,48.88 54.65,30.81 120,32.48 179.13,11.94 19.9,-6.9 62.99,-24.47 72.3,-38.66 -47.31,-30.9 -77.27,-56.71 -145.96,-66.25 -50.96,-7.09 -107.63,4.48 -150.75,31.57 -7.15,4.5 -11.43,6.54 -15.54,12.52z"/>
   <path class="fil4" d="M528.15 335.62c27.57,-31.05 46.59,-117.23 42.69,-168.95 -3.72,-49.45 -33.6,-117.17 -67.43,-142.62 -12.47,7.51 -32.72,48.67 -39.81,68.15 -22.59,62.11 -13.06,121.97 16.39,179.62 9.59,18.77 33.05,54.74 48.16,63.8z"/>
   <path class="fil3" d="M1206.12 756.35c7.22,37.07 60.65,92.68 103.26,113.83 51.29,25.45 141.74,31.88 184.98,11.31 -4.04,-8.56 -15.34,-23.55 -21.53,-31.27 -24.58,-30.69 -51.19,-55.98 -87.33,-75.91 -54.09,-29.82 -113.11,-36.65 -179.38,-17.96z"/>
   <path class="fil3" d="M986.67 774.59c-2.41,15.64 26.39,60.47 33.93,70.27 58.14,75.44 140.68,93.89 240.19,81.28 -5.3,-31.93 -65.08,-95.24 -97.68,-117.46 -45.62,-31.09 -108.71,-46.97 -176.44,-34.09z"/>
   <path class="fil4" d="M63.39 429.65c4.09,28.89 48.46,66.87 77.95,81.91 32.54,16.6 104.59,21.95 137.7,4.21 -8.32,-24.01 -55.49,-63.59 -82.1,-76.95 -39.74,-19.97 -89.15,-23.35 -133.55,-9.17z"/>
  </g>
 </g>
</svg>
