<?xml version="1.0" encoding="UTF-8"?>
<!DOCTYPE svg PUBLIC "-//W3C//DTD SVG 1.1//EN" "http://www.w3.org/Graphics/SVG/1.1/DTD/svg11.dtd">
<!-- Creator: CorelDRAW 2018 (64 Bit Versão de avaliação) -->
<svg xmlns="http://www.w3.org/2000/svg" xml:space="preserve" width="45mm" height="13.039mm" version="1.1" style="shape-rendering:geometricPrecision; text-rendering:geometricPrecision; image-rendering:optimizeQuality; fill-rule:evenodd; clip-rule:evenodd"
viewBox="0 0 4500 1303.9"
 xmlns:xlink="http://www.w3.org/1999/xlink">
 <defs>
  <style type="text/css">
   <![CDATA[
    .fil0 {fill:#FEFEFE}
    .fil4 {fill:#9CBD2A}
    .fil3 {fill:#00A5FF}
    .fil5 {fill:#02A5FD}
    .fil1 {fill:#DD0100}
    .fil2 {fill:#F7C301}
   ]]>
  </style>
 </defs>
 <g id="Camada_x0020_1">
  <metadata id="CorelCorpID_0Corel-Layer"/>
  <g id="_1476197226928">
   <path class="fil0" d="M3328.35 874.1c7.93,-11.78 8.33,-36.8 11.4,-53.55 3.26,-17.8 8.57,-33.02 -4.44,-46.78 -40.09,-42.41 -218.56,-60.19 -298.43,-4.09 -26.44,18.57 -32.49,50.4 -31.69,94.83 0.66,36.34 3.92,76.56 28.26,94.97 47.38,35.86 156.29,20.31 223.35,25.99l0.27 14.74c-34.35,10.61 -90.17,13.57 -128.67,10.14 -59.57,-5.29 -88.36,-26.93 -113,-26.22 -14.04,20.77 -22.04,84.51 -3.89,103.95 36.53,39.13 237.22,47.87 304.22,-10.31 26.67,-23.16 32.62,-45.78 33.92,-93.69 3.94,-144.96 -152.01,-94.16 -271.69,-108.31l0.37 -13.3c24.46,-13.04 100.3,-15.75 133.06,-13.01 51.11,4.27 106.95,29.43 116.96,24.64zm-297.34 -372.11c-60.13,29.93 -129.35,11.39 -170.11,-45.19 -12.41,-17.23 -19.67,-37.51 -30.08,-53.35 -14.94,5.8 -103.36,116.87 41.17,203.85 50.61,30.45 141.56,36.26 180.17,-25.99 21.83,-35.2 21.69,-14.48 38.13,-45.79 27.43,-52.26 27.87,-159.79 26.91,-223.63 -0.64,-42.74 2.17,-71.01 -59.87,-64.34 -37.12,3.99 -23.51,18.53 -21.76,96.66 1.23,55.16 4.23,103.49 -4.56,157.78zm620.12 -125.13c11.64,35.93 4.91,233.95 11.67,247.41 15.63,16.83 43.46,8.02 58.69,-6.46 16.53,-15.7 13.33,-45.02 15.33,-72.54 2.09,-28.78 1.44,-158.62 6.15,-170.78 49.88,-8.2 111.37,10.67 157.76,9.06 5.61,-24.71 9.29,-61.72 3.38,-88.81 -5.92,-27.17 -38.85,-29.35 -66.27,-33.42 -54,-8.01 -223.34,-8.55 -282.85,2.41 -34.78,6.41 -41.16,20.9 -41.56,57.78 -0.7,66.52 3.46,62.15 41.42,58.51 26.63,-2.56 69.77,-9.57 96.28,-3.16zm-872.59 534.34c5.66,-16.23 15,-29.74 22.96,-40.04 16.84,6.39 24.27,22.63 29.46,39.62l-15.77 0.66 -22.61 0.05 -14.04 -0.29zm-111.9 205.6c60.66,-101.93 29.61,-101.26 87.08,-105.89 40.82,-3.29 82.27,-0.77 122.84,2.67 25.2,2.14 22.93,15.08 31.54,32.64 13.42,27.37 28.92,59.06 42.3,83.29 25.1,-4.32 57.08,-57.2 35.87,-106.51 -27.06,-62.92 -124.55,-276.18 -175.37,-282.92 -37.34,-4.95 -89.99,90.43 -108.15,121.72 -6.98,12.03 -19.93,40.41 -25.92,48.42 -13.95,18.64 -30.38,-8.27 -30.76,48.17 -0.14,20.1 -11.45,39.3 -18.49,57.54 -20.65,53.55 19.78,96.51 39.06,100.87zm1036.9 -184.54c10.1,-18.39 16.19,-44.64 20.27,-69.49 5.43,-33 0.96,-48.61 -22.02,-61.44 -39.82,-22.22 -84.83,-37.02 -137.42,-41.08 -173.72,-13.41 -247.7,181.33 -159.48,296.16 12.62,16.41 30.11,29.16 48.73,38.7 62.16,31.84 254.33,32.91 258.2,-49.51 0.97,-20.64 -3.96,-60.09 -8.39,-77.96 -59.86,12.32 -81.9,31.53 -168.13,30.38 -38.11,-0.5 -146.58,-19.86 -115.66,-65.05 25.75,-37.66 80.86,-55.4 141.56,-51.64 72.94,4.53 113.2,45.8 142.34,50.93zm-1989.63 -546.55c20.13,-12.6 158.59,2.89 175.84,26.36 -5.2,10.03 -4.55,7.56 -15.14,11.9l-61.47 16.27c-31.24,4.24 -64.71,4.44 -98.75,2.15l-0.48 -56.68zm-1.93 169.46c55.59,-1.61 110.72,5.52 161.52,-12.29 44.18,-15.49 77.41,-42.03 84.36,-92.96 18.88,-138.17 -47.53,-168.61 -163.03,-189.51 -32.46,-5.88 -135.91,-17.77 -154.9,6.42 -12.13,15.45 -4.36,137.87 -4.39,167.86 -0.06,58.77 -0.94,119.34 0.69,177.92 0.46,16.61 2.88,21.03 19.63,21.17 51.1,0.41 54.58,-45.4 56.12,-78.61zm595.39 341.36c2.28,-0.77 -3.72,-11.31 15.29,8.4 46.65,48.38 130.84,132.6 174.01,184.59 9.07,10.91 14.73,20.24 28.37,26.74 30.37,14.45 65.75,-12.64 69.65,-35.49l2.53 -219.5c0.51,-32.37 3.6,-74.63 0.65,-106.12 -14,-8.94 -38.29,-17.61 -60.51,-10.56 -23.09,7.33 -20.87,28.25 -21.51,55.27 -1.17,49.02 1.71,106.62 -2.04,154.11 -11.25,0.14 -12.7,-6.36 -18.88,-14.58 -34.59,-46.05 -134.68,-157.22 -177.69,-184.15 -29.56,-18.5 -76.52,-8.92 -94.04,15.56l0.32 51.7c0.25,73.71 -6.24,236.01 6.32,294.93 24.6,4.76 48.75,-4.81 61.07,-18.15 16.16,-17.48 12.32,-40.73 12.61,-69.95l3.85 -132.8zm1960.73 -444.67c-97.92,106.64 -319.55,45.63 -309.8,-13.49 2.49,-15.13 44.52,-36.96 66.3,-44.1 28.69,-9.42 62.52,-13.58 95.19,-13.61 38.76,-0.03 151.82,14.07 148.31,71.2zm-191.08 -193.59c-124.47,12.62 -171.47,97.29 -159.57,229.95 6.11,68.16 27.37,96.8 75.74,121.56 68.34,34.99 167.97,33.86 239,-4.39 19.63,-10.57 45.1,-26.73 56.69,-40.24 43.4,-50.58 70.49,-217.47 -44.62,-280.93 -48.49,-26.73 -104.36,-32.33 -167.24,-25.95zm-1662.48 182.89c14.11,-39.83 101.06,-59.91 158.45,-60.48 54.72,-0.54 88.24,5.27 130.24,33.51 11.64,7.82 25.71,13.23 22.12,33.2 -3.42,19.1 -41.91,37.98 -63.86,46.75 -29.63,11.84 -59.54,15.64 -94.95,15.39 -50.99,-0.36 -136.51,-14.18 -152,-68.37zm110.76 -181.73c-121.32,18.57 -164.88,100.21 -149.8,236.63 7.09,64.17 31.98,94.91 80.94,116.66 49.64,22.05 109.54,28.96 168.45,15.98 48.41,-10.66 104.44,-40.8 125.3,-68.3 39.61,-52.22 67.69,-213.04 -55.21,-280.14 -44.2,-24.13 -114.18,-29.33 -169.68,-20.83zm1562.98 533.83c-1.9,-26.59 -17.48,-32.38 -40.07,-38.19 -58.43,-15 -246.67,-17.64 -283.52,-3.5 -22.1,8.48 -14.74,35.93 -12.97,57.91 10.21,126.55 -5.79,40.07 -15.51,123.01 -2.42,20.66 -4.73,40.17 0.29,60.69l20.27 -1.61c5.21,105.32 -9.38,121.8 91.76,122.36 69.55,0.38 142.29,-0.65 211.68,4.88 10.49,-65.11 44.92,-104.43 -46.85,-112.04 -54.27,-4.51 -170.06,4.78 -184.06,2.37l0.16 -27.45c59.8,-4.69 206.2,2.47 214.87,0.93 8.82,-15.89 16.64,-69.72 8.88,-86.42 -6.95,-11.11 -37.14,-10.72 -49.94,-11.55 -18.12,-1.18 -37.21,-1.4 -55.11,-1.91 -32.25,-0.93 -90.46,2.82 -118.52,-1.37l0.45 -25.79c36.53,-5.49 90.49,-5.66 128.24,-4.73 40.84,1.01 85.34,11.47 119.48,11.46 9.9,-14.38 11.88,-49.27 10.47,-69.05zm-928.03 -397.35c-22.56,22.68 -24.91,90.12 -18.91,109.45l21.03 0.83c1.34,133.03 -11.29,121.5 198.56,122.94 30.43,0.21 76.02,4.36 103.33,2.7 10.64,-26.32 17.5,-60.27 12.47,-91.26 -18.45,-37.52 -202.85,-12.76 -240.88,-16.6l-1.99 -28.38c36.63,-1.57 71.31,-2.83 107.69,-2.21 28.64,0.49 85.55,7.37 109.56,3.04 5.47,-18.68 15.49,-65.85 8.03,-85.05 -18.53,-22.64 -185.22,-13.22 -224.2,-14.82l0.65 -27.54c42.76,-3.46 87.05,-4.68 128.56,-3.84 45.34,0.91 78.3,8.44 120.63,12.28 4.21,-14.07 9.49,-46.81 8.97,-65.68 -0.74,-26.44 -13.78,-35.2 -36.33,-41.47 -58.85,-16.38 -240.47,-19.07 -285.54,-5.14 -32.3,9.98 -9.23,65.09 -11.63,130.75zm-955.04 400.54c-0.9,-28.41 -12.51,-33.59 -37.18,-40.54 -58.24,-16.4 -249.05,-18.23 -286.14,-4.68 -27.07,9.88 -10.84,73.92 -9.79,129.44 -15.6,14.88 -17.68,35.08 -20.38,62.48 -6.57,66.49 5.38,46.87 21.9,49.13 4.26,103.12 -9.76,121.07 92.29,121.65 70.25,0.41 140.86,0.16 211.25,4.76 9.94,-69.17 45.03,-105.36 -49.77,-112.14 -30.36,-2.17 -63.19,-1.41 -93.67,-0.65 -25.78,0.65 -63.5,6.16 -87.73,3.81l0.33 -28.35c37.11,-1.61 72.79,-2.84 110,-2.17 25.25,0.46 85.83,8.82 104.25,2.85 8.66,-12.63 18.32,-68.43 9.35,-85.13 -14.85,-22.74 -204.25,-14 -223.92,-14.56l0.68 -27.36c127.09,-9.64 131.45,-4.01 247.5,8.19 7.9,-12.64 11.65,-47.25 11.03,-66.73zm-658 103.26l0.06 -40.72c38.38,-13.18 88.34,-4.15 126.91,6.17 13.99,3.75 10.11,0.87 14.74,9.05 -14.31,9.6 -119.93,29.07 -141.71,25.5zm-77.94 178.1c0.24,6.78 0.14,15.79 0.87,22.3 3.61,32.12 47.98,15.17 64.51,-7.96 11.69,-16.36 9.8,-48.69 10.41,-70.81 128.07,5.01 253,98.72 292.56,112.55 23.98,-73.17 36.1,-97.12 -31.62,-132.03 -20.35,-10.5 -62.36,-23.87 -72.87,-33.93 39.82,-30.88 67.89,-21.43 67.94,-90.49 0.04,-68.71 -19.92,-91.37 -72.99,-114.27 -70.62,-30.48 -148.13,-36.7 -225.61,-23.31 -31.83,5.5 -38.61,8.76 -37.99,43.87l4.79 294.08zm2721.75 -177.04l0.12 -42.74 44.79 -6.63c20.75,-1.83 80.76,10.69 97.14,19.58 -6.06,11.35 -13.67,8.13 -30.43,11.86 -33.91,7.55 -77.41,18.56 -111.62,17.93zm184.68 67.34c25.6,-17.03 62.56,-27.93 67.67,-63.53 5.25,-36.54 1.59,-85.58 -18.28,-106.47 -73.38,-77.14 -278.48,-73.13 -308.34,-49.8 -15.04,11.75 -7.26,98.16 -6.42,122.67 1.47,43.23 1.3,86.03 1.53,129.26 0.17,30.32 -6.36,95.1 10.11,116.35 28.12,2.8 47.12,-9.47 56.57,-25.2 13.67,-22.73 3.98,-47.4 12.29,-69.28 44.43,-1.66 122.55,27.23 157.92,43.1 61.88,27.76 91.13,49.8 129.48,67.89l14 -28.6c2.37,-7.98 5.84,-21.71 6.84,-31.33 3.4,-32.64 -2.38,-40.93 -20.72,-53.68 -40.77,-28.33 -89.59,-40.13 -102.65,-51.38zm-2308.57 -596.47c35.1,-6.73 115.63,-4.7 140.35,14.58 -9.95,14.29 -120.13,28.32 -142.96,29.23l2.61 -43.81zm-77.07 252.6l7.84 6.86c25.29,1.66 43.38,-8.39 54.85,-25.43 10.31,-15.32 8.79,-48.6 10.34,-70.07 49.96,1.95 115.38,24.7 156.76,42.42 37.6,16.12 130.49,68.37 134.34,69.86 16.55,-37.19 35.81,-87.31 -0.6,-113.24 -46.2,-32.9 -85.39,-37.18 -103.02,-51.47 19.48,-20.34 58.19,-23.43 65.7,-59.25 7.62,-36.32 2.82,-88.76 -16.33,-110.33 -56.32,-63.46 -233.71,-81.37 -302.59,-54.46 -23.16,9.06 -14.73,76.41 -13.68,113.89 1.19,42.14 0.45,227.02 6.39,251.22z"/>
   <g>
    <path class="fil1" d="M442.96 1145.65c-116.14,9.57 -239.14,53.38 -344.05,96.32 -19.37,7.93 -88.99,38.93 -98.91,48.68l126.93 -37.04c43.83,-11.16 90.63,-20.68 137.26,-28.32 98.69,-16.18 201.25,-24.43 304.65,-23.87 170.04,0.93 336.95,28.94 495.45,81.53 17.35,5.76 45.39,18.01 60.8,20.97 -33.9,-30.96 -114.89,-70.49 -159.58,-89.87 -168.92,-73.24 -340.95,-83.02 -522.55,-68.4z"/>
    <path class="fil2" d="M424.77 1172.03c-9.24,7.56 -18.77,15.59 -27.4,23.42 36.56,1.25 79.06,-16.15 106.86,-36.01 30.74,-21.97 54.51,-52.01 75.66,-83.11 10.66,-15.69 31.4,-58.04 45.37,-62.79 26.22,-8.91 50.64,61.89 65.96,92.77 19.73,39.78 43.78,86.48 109.78,108.78 -21.23,-40.04 -56.49,-114.47 -69.55,-195.62 -15.82,-98.22 4.68,-202.5 64.37,-277.48 14.67,-18.44 26.38,-29.89 42.06,-45.39 5.44,-5.38 46.5,-35.61 47.88,-38.03 -45.47,-3.36 -111.59,43.48 -135.15,65.87 -9.35,8.89 -17.04,15.16 -26.31,24.35 -28.44,28.21 -52.24,64.08 -94.66,23 -31.29,-30.29 -68.06,-130.94 -115.16,-188.58 -10.34,-12.65 -38.58,-42.73 -55.58,-47.68 4.97,11.01 13.68,24.67 19.54,35.18 47.48,85.23 88.04,184.17 104.41,282.59 19.23,115.62 -42.13,193.85 -107.45,270.42 -1.78,2.09 -47.74,45.93 -50.63,48.31z"/>
    <path class="fil3" d="M504.45 478.07c0.03,25 3.43,42.23 6.8,64.82 25.16,-3.59 73.38,-31.39 90.67,-43.23 88.75,-60.85 134.33,-156.53 134.11,-274.88 -0.05,-26.9 -3.18,-46.52 -6.33,-71.63 -39.78,9.64 -125.03,80.96 -154.16,119.79 -40.36,53.81 -71.23,116.71 -71.09,205.13z"/>
    <path class="fil3" d="M464.92 532.73c9.65,-122.48 -44.6,-259.18 -137.57,-324.15 -22.95,-16.03 -70.75,-47.06 -104.04,-50.81 -5.04,54.17 -9.19,90.15 4.48,143.76 19.15,75.12 70.04,139.73 132.39,180.43 23.46,15.32 73.53,45.18 104.74,50.77z"/>
    <path class="fil4" d="M921.6 652.08c131.22,3.69 249.96,-44.12 321.51,-141.65 11,-14.99 50.82,-80.9 48.9,-104.4 -43.32,-9.4 -102.25,-5.25 -143.07,5.68 -74.69,20.01 -137.31,70.75 -178.59,134.32 -11.32,17.44 -48.51,82.14 -48.75,106.05z"/>
    <path class="fil2" d="M641.75 623.13c0.06,23.64 3.27,46.92 8.27,68.67l12.62 42.28c1.1,3 1.04,3.32 2.58,6.59l4.86 6.69c9.14,-5.1 30.15,-26.69 37.93,-35.59 37.51,-42.92 61.41,-97.28 61.38,-160.02 -0.01,-28.67 -10.77,-92.68 -25.69,-107.85 -25.41,11.85 -57.84,44.18 -72.19,67.77 -18.39,30.21 -29.88,67.34 -29.76,111.46z"/>
    <path class="fil4" d="M992.74 433.53c11.2,-4.5 37.26,-25.83 45.55,-33.73 16.91,-16.13 25.13,-25.6 38.47,-44.31 22.49,-31.53 40.11,-74.87 39.97,-123.8 -0.05,-17.99 -3.38,-54.35 -11.8,-67.82 -38.2,10.96 -82.13,56.33 -102.82,96.28 -25.18,48.64 -26.21,117.98 -9.37,173.38z"/>
    <path class="fil4" d="M886.35 625.93c11.46,-8.25 33.99,-49.34 38.86,-60.59 23.24,-53.71 33.47,-106.8 14.22,-165.6 -7.27,-22.18 -19.96,-52.76 -34.67,-64.21 -34.82,27.63 -63.96,85.22 -67.04,135.6 -1.91,31.19 3.58,62.73 13.07,88.35 8.16,21.99 21.85,53.17 35.56,66.45z"/>
    <path class="fil3" d="M158.55 544.84c6.62,12.9 38.48,35.28 56.57,45.47 50.84,28.66 111.61,30.21 166.61,11.11 18.51,-6.42 58.6,-22.77 67.25,-35.96 -44.01,-28.75 -71.87,-52.75 -135.76,-61.63 -47.4,-6.58 -100.11,4.17 -140.22,29.37 -6.65,4.18 -10.63,6.09 -14.45,11.64z"/>
    <path class="fil5" d="M486.01 289.78c25.64,-28.88 43.34,-109.04 39.71,-157.14 -3.46,-46 -31.26,-108.99 -62.72,-132.66 -11.6,6.98 -30.43,45.27 -37.02,63.39 -21.02,57.77 -12.16,113.45 15.24,167.06 8.92,17.47 30.74,50.92 44.79,59.35z"/>
    <path class="fil4" d="M1116.61 681.11c6.72,34.48 56.41,86.21 96.04,105.87 47.71,23.68 131.84,29.66 172.06,10.53 -3.76,-7.97 -14.27,-21.91 -20.03,-29.09 -22.86,-28.55 -47.61,-52.07 -81.22,-70.6 -50.31,-27.74 -105.21,-34.09 -166.85,-16.71z"/>
    <path class="fil4" d="M912.5 698.07c-2.25,14.56 24.54,56.25 31.56,65.36 54.07,70.17 130.85,87.33 223.4,75.6 -4.93,-29.7 -60.53,-88.58 -90.85,-109.24 -42.43,-28.92 -101.12,-43.7 -164.11,-31.72z"/>
    <path class="fil5" d="M53.73 377.24c3.8,26.87 45.07,62.19 72.5,76.18 30.27,15.44 97.28,20.42 128.08,3.92 -7.74,-22.33 -51.62,-59.14 -76.36,-71.58 -36.97,-18.57 -82.93,-21.71 -124.22,-8.52z"/>
   </g>
  </g>
 </g>
</svg>
