<?xml version="1.0" encoding="UTF-8"?>
<!DOCTYPE svg PUBLIC "-//W3C//DTD SVG 1.1//EN" "http://www.w3.org/Graphics/SVG/1.1/DTD/svg11.dtd">
<!-- Creator: CorelDRAW -->
<svg xmlns="http://www.w3.org/2000/svg" xml:space="preserve" width="72.8702mm" height="66.1426mm" version="1.1" style="shape-rendering:geometricPrecision; text-rendering:geometricPrecision; image-rendering:optimizeQuality; fill-rule:evenodd; clip-rule:evenodd"
viewBox="0 0 7287.02 6614.26"
 xmlns:xlink="http://www.w3.org/1999/xlink"
 xmlns:xodm="http://www.corel.com/coreldraw/odm/2003">
 <defs>
  <style type="text/css">
   <![CDATA[
    .fil0 {fill:#FEFEFE}
    .fil3 {fill:#00A5FF}
    .fil5 {fill:#02A5FD}
    .fil4 {fill:#96C049}
    .fil1 {fill:#DD0100}
    .fil2 {fill:#F7C301}
   ]]>
  </style>
 </defs>
 <g id="Camada_x0020_1">
  <metadata id="CorelCorpID_0Corel-Layer"/>
  <g id="_2830349333040">
   <g id="_1503698958736">
    <path class="fil0" d="M4461.57 5970.43c18.92,-28.09 19.86,-87.72 27.18,-127.68 7.78,-42.43 20.44,-78.7 -10.58,-111.51 -95.58,-101.1 -521.06,-143.49 -711.49,-9.76 -63.04,44.27 -77.46,120.17 -75.54,226.09 1.57,86.64 9.35,182.52 67.37,226.43 112.95,85.47 372.62,48.41 532.49,61.96l0.65 35.12c-81.9,25.31 -214.99,32.35 -306.78,24.19 -142,-12.62 -210.65,-64.21 -269.39,-62.51 -33.48,49.5 -52.55,201.47 -9.28,247.82 87.09,93.29 565.56,114.12 725.29,-24.58 63.59,-55.21 77.76,-109.14 80.87,-223.35 9.39,-345.61 -362.4,-224.51 -647.74,-258.24l0.89 -31.7c58.31,-31.09 239.12,-37.55 317.21,-31.02 121.86,10.17 254.99,70.15 278.85,58.74zm-708.87 -887.15c-143.36,71.37 -308.4,27.17 -405.56,-107.74 -29.59,-41.08 -46.9,-89.42 -71.72,-127.18 -35.6,13.83 -246.4,278.62 98.16,485.99 120.66,72.61 337.48,86.46 429.53,-61.95 52.05,-83.93 51.72,-34.54 90.9,-109.18 65.41,-124.6 66.45,-380.94 64.17,-533.15 -1.52,-101.9 5.18,-169.3 -142.75,-153.39 -88.47,9.52 -56.04,44.17 -51.87,230.43 2.94,131.52 10.08,246.73 -10.86,376.17zm1478.4 -298.31c27.77,85.65 11.73,557.74 27.83,589.84 37.28,40.11 103.62,19.11 139.93,-15.39 39.4,-37.44 31.79,-107.33 36.55,-172.96 4.98,-68.6 3.42,-378.16 14.65,-407.14 118.93,-19.57 265.52,25.43 376.12,21.58 13.38,-58.89 22.15,-147.14 8.06,-211.73 -14.12,-64.77 -92.63,-69.97 -157.98,-79.66 -128.77,-19.1 -532.48,-20.4 -674.35,5.74 -82.92,15.27 -98.14,49.83 -99.08,137.75 -1.68,158.6 8.24,148.18 98.73,139.49 63.5,-6.09 166.35,-22.81 229.54,-7.52zm-2080.32 1273.92c13.5,-38.7 35.78,-70.9 54.74,-95.46 40.16,15.23 57.86,53.95 70.23,94.45l-37.58 1.57 -53.9 0.11 -33.49 -0.67zm-266.76 490.17c144.61,-243.03 70.58,-241.42 207.61,-252.47 97.32,-7.84 196.13,-1.82 292.84,6.38 60.08,5.09 54.66,35.96 75.19,77.8 31.99,65.26 68.95,140.82 100.86,198.59 59.83,-10.31 136.07,-136.39 85.51,-253.94 -64.52,-150.01 -296.93,-658.43 -418.08,-674.51 -89.03,-11.81 -214.56,215.6 -257.85,290.2 -16.64,28.67 -47.51,96.33 -61.8,115.44 -33.25,44.44 -72.42,-19.73 -73.34,114.84 -0.33,47.92 -27.29,93.69 -44.07,137.19 -49.23,127.66 47.16,230.08 93.13,240.48zm2472.04 -439.98c24.07,-43.83 38.6,-106.42 48.34,-165.65 12.93,-78.69 2.28,-115.9 -52.51,-146.48 -94.93,-52.99 -202.24,-88.27 -327.61,-97.95 -414.18,-31.97 -590.56,432.32 -380.21,706.07 30.07,39.14 71.77,69.52 116.17,92.27 148.19,75.92 606.33,78.45 615.57,-118.04 2.31,-49.2 -9.45,-143.27 -20,-185.86 -142.73,29.36 -195.26,75.16 -400.84,72.44 -90.87,-1.21 -349.46,-47.37 -275.76,-155.11 61.41,-89.76 192.79,-132.08 337.5,-123.1 173.9,10.79 269.88,109.2 339.35,121.41zm-4743.43 -1303.01c47.99,-30.04 378.09,6.89 419.2,62.84 -12.38,23.9 -10.84,18.03 -36.08,28.36l-146.56 38.79c-74.47,10.11 -154.26,10.6 -235.43,5.13l-1.13 -135.12zm-4.61 403.99c132.54,-3.82 263.97,13.18 385.09,-29.28 105.33,-36.93 184.54,-100.22 201.12,-221.64 44.99,-329.41 -113.33,-401.98 -388.68,-451.81 -77.39,-14.01 -324.02,-42.35 -369.3,15.32 -28.92,36.83 -10.39,328.69 -10.46,400.19 -0.14,140.1 -2.25,284.51 1.63,424.17 1.1,39.6 6.86,50.14 46.8,50.46 121.83,0.99 130.13,-108.21 133.8,-187.41zm1419.47 813.86c5.43,-1.86 -8.87,-26.98 36.43,20 111.23,115.36 311.95,316.15 414.88,440.1 21.6,26.01 35.1,48.26 67.62,63.74 72.42,34.46 156.75,-30.13 166.06,-84.61l6.04 -523.32c1.19,-77.16 8.58,-177.91 1.54,-252.98 -33.39,-21.33 -91.28,-42 -144.25,-25.19 -55.06,17.48 -49.76,67.36 -51.3,131.78 -2.78,116.86 4.09,254.19 -4.85,367.42 -26.83,0.32 -30.29,-15.18 -45.02,-34.78 -82.46,-109.77 -321.09,-374.82 -423.63,-439.01 -70.47,-44.13 -182.43,-21.28 -224.2,37.07l0.77 123.27c0.59,175.73 -14.87,562.68 15.05,703.16 58.66,11.33 116.23,-11.48 145.62,-43.28 38.51,-41.67 29.37,-97.11 30.06,-166.79l9.18 -316.58zm4674.54 -1060.16c-233.47,254.26 -761.84,108.78 -738.61,-32.16 5.94,-36.07 106.15,-88.11 158.07,-105.14 68.4,-22.45 149.07,-32.38 226.94,-32.44 92.42,-0.08 361.96,33.54 353.6,169.74zm-455.57 -461.53c-296.73,30.1 -408.79,231.95 -380.43,548.23 14.57,162.49 65.27,230.77 180.59,289.82 162.92,83.4 400.45,80.71 569.78,-10.48 46.81,-25.2 107.54,-63.72 135.17,-95.93 103.45,-120.59 168.05,-518.49 -106.38,-669.77 -115.61,-63.74 -248.81,-77.07 -398.73,-61.87zm-3963.47 436.02c33.64,-94.95 240.93,-142.81 377.76,-144.18 130.45,-1.29 210.36,12.56 310.5,79.88 27.75,18.66 61.29,31.55 52.74,79.17 -8.17,45.53 -99.91,90.54 -152.25,111.45 -70.64,28.22 -141.96,37.28 -226.38,36.69 -121.56,-0.86 -325.45,-33.81 -362.37,-163.01zm264.06 -433.26c-289.23,44.28 -393.09,238.92 -357.14,564.16 16.9,152.98 76.24,226.26 192.97,278.12 118.34,52.58 261.16,69.04 401.6,38.11 115.42,-25.43 248.99,-97.27 298.72,-162.83 94.43,-124.5 161.38,-507.92 -131.62,-667.88 -105.38,-57.54 -272.21,-69.94 -404.53,-49.68zm3726.26 1272.71c-4.53,-63.4 -41.66,-77.2 -95.53,-91.04 -139.29,-35.77 -588.09,-42.06 -675.93,-8.35 -52.68,20.21 -35.14,85.66 -30.92,138.07 24.34,301.69 -13.79,95.52 -36.99,293.26 -5.77,49.25 -11.27,95.76 0.71,144.7l48.32 -3.86c12.41,251.11 -22.35,290.4 218.77,291.73 165.79,0.92 339.22,-1.56 504.67,11.64 24.98,-155.22 107.08,-248.98 -111.71,-267.13 -129.38,-10.73 -405.45,11.39 -438.81,5.65l0.39 -65.43c142.56,-11.18 491.6,5.89 512.26,2.21 21.03,-37.88 39.68,-166.2 21.17,-206.03 -16.57,-26.49 -88.55,-25.56 -119.06,-27.54 -43.2,-2.81 -88.71,-3.33 -131.39,-4.56 -76.89,-2.2 -215.67,6.72 -282.56,-3.26l1.06 -61.48c87.11,-13.1 215.74,-13.51 305.74,-11.27 97.37,2.4 203.47,27.35 284.85,27.31 23.62,-34.27 28.33,-117.47 24.96,-164.62zm-2212.49 -947.31c-53.79,54.05 -59.39,214.84 -45.09,260.93l50.13 1.97c3.21,317.17 -26.92,289.68 473.38,293.12 72.57,0.5 181.26,10.38 246.36,6.42 25.37,-62.73 41.72,-143.69 29.72,-217.57 -43.97,-89.44 -483.61,-30.41 -574.28,-39.58l-4.73 -67.66c87.32,-3.75 170.01,-6.75 256.74,-5.26 68.29,1.16 203.96,17.56 261.2,7.25 13.03,-44.54 36.93,-157 19.13,-202.78 -44.16,-53.96 -441.56,-31.5 -534.5,-35.32l1.55 -65.67c101.93,-8.25 207.53,-11.15 306.51,-9.16 108.08,2.18 186.66,20.13 287.57,29.3 10.04,-33.56 22.64,-111.61 21.39,-156.6 -1.76,-63.04 -32.84,-83.92 -86.6,-98.88 -140.31,-39.04 -573.31,-45.46 -680.75,-12.25 -77.03,23.8 -22.01,155.19 -27.73,311.74zm-2276.89 954.92c-2.15,-67.73 -29.84,-80.08 -88.64,-96.64 -138.85,-39.12 -593.76,-43.47 -682.19,-11.18 -64.54,23.57 -25.83,176.23 -23.34,308.61 -37.19,35.47 -42.14,83.64 -48.59,148.95 -15.65,158.52 12.84,111.76 52.21,117.14 10.17,245.84 -23.26,288.64 220.02,290.03 167.49,0.97 335.85,0.37 503.66,11.33 23.69,-164.9 107.34,-251.18 -118.67,-267.34 -72.37,-5.18 -150.65,-3.36 -223.31,-1.55 -61.47,1.54 -151.4,14.69 -209.17,9.09l0.79 -67.6c88.48,-3.83 173.55,-6.76 262.27,-5.17 60.18,1.09 204.61,21.03 248.52,6.8 20.65,-30.13 43.67,-163.15 22.31,-202.97 -35.42,-54.22 -486.95,-33.37 -533.85,-34.7l1.62 -65.24c302.99,-22.97 313.37,-9.56 590.06,19.52 18.82,-30.13 27.77,-112.63 26.3,-159.08zm-1568.74 246.19l0.16 -97.1c91.5,-31.41 210.6,-9.89 302.54,14.72 33.37,8.94 24.1,2.07 35.14,21.57 -34.11,22.9 -285.92,69.32 -337.84,60.81zm-185.8 424.6c0.56,16.16 0.33,37.64 2.07,53.16 8.59,76.59 114.38,36.18 153.79,-18.96 27.87,-39.01 23.37,-116.09 24.83,-168.83 305.31,11.94 603.16,235.35 697.47,268.32 57.18,-174.44 86.07,-231.53 -75.37,-314.78 -48.53,-25.02 -148.67,-56.9 -173.73,-80.89 94.93,-73.61 161.86,-51.07 161.97,-215.73 0.09,-163.82 -47.48,-217.83 -174,-272.43 -168.39,-72.66 -353.16,-87.49 -537.89,-55.57 -75.87,13.12 -92.05,20.89 -90.57,104.58l11.43 701.13zm6488.86 -422.09l0.3 -101.9 106.77 -15.8c49.47,-4.37 192.55,25.49 231.6,46.67 -14.46,27.07 -32.6,19.4 -72.56,28.29 -80.85,18 -184.54,44.24 -266.11,42.74zm440.3 160.56c61.04,-40.62 149.14,-66.59 161.33,-151.46 12.51,-87.12 3.8,-204.05 -43.58,-253.86 -174.94,-183.9 -663.91,-174.34 -735.11,-118.72 -35.86,28.01 -17.3,234.02 -15.31,292.45 3.5,103.07 3.1,205.12 3.66,308.19 0.39,72.27 -15.16,226.71 24.1,277.39 67.03,6.66 112.33,-22.58 134.87,-60.09 32.58,-54.2 9.47,-112.99 29.3,-165.16 105.91,-3.96 292.17,64.92 376.48,102.74 147.54,66.18 217.27,118.73 308.71,161.85l33.37 -68.16c5.65,-19.03 13.92,-51.78 16.32,-74.71 8.09,-77.81 -5.69,-97.58 -49.41,-127.96 -97.21,-67.56 -213.59,-95.69 -244.73,-122.5zm-5503.82 -1422.05c83.69,-16.06 275.67,-11.2 334.6,34.75 -23.71,34.08 -286.39,67.51 -340.81,69.7l6.21 -104.45zm-183.75 602.22l18.71 16.36c60.27,3.96 103.42,-20 130.76,-60.62 24.57,-36.53 20.96,-115.88 24.66,-167.07 119.1,4.65 275.06,58.88 373.71,101.15 89.64,38.41 311.11,162.99 320.28,166.55 39.47,-88.68 85.37,-208.17 -1.43,-269.98 -110.14,-78.44 -203.56,-88.65 -245.59,-122.72 46.43,-48.49 138.71,-55.85 156.62,-141.26 18.16,-86.58 6.71,-211.61 -38.93,-263.04 -134.27,-151.3 -557.18,-194 -721.4,-129.82 -55.22,21.58 -35.12,182.16 -32.61,271.52 2.83,100.46 1.07,541.23 15.22,598.93z"/>
    <g>
     <path class="fil1" d="M2801.89 3859.01c-388.61,32.03 -800.2,178.6 -1151.22,322.3 -64.83,26.53 -297.78,130.26 -330.94,162.88l424.7 -123.95c146.67,-37.35 303.24,-69.18 459.26,-94.76 330.25,-54.14 673.42,-81.74 1019.38,-79.85 568.96,3.09 1127.46,96.82 1657.8,272.8 58.05,19.26 151.87,60.24 203.44,70.16 -113.45,-103.59 -384.43,-235.87 -533.95,-300.7 -565.23,-245.09 -1140.85,-277.79 -1748.47,-228.88z"/>
     <path class="fil2" d="M2741 3947.27c-30.9,25.32 -62.8,52.18 -91.68,78.38 122.34,4.17 264.56,-54.04 357.56,-120.5 102.86,-73.5 182.41,-174.03 253.15,-278.11 35.67,-52.48 105.07,-194.2 151.81,-210.08 87.75,-29.8 169.47,207.09 220.72,310.42 66.03,133.11 146.51,289.36 367.32,363.98 -71.04,-133.97 -189,-383.03 -232.72,-654.55 -52.91,-328.65 15.68,-677.6 215.39,-928.48 49.1,-61.7 88.28,-100.01 140.74,-151.87 18.2,-17.99 155.61,-119.14 160.22,-127.26 -152.14,-11.23 -373.38,145.48 -452.23,220.42 -31.27,29.73 -57.02,50.71 -88.04,81.47 -95.15,94.39 -174.8,214.43 -316.74,76.98 -104.68,-101.38 -227.7,-438.14 -385.33,-631.04 -34.57,-42.3 -129.07,-142.96 -185.94,-159.53 16.61,36.84 45.77,82.55 65.36,117.72 158.89,285.21 294.59,616.24 349.36,945.57 64.33,386.87 -140.97,648.62 -359.51,904.82 -5.98,7.01 -159.74,153.71 -169.44,161.66z"/>
     <path class="fil3" d="M3007.62 1625.24c0.12,83.65 11.47,141.32 22.77,216.89 84.17,-12 245.51,-105.01 303.35,-144.66 296.99,-203.6 449.49,-523.74 448.77,-919.76 -0.17,-89.99 -10.64,-155.65 -21.18,-239.67 -133.12,32.27 -418.38,270.89 -515.84,400.82 -135.05,180.06 -238.31,390.52 -237.87,686.38z"/>
     <path class="fil3" d="M2875.36 1808.14c32.3,-409.84 -149.24,-867.23 -460.32,-1084.62 -76.78,-53.66 -236.72,-157.48 -348.13,-170.03 -16.86,181.26 -30.75,301.65 14.99,481.03 64.08,251.35 234.36,467.54 442.99,603.73 78.51,51.26 246.03,151.2 350.47,169.89z"/>
     <path class="fil4" d="M4403.41 2207.48c439.09,12.36 836.39,-147.63 1075.82,-473.97 36.79,-50.15 170.03,-270.68 163.62,-349.32 -144.96,-31.45 -342.14,-17.58 -478.74,19.01 -249.9,66.95 -459.43,236.72 -597.55,449.44 -37.9,58.37 -162.35,274.86 -163.15,354.84z"/>
     <path class="fil2" d="M3467.03 2110.63c0.2,79.1 10.93,157 27.68,229.77l42.23 141.46c3.68,10.06 3.46,11.13 8.61,22.05l16.26 22.41c30.58,-17.07 100.91,-89.31 126.94,-119.09 125.51,-143.64 205.47,-325.52 205.39,-535.44 -0.04,-95.93 -36.06,-310.11 -85.97,-360.88 -85.03,39.67 -193.53,147.84 -241.57,226.77 -61.52,101.08 -99.96,225.32 -99.57,372.95z"/>
     <path class="fil4" d="M4641.46 1476.22c37.46,-15.06 124.69,-86.44 152.41,-112.87 56.59,-53.96 84.1,-85.66 128.74,-148.26 75.24,-105.51 134.19,-250.51 133.74,-414.26 -0.17,-60.17 -11.31,-181.83 -39.48,-226.92 -127.82,36.67 -274.83,188.47 -344.06,322.17 -84.26,162.74 -87.69,394.77 -31.35,580.14z"/>
     <path class="fil4" d="M4285.49 2119.98c38.33,-27.6 113.72,-165.07 130.01,-202.72 77.78,-179.71 112.01,-357.36 47.58,-554.12 -24.31,-74.22 -66.78,-176.54 -116,-214.83 -116.51,92.44 -214.03,285.15 -224.33,453.71 -6.38,104.37 11.97,209.9 43.75,295.62 27.29,73.58 73.11,177.91 118.99,222.34z"/>
     <path class="fil3" d="M1850.22 1848.67c22.17,43.17 128.78,118.03 189.29,152.14 170.1,95.89 373.46,101.08 557.51,37.17 61.93,-21.5 196.04,-76.18 225.01,-120.32 -147.25,-96.19 -240.48,-176.51 -454.27,-206.21 -158.6,-22.04 -334.98,13.95 -469.18,98.28 -22.25,13.98 -35.56,20.35 -48.36,38.94z"/>
     <path class="fil5" d="M2945.92 995.2c85.81,-96.62 145.01,-364.85 132.88,-525.8 -11.59,-153.92 -104.59,-364.69 -209.87,-443.87 -38.8,23.36 -101.83,151.46 -123.88,212.08 -70.33,193.32 -40.67,379.63 51,559.03 29.85,58.42 102.85,170.36 149.87,198.56z"/>
     <path class="fil4" d="M5055.94 2304.62c22.47,115.38 188.76,288.47 321.36,354.26 159.65,79.23 441.15,99.25 575.71,35.23 -12.58,-26.66 -47.75,-73.29 -67.01,-97.34 -76.5,-95.52 -159.31,-174.23 -271.79,-236.24 -168.33,-92.82 -352.03,-114.06 -558.27,-55.91z"/>
     <path class="fil4" d="M4372.97 2361.38c-7.53,48.7 82.11,188.22 105.59,218.7 180.93,234.8 437.84,292.21 747.53,252.97 -16.49,-99.38 -202.56,-296.4 -304.01,-365.55 -141.97,-96.76 -338.34,-146.19 -549.11,-106.12z"/>
     <path class="fil5" d="M1499.49 1287.86c12.73,89.91 150.82,208.1 242.59,254.91 101.29,51.66 325.52,68.33 428.55,13.12 -25.88,-74.73 -172.7,-197.9 -255.5,-239.51 -123.7,-62.14 -277.47,-72.65 -415.64,-28.52z"/>
    </g>
   </g>
  </g>
 </g>
</svg>
