<?xml version="1.0" encoding="UTF-8"?>
<!DOCTYPE svg PUBLIC "-//W3C//DTD SVG 1.1//EN" "http://www.w3.org/Graphics/SVG/1.1/DTD/svg11.dtd">
<!-- Creator: CorelDRAW 2018 (64 Bit Versão de avaliação) -->
<svg xmlns="http://www.w3.org/2000/svg" xml:space="preserve" width="30mm" height="30mm" version="1.1" style="shape-rendering:geometricPrecision; text-rendering:geometricPrecision; image-rendering:optimizeQuality; fill-rule:evenodd; clip-rule:evenodd"
viewBox="0 0 3000 3000"
 xmlns:xlink="http://www.w3.org/1999/xlink">
 <defs>
  <style type="text/css">
   <![CDATA[
    .fil4 {fill:#96C049}
    .fil3 {fill:#00A5FF}
    .fil5 {fill:#02A5FD}
    .fil2 {fill:#0F376F}
    .fil0 {fill:#DD0100}
    .fil1 {fill:#F7C301}
   ]]>
  </style>
 </defs>
 <g id="Camada_x0020_1">
  <metadata id="CorelCorpID_0Corel-Layer"/>
  <g id="_2243431242704">
   <path class="fil0" d="M1194.11 1722.55c-156.86,12.93 -323,72.09 -464.69,130.1 -26.17,10.71 -120.2,52.58 -133.58,65.74l171.43 -50.03c59.2,-15.07 122.4,-27.92 185.38,-38.25 133.3,-21.85 271.82,-32.99 411.47,-32.23 229.66,1.25 455.1,39.08 669.17,110.12 23.43,7.77 61.3,24.31 82.12,28.32 -45.79,-41.82 -155.17,-95.21 -215.53,-121.38 -228.15,-98.93 -460.5,-112.13 -705.77,-92.39z"/>
   <path class="fil1" d="M1169.53 1758.18c-12.47,10.22 -25.35,21.06 -37,31.63 49.38,1.69 106.78,-21.81 144.32,-48.63 41.52,-29.67 73.63,-70.25 102.19,-112.26 14.4,-21.19 42.41,-78.39 61.28,-84.8 35.42,-12.03 68.41,83.59 89.09,125.3 26.65,53.73 59.14,116.8 148.27,146.92 -28.67,-54.08 -76.29,-154.61 -93.94,-264.21 -21.35,-132.66 6.33,-273.51 86.94,-374.78 19.83,-24.91 35.64,-40.37 56.81,-61.3 7.35,-7.27 62.82,-48.09 64.68,-51.37 -61.41,-4.54 -150.72,58.72 -182.54,88.97 -12.63,12 -23.02,20.47 -35.54,32.88 -38.41,38.11 -70.56,86.56 -127.85,31.08 -42.26,-40.93 -91.92,-176.86 -155.54,-254.72 -13.96,-17.08 -52.1,-57.71 -75.06,-64.39 6.71,14.87 18.48,33.32 26.38,47.51 64.14,115.13 118.91,248.75 141.02,381.68 25.97,156.16 -56.9,261.82 -145.11,365.23 -2.42,2.83 -64.48,62.05 -68.4,65.26z"/>
   <path class="fil2" d="M1833.09 2574.83c7.64,-11.34 8.01,-35.42 10.97,-51.54 3.14,-17.13 8.25,-31.77 -4.27,-45.02 -38.58,-40.81 -210.32,-57.92 -287.19,-3.93 -25.45,17.86 -31.27,48.5 -30.49,91.26 0.63,34.97 3.77,73.67 27.19,91.39 45.59,34.5 150.41,19.54 214.94,25.01l0.26 14.18c-33.06,10.22 -86.78,13.06 -123.83,9.77 -57.32,-5.1 -85.03,-25.92 -108.74,-25.24 -13.51,19.98 -21.21,81.33 -3.74,100.03 35.15,37.66 228.28,46.07 292.76,-9.92 25.67,-22.28 31.39,-44.05 32.64,-90.15 3.79,-139.51 -146.28,-90.63 -261.46,-104.24l0.36 -12.8c23.54,-12.55 96.52,-15.15 128.04,-12.52 49.19,4.11 102.93,28.32 112.56,23.72zm-286.13 -358.1c-57.87,28.81 -124.49,10.96 -163.71,-43.49 -11.94,-16.58 -18.93,-36.1 -28.95,-51.34 -14.37,5.58 -99.46,112.47 39.63,196.17 48.7,29.31 136.22,34.9 173.37,-25 21.01,-33.88 20.88,-13.95 36.69,-44.07 26.41,-50.3 26.83,-153.77 25.91,-215.21 -0.62,-41.13 2.09,-68.34 -57.62,-61.92 -35.72,3.84 -22.62,17.83 -20.94,93.02 1.19,53.08 4.07,99.59 -4.38,151.84zm596.75 -120.42c11.21,34.57 4.73,225.14 11.23,238.09 15.05,16.19 41.83,7.72 56.49,-6.21 15.9,-15.11 12.83,-43.32 14.75,-69.82 2.01,-27.69 1.38,-152.64 5.91,-164.34 48.01,-7.89 107.18,10.27 151.82,8.71 5.4,-23.77 8.94,-59.39 3.26,-85.46 -5.7,-26.14 -37.4,-28.24 -63.77,-32.15 -51.98,-7.71 -214.94,-8.24 -272.2,2.31 -33.47,6.17 -39.62,20.12 -39.99,55.61 -0.68,64.01 3.32,59.81 39.85,56.3 25.63,-2.46 67.15,-9.21 92.65,-3.04zm-839.72 514.22c5.45,-15.62 14.44,-28.62 22.09,-38.53 16.22,6.14 23.36,21.78 28.35,38.12l-15.17 0.64 -21.76 0.04 -13.51 -0.27zm-107.68 197.86c58.37,-98.1 28.49,-97.45 83.8,-101.91 39.28,-3.17 79.17,-0.74 118.21,2.57 24.25,2.06 22.06,14.52 30.35,31.41 12.91,26.34 27.83,56.84 40.71,80.16 24.15,-4.16 54.93,-55.05 34.52,-102.5 -26.04,-60.55 -119.86,-265.78 -168.76,-272.27 -35.94,-4.77 -86.61,87.03 -104.09,117.14 -6.71,11.57 -19.17,38.88 -24.94,46.6 -13.42,17.93 -29.23,-7.97 -29.6,46.35 -0.14,19.34 -11.02,37.82 -17.79,55.38 -19.87,51.53 19.03,92.87 37.59,97.07zm997.84 -177.6c9.72,-17.69 15.58,-42.96 19.51,-66.87 5.22,-31.76 0.92,-46.78 -21.19,-59.12 -38.32,-21.39 -81.64,-35.63 -132.24,-39.54 -167.19,-12.9 -238.38,174.51 -153.48,285 12.14,15.8 28.98,28.07 46.9,37.25 59.81,30.64 244.74,31.67 248.47,-47.65 0.94,-19.85 -3.81,-57.83 -8.07,-75.02 -57.61,11.85 -78.82,30.34 -161.8,29.24 -36.68,-0.49 -141.06,-19.12 -111.31,-62.61 24.79,-36.23 77.82,-53.31 136.23,-49.69 70.2,4.36 108.94,44.08 136.98,49.01zm-1914.68 -525.96c19.37,-12.13 152.61,2.78 169.21,25.37 -5,9.64 -4.38,7.27 -14.57,11.44l-59.16 15.66c-30.06,4.08 -62.26,4.28 -95.03,2.07l-0.45 -54.54zm-1.87 163.07c53.51,-1.54 106.56,5.32 155.44,-11.82 42.52,-14.9 74.49,-40.45 81.19,-89.46 18.16,-132.97 -45.75,-162.26 -156.89,-182.37 -31.24,-5.66 -130.79,-17.1 -149.07,6.18 -11.67,14.87 -4.19,132.67 -4.22,161.54 -0.06,56.55 -0.91,114.84 0.66,171.21 0.44,15.99 2.77,20.24 18.89,20.37 49.18,0.4 52.53,-43.68 54,-75.65zm572.97 328.51c2.19,-0.74 -3.58,-10.88 14.71,8.08 44.9,46.56 125.92,127.61 167.46,177.64 8.72,10.5 14.17,19.48 27.3,25.73 29.23,13.91 63.27,-12.16 67.03,-34.15l2.44 -211.24c0.48,-31.14 3.46,-71.81 0.62,-102.11 -13.48,-8.61 -36.85,-16.96 -58.23,-10.17 -22.23,7.06 -20.08,27.19 -20.7,53.19 -1.13,47.17 1.64,102.61 -1.96,148.31 -10.83,0.13 -12.23,-6.13 -18.17,-14.04 -33.29,-44.31 -129.62,-151.29 -171.01,-177.21 -28.44,-17.81 -73.63,-8.58 -90.49,14.97l0.31 49.76c0.24,70.93 -6,227.12 6.08,283.82 23.67,4.58 46.91,-4.63 58.77,-17.46 15.55,-16.82 11.86,-39.2 12.14,-67.33l3.7 -127.79zm1886.88 -427.93c-94.24,102.63 -307.52,43.91 -298.14,-12.98 2.4,-14.56 42.85,-35.56 63.81,-42.44 27.6,-9.06 60.16,-13.07 91.6,-13.09 37.3,-0.03 146.1,13.54 142.73,68.51zm-183.89 -186.29c-119.78,12.14 -165.01,93.62 -153.56,221.29 5.88,65.59 26.34,93.15 72.89,116.98 65.76,33.67 161.64,32.58 230,-4.23 18.89,-10.17 43.4,-25.72 54.56,-38.72 41.75,-48.67 67.83,-209.28 -42.94,-270.35 -46.67,-25.73 -100.43,-31.11 -160.95,-24.97zm-1599.86 176c13.58,-38.33 97.26,-57.65 152.49,-58.2 52.65,-0.52 84.91,5.07 125.33,32.24 11.2,7.53 24.74,12.73 21.29,31.96 -3.3,18.38 -40.33,36.54 -61.46,44.98 -28.51,11.39 -57.3,15.05 -91.37,14.81 -49.07,-0.34 -131.37,-13.64 -146.28,-65.79zm106.59 -174.89c-116.75,17.87 -158.67,96.44 -144.16,227.72 6.83,61.75 30.78,91.33 77.89,112.27 47.77,21.22 105.42,27.86 162.11,15.38 46.59,-10.26 100.5,-39.26 120.58,-65.73 38.12,-50.25 65.14,-205.02 -53.13,-269.59 -42.54,-23.22 -109.88,-28.23 -163.29,-20.05zm1504.11 513.73c-1.83,-25.59 -16.82,-31.16 -38.57,-36.75 -56.22,-14.44 -237.37,-16.98 -272.83,-3.37 -21.27,8.16 -14.19,34.58 -12.48,55.73 9.82,121.78 -5.57,38.56 -14.93,118.38 -2.33,19.88 -4.55,38.65 0.28,58.4l19.5 -1.55c5.02,101.35 -9.02,117.22 88.31,117.75 66.93,0.37 136.93,-0.63 203.71,4.7 10.09,-62.66 43.22,-100.5 -45.09,-107.83 -52.23,-4.33 -163.66,4.6 -177.13,2.29l0.16 -26.42c57.55,-4.51 198.44,2.38 206.78,0.9 8.48,-15.29 16.01,-67.09 8.54,-83.17 -6.69,-10.69 -35.74,-10.31 -48.06,-11.12 -17.43,-1.13 -35.81,-1.34 -53.03,-1.83 -31.04,-0.89 -87.06,2.71 -114.06,-1.32l0.43 -24.82c35.16,-5.28 87.09,-5.45 123.41,-4.55 39.31,0.97 82.13,11.04 114.98,11.03 9.53,-13.84 11.44,-47.42 10.08,-66.45zm-893.07 -382.38c-21.71,21.81 -23.98,86.72 -18.2,105.32l20.23 0.8c1.3,128.02 -10.86,116.93 191.08,118.31 29.29,0.2 73.16,4.2 99.44,2.6 10.25,-25.33 16.85,-58 12,-87.83 -17.75,-36.1 -195.21,-12.27 -231.81,-15.97l-1.9 -27.31c35.24,-1.52 68.62,-2.73 103.63,-2.13 27.56,0.47 82.32,7.09 105.43,2.93 5.26,-17.98 14.91,-63.37 7.72,-81.85 -17.82,-21.78 -178.24,-12.72 -215.75,-14.26l0.63 -26.5c41.14,-3.34 83.77,-4.51 123.72,-3.7 43.63,0.87 75.35,8.12 116.08,11.82 4.05,-13.54 9.14,-45.05 8.63,-63.21 -0.71,-25.45 -13.26,-33.87 -34.96,-39.91 -56.63,-15.76 -231.41,-18.35 -274.78,-4.95 -31.09,9.61 -8.88,62.65 -11.19,125.84zm-919.07 385.45c-0.87,-27.34 -12.04,-32.32 -35.78,-39.01 -56.05,-15.79 -239.67,-17.55 -275.36,-4.51 -26.06,9.51 -10.43,71.13 -9.43,124.57 -15.01,14.32 -17.01,33.76 -19.61,60.12 -6.32,63.99 5.18,45.11 21.07,47.29 4.11,99.23 -9.38,116.5 88.82,117.07 67.6,0.39 135.56,0.14 203.3,4.57 9.56,-66.56 43.33,-101.39 -47.9,-107.91 -29.22,-2.09 -60.81,-1.36 -90.14,-0.63 -24.82,0.62 -61.12,5.93 -84.43,3.67l0.32 -27.28c35.71,-1.55 70.05,-2.73 105.86,-2.09 24.29,0.44 82.59,8.49 100.32,2.74 8.33,-12.16 17.62,-65.85 9,-81.93 -14.3,-21.88 -196.56,-13.46 -215.49,-14l0.66 -26.34c122.3,-9.27 126.49,-3.86 238.17,7.88 7.6,-12.16 11.21,-45.46 10.62,-64.21zm-633.22 99.37l0.06 -39.19c36.94,-12.68 85.01,-3.99 122.12,5.94 13.48,3.61 9.73,0.84 14.19,8.71 -13.77,9.24 -115.41,27.98 -136.37,24.54zm-75 171.39c0.23,6.52 0.14,15.2 0.84,21.46 3.47,30.92 46.17,14.6 62.07,-7.65 11.25,-15.75 9.44,-46.86 10.03,-68.15 123.24,4.82 243.46,95 281.53,108.31 23.08,-70.42 34.74,-93.46 -30.42,-127.06 -19.59,-10.1 -60.01,-22.97 -70.13,-32.65 38.32,-29.72 65.34,-20.62 65.38,-87.08 0.04,-66.13 -19.17,-87.93 -70.24,-109.97 -67.96,-29.33 -142.55,-35.31 -217.12,-22.43 -30.62,5.3 -37.15,8.43 -36.55,42.21l4.61 283.01zm2619.23 -170.37l0.12 -41.13 43.09 -6.38c19.97,-1.77 77.73,10.29 93.49,18.84 -5.84,10.92 -13.16,7.83 -29.29,11.42 -32.63,7.26 -74.49,17.85 -107.41,17.25zm177.72 64.81c24.64,-16.4 60.2,-26.88 65.12,-61.14 5.05,-35.16 1.54,-82.36 -17.59,-102.47 -70.61,-74.23 -267.98,-70.37 -296.72,-47.92 -14.48,11.31 -6.99,94.46 -6.18,118.05 1.41,41.6 1.25,82.79 1.47,124.4 0.16,29.17 -6.12,91.51 9.73,111.96 27.06,2.7 45.34,-9.11 54.44,-24.25 13.15,-21.88 3.83,-45.61 11.83,-66.67 42.75,-1.6 117.93,26.21 151.97,41.47 59.55,26.72 87.7,47.93 124.6,65.34l13.48 -27.52c2.28,-7.68 5.61,-20.9 6.58,-30.15 3.27,-31.41 -2.3,-39.39 -19.94,-51.66 -39.24,-27.27 -86.22,-38.62 -98.79,-49.44zm-2221.61 -574.01c33.78,-6.48 111.27,-4.52 135.06,14.03 -9.57,13.75 -115.6,27.25 -137.57,28.13l2.51 -42.16zm-74.17 243.08l7.55 6.61c24.33,1.6 41.75,-8.08 52.78,-24.47 9.92,-14.75 8.46,-46.77 9.95,-67.44 48.08,1.88 111.03,23.77 150.85,40.83 36.19,15.5 125.58,65.79 129.28,67.23 15.94,-35.8 34.46,-84.03 -0.57,-108.98 -44.46,-31.66 -82.17,-35.78 -99.14,-49.53 18.75,-19.58 55.99,-22.55 63.23,-57.02 7.33,-34.95 2.7,-85.42 -15.72,-106.18 -54.2,-61.07 -224.9,-78.31 -291.19,-52.4 -22.29,8.71 -14.18,73.53 -13.17,109.6 1.15,40.55 0.44,218.47 6.15,241.75z"/>
   <path class="fil3" d="M1277.15 820.89c0.05,33.76 4.63,57.04 9.2,87.55 33.97,-4.85 99.1,-42.39 122.45,-58.4 119.88,-82.18 181.43,-211.4 181.14,-371.25 -0.07,-36.33 -4.3,-62.83 -8.55,-96.75 -53.73,13.03 -168.88,109.35 -208.22,161.79 -54.51,72.69 -96.2,157.63 -96.02,277.06z"/>
   <path class="fil3" d="M1223.77 894.72c13.03,-165.44 -60.24,-350.06 -185.81,-437.81 -31,-21.66 -95.55,-63.57 -140.52,-68.63 -6.81,73.16 -12.42,121.76 6.05,194.16 25.86,101.46 94.6,188.73 178.81,243.7 31.69,20.69 99.31,61.03 141.47,68.58z"/>
   <path class="fil4" d="M1840.57 1055.91c177.23,4.99 337.6,-59.59 434.25,-191.32 14.85,-20.24 68.63,-109.26 66.04,-141 -58.51,-12.69 -138.1,-7.1 -193.24,7.67 -100.87,27.03 -185.45,95.56 -241.2,181.42 -15.3,23.56 -65.53,110.95 -65.85,143.23z"/>
   <path class="fil1" d="M1462.6 1016.82c0.08,31.93 4.41,63.37 11.17,92.74l17.05 57.1c1.48,4.06 1.39,4.49 3.47,8.9l6.57 9.05c12.34,-6.89 40.73,-36.05 51.23,-48.07 50.67,-57.98 82.94,-131.4 82.91,-216.13 -0.02,-38.72 -14.56,-125.18 -34.7,-145.67 -34.32,16.01 -78.12,59.68 -97.51,91.53 -24.83,40.81 -40.35,90.96 -40.19,150.55z"/>
   <path class="fil4" d="M1936.65 760.74c15.13,-6.08 50.34,-34.89 61.52,-45.56 22.85,-21.78 33.95,-34.58 51.97,-59.85 30.37,-42.59 54.17,-101.12 53.99,-167.21 -0.07,-24.29 -4.57,-73.4 -15.94,-91.6 -51.6,14.8 -110.94,76.08 -138.88,130.05 -34.01,65.69 -35.4,159.34 -12.66,234.17z"/>
   <path class="fil4" d="M1792.97 1020.59c15.47,-11.14 45.9,-66.63 52.48,-81.83 31.39,-72.54 45.21,-144.24 19.2,-223.67 -9.81,-29.95 -26.95,-71.26 -46.82,-86.71 -47.03,37.31 -86.39,115.1 -90.55,183.14 -2.58,42.12 4.83,84.72 17.66,119.32 11.01,29.7 29.51,71.81 48.03,89.75z"/>
   <path class="fil3" d="M809.97 911.08c8.95,17.42 51.98,47.64 76.4,61.41 68.67,38.7 150.75,40.8 225.04,15 25,-8.68 79.14,-30.75 90.83,-48.56 -59.44,-38.83 -97.07,-71.25 -183.36,-83.24 -64.03,-8.9 -135.22,5.63 -189.39,39.67 -8.98,5.64 -14.35,8.21 -19.52,15.72z"/>
   <path class="fil5" d="M1252.25 566.57c34.63,-39 58.53,-147.27 53.64,-212.23 -4.68,-62.13 -42.22,-147.21 -84.72,-179.17 -15.66,9.43 -41.1,61.14 -50,85.61 -28.39,78.03 -16.42,153.23 20.58,225.65 12.05,23.58 41.52,68.76 60.5,80.14z"/>
   <path class="fil4" d="M2103.96 1095.12c9.07,46.57 76.19,116.44 129.72,143 64.44,31.98 178.07,40.06 232.38,14.22 -5.08,-10.76 -19.28,-29.59 -27.05,-39.29 -30.88,-38.56 -64.3,-70.33 -109.71,-95.36 -67.94,-37.47 -142.09,-46.04 -225.34,-22.57z"/>
   <path class="fil4" d="M1828.28 1118.03c-3.04,19.66 33.14,75.98 42.62,88.28 73.03,94.78 176.73,117.95 301.74,102.11 -6.66,-40.11 -81.76,-119.64 -122.71,-147.55 -57.31,-39.06 -136.58,-59.01 -221.65,-42.84z"/>
   <path class="fil5" d="M668.4 684.71c5.14,36.29 60.88,84 97.92,102.89 40.88,20.85 131.4,27.58 172.98,5.3 -10.44,-30.17 -69.71,-79.89 -103.13,-96.68 -49.93,-25.08 -112,-29.33 -167.77,-11.51z"/>
  </g>
 </g>
</svg>
