<?xml version="1.0" encoding="UTF-8"?>
<!DOCTYPE svg PUBLIC "-//W3C//DTD SVG 1.1//EN" "http://www.w3.org/Graphics/SVG/1.1/DTD/svg11.dtd">
<!-- Creator: CorelDRAW -->
<svg xmlns="http://www.w3.org/2000/svg" xml:space="preserve" width="132.676mm" height="41.9962mm" version="1.1" style="shape-rendering:geometricPrecision; text-rendering:geometricPrecision; image-rendering:optimizeQuality; fill-rule:evenodd; clip-rule:evenodd"
viewBox="0 0 13267.58 4199.62"
 xmlns:xlink="http://www.w3.org/1999/xlink"
 xmlns:xodm="http://www.corel.com/coreldraw/odm/2003">
 <defs>
  <style type="text/css">
   <![CDATA[
    .fil4 {fill:#96C049}
    .fil3 {fill:#00A5FF}
    .fil5 {fill:#02A5FD}
    .fil0 {fill:#0F376F}
    .fil1 {fill:#DD0100}
    .fil2 {fill:#F7C301}
   ]]>
  </style>
 </defs>
 <g id="Camada_x0020_1">
  <metadata id="CorelCorpID_0Corel-Layer"/>
  <g id="_1503737325408">
   <path class="fil0" d="M9693.32 2621.49c22.51,-33.42 23.63,-104.4 32.35,-151.95 9.26,-50.49 24.32,-93.66 -12.6,-132.71 -113.74,-120.32 -620.09,-170.76 -846.73,-11.61 -75.01,52.68 -92.17,143.01 -89.89,269.07 1.87,103.1 11.12,217.21 80.17,269.46 134.42,101.72 443.45,57.61 633.7,73.74l0.78 41.8c-97.47,30.12 -255.85,38.5 -365.09,28.79 -168.99,-15.03 -250.69,-76.42 -320.6,-74.39 -39.84,58.91 -62.53,239.76 -11.04,294.92 103.65,111.02 673.06,135.81 863.15,-29.25 75.68,-65.71 92.55,-129.89 96.24,-265.81 11.18,-411.3 -431.29,-267.19 -770.86,-307.33l1.06 -37.72c69.4,-37 284.57,-44.68 377.51,-36.92 145.01,12.11 303.45,83.49 331.85,69.91zm-843.61 -1055.78c-170.62,84.94 -367.02,32.34 -482.65,-128.22 -35.22,-48.88 -55.82,-106.42 -85.36,-151.35 -42.37,16.45 -293.23,331.58 116.83,578.36 143.59,86.42 401.63,102.89 511.17,-73.72 61.95,-99.88 61.55,-41.11 108.18,-129.93 77.84,-148.28 79.08,-453.35 76.37,-634.5 -1.82,-121.26 6.16,-201.47 -169.88,-182.54 -105.3,11.32 -66.7,52.56 -61.74,274.23 3.51,156.52 12,293.63 -12.92,447.67zm1759.41 -355.02c33.05,101.93 13.96,663.77 33.12,701.96 44.36,47.75 123.32,22.75 166.52,-18.31 46.89,-44.55 37.83,-127.73 43.5,-205.84 5.92,-81.64 4.08,-450.03 17.43,-484.53 141.55,-23.28 316,30.26 447.62,25.69 15.92,-70.09 26.36,-175.11 9.6,-251.98 -16.81,-77.08 -110.25,-83.26 -188.02,-94.8 -153.24,-22.73 -633.69,-24.28 -802.52,6.83 -98.69,18.18 -116.8,59.3 -117.91,163.94 -2.01,188.74 9.8,176.34 117.49,166 75.57,-7.25 197.97,-27.15 273.17,-8.96zm-2475.75 1516.07c16.06,-46.05 42.58,-84.37 65.14,-113.6 47.8,18.12 68.87,64.21 83.59,112.4l-44.74 1.87 -64.14 0.14 -39.85 -0.81zm-317.46 583.35c172.09,-289.23 83.99,-287.31 247.06,-300.46 115.82,-9.34 233.42,-2.17 348.51,7.59 71.5,6.06 65.06,42.79 89.48,92.59 38.08,77.66 82.07,167.59 120.04,236.34 71.2,-12.28 161.94,-162.32 101.77,-302.21 -76.79,-178.52 -353.38,-783.59 -497.57,-802.72 -105.95,-14.05 -255.34,256.58 -306.86,345.36 -19.8,34.12 -56.54,114.64 -73.55,137.38 -39.57,52.89 -86.18,-23.48 -87.27,136.66 -0.4,57.03 -32.48,111.5 -52.45,163.27 -58.59,151.93 56.12,273.82 110.84,286.2zm2941.92 -523.61c28.65,-52.16 45.93,-126.65 57.52,-197.15 15.4,-93.64 2.73,-137.92 -62.49,-174.32 -112.97,-63.06 -240.67,-105.05 -389.88,-116.56 -492.9,-38.05 -702.8,514.49 -452.48,840.27 35.79,46.58 85.42,82.74 138.26,109.82 176.35,90.34 721.57,93.36 732.57,-140.48 2.76,-58.55 -11.25,-170.5 -23.8,-221.19 -169.85,34.94 -232.38,89.45 -477.03,86.21 -108.14,-1.44 -415.88,-56.37 -328.17,-184.59 73.08,-106.83 229.43,-157.19 401.65,-146.5 206.95,12.84 321.18,129.95 403.85,144.49zm-5645.06 -1550.7c57.12,-35.74 449.96,8.21 498.88,74.79 -14.74,28.45 -12.9,21.46 -42.94,33.75l-174.42 46.16c-88.62,12.05 -183.58,12.62 -280.18,6.11l-1.34 -160.81zm-5.49 480.79c157.74,-4.55 314.15,15.69 458.29,-34.84 125.35,-43.95 219.61,-119.27 239.35,-263.77 53.54,-392.03 -134.87,-478.39 -462.56,-537.69 -92.1,-16.67 -385.61,-50.41 -439.5,18.23 -34.41,43.83 -12.37,391.16 -12.45,476.26 -0.17,166.73 -2.67,338.58 1.95,504.79 1.31,47.13 8.16,59.67 55.69,60.06 144.99,1.17 154.87,-128.79 159.23,-223.04zm1689.28 968.55c6.46,-2.2 -10.55,-32.1 43.36,23.81 132.37,137.28 371.25,376.24 493.73,523.75 25.72,30.96 41.78,57.43 80.48,75.86 86.18,41.01 186.55,-35.85 197.62,-100.69l7.19 -622.79c1.42,-91.83 10.22,-211.73 1.83,-301.07 -39.73,-25.38 -108.63,-49.98 -171.67,-29.98 -65.52,20.81 -59.21,80.16 -61.04,156.83 -3.31,139.08 4.86,302.51 -5.78,437.26 -31.92,0.37 -36.04,-18.06 -53.57,-41.4 -98.14,-130.63 -382.13,-446.05 -504.16,-522.46 -83.86,-52.51 -217.11,-25.32 -266.81,44.13l0.92 146.7c0.7,209.13 -17.7,669.63 17.91,836.81 69.81,13.49 138.32,-13.67 173.29,-51.5 45.84,-49.6 34.96,-115.58 35.78,-198.49l10.92 -376.77zm5563.07 -1261.67c-277.84,302.59 -906.63,129.46 -878.99,-38.27 7.07,-42.92 126.33,-104.85 188.12,-125.13 81.39,-26.71 177.39,-38.53 270.07,-38.6 109.99,-0.1 430.76,39.91 420.8,202zm-542.16 -549.25c-353.13,35.81 -486.49,276.04 -452.73,652.43 17.33,193.38 77.67,274.64 214.91,344.91 193.88,99.26 476.57,96.05 678.09,-12.47 55.7,-29.99 127.97,-75.83 160.86,-114.16 123.11,-143.51 199.99,-617.04 -126.6,-797.09 -137.59,-75.85 -296.1,-91.71 -474.53,-73.62zm-4716.84 518.9c40.03,-113.01 286.72,-169.97 449.56,-171.59 155.25,-1.53 250.35,14.95 369.52,95.06 33.02,22.21 72.94,37.55 62.77,94.22 -9.72,54.19 -118.91,107.75 -181.19,132.63 -84.07,33.59 -168.94,44.37 -269.41,43.67 -144.67,-1.02 -387.31,-40.24 -431.25,-193.99zm314.25 -515.62c-344.21,52.7 -467.81,284.33 -425.03,671.39 20.12,182.07 90.74,269.27 229.65,331 140.84,62.57 310.81,82.15 477.94,45.34 137.35,-30.25 296.31,-115.75 355.5,-193.78 112.38,-148.16 192.06,-604.46 -156.63,-794.83 -125.42,-68.47 -323.96,-83.23 -481.43,-59.12zm4434.54 1514.62c-5.38,-75.45 -49.57,-91.87 -113.68,-108.34 -165.77,-42.56 -699.87,-50.05 -804.41,-9.94 -62.69,24.06 -41.82,101.95 -36.79,164.32 28.96,359.04 -16.42,113.68 -44.02,349.01 -6.87,58.6 -13.41,113.95 0.83,172.19l57.51 -4.59c14.77,298.84 -26.6,345.6 260.36,347.19 197.3,1.08 403.69,-1.86 600.59,13.84 29.74,-184.72 127.43,-296.3 -132.95,-317.9 -153.97,-12.77 -482.51,13.56 -522.21,6.73l0.46 -77.87c169.67,-13.31 585.04,7.01 609.64,2.63 25.02,-45.08 47.21,-197.8 25.19,-245.2 -19.72,-31.52 -105.39,-30.41 -141.69,-32.77 -51.41,-3.34 -105.58,-3.96 -156.37,-5.42 -91.5,-2.63 -256.67,8 -336.27,-3.89l1.27 -73.16c103.66,-15.59 256.75,-16.07 363.86,-13.42 115.87,2.87 242.14,32.55 338.99,32.51 28.1,-40.79 33.71,-139.8 29.69,-195.92zm-2633.03 -1127.37c-64.01,64.32 -70.68,255.68 -53.66,310.53l59.66 2.34c3.82,377.46 -32.04,344.75 563.36,348.84 86.36,0.59 215.71,12.36 293.19,7.64 30.19,-74.66 49.65,-171 35.37,-258.93 -52.33,-106.44 -575.53,-36.19 -683.44,-47.1l-5.62 -80.52c103.91,-4.46 202.32,-8.03 305.53,-6.26 81.27,1.38 242.73,20.9 310.86,8.63 15.49,-53 43.95,-186.84 22.76,-241.32 -52.55,-64.23 -525.5,-37.5 -636.1,-42.04l1.85 -78.15c121.3,-9.82 246.97,-13.27 364.76,-10.9 128.63,2.59 222.15,23.96 342.23,34.86 11.95,-39.93 26.95,-132.82 25.46,-186.35 -2.09,-75.04 -39.09,-99.88 -103.06,-117.68 -166.97,-46.47 -682.28,-54.1 -810.14,-14.58 -91.67,28.32 -26.19,184.68 -33.01,370.99zm-2709.68 1136.43c-2.56,-80.6 -35.51,-95.3 -105.49,-115.01 -165.24,-46.55 -706.63,-51.73 -811.86,-13.3 -76.81,28.05 -30.74,209.73 -27.78,367.26 -44.25,42.23 -50.14,99.55 -57.82,177.27 -18.63,188.66 15.27,133 62.13,139.41 12.1,292.56 -27.68,343.5 261.85,345.16 199.32,1.15 399.68,0.43 599.39,13.48 28.19,-196.25 127.75,-298.92 -141.23,-318.15 -86.13,-6.17 -179.29,-4.01 -265.76,-1.85 -73.15,1.83 -180.18,17.48 -248.92,10.82l0.94 -80.45c105.29,-4.57 206.54,-8.05 312.12,-6.15 71.62,1.29 243.5,25.03 295.76,8.08 24.57,-35.85 51.97,-194.15 26.54,-241.55 -42.14,-64.52 -579.5,-39.7 -635.32,-41.29l1.93 -77.65c360.59,-27.33 372.94,-11.37 702.22,23.24 22.4,-35.86 33.05,-134.04 31.3,-189.32zm-1866.92 292.98l0.18 -115.55c108.9,-37.37 250.63,-11.76 360.05,17.52 39.72,10.63 28.69,2.47 41.82,25.67 -40.6,27.25 -340.27,82.49 -402.05,72.36zm-221.12 505.32c0.66,19.22 0.4,44.79 2.47,63.26 10.22,91.14 136.12,43.05 183.01,-22.57 33.17,-46.42 27.82,-138.15 29.55,-200.92 363.35,14.21 717.81,280.1 830.05,319.33 68.04,-207.6 102.43,-275.55 -89.69,-374.61 -57.76,-29.78 -176.94,-67.72 -206.76,-96.27 112.98,-87.61 192.63,-60.78 192.75,-256.74 0.12,-194.95 -56.5,-259.23 -207.07,-324.21 -200.39,-86.47 -420.29,-104.11 -640.13,-66.13 -90.29,15.61 -109.54,24.86 -107.78,124.45l13.6 834.41zm7722.26 -502.33l0.36 -121.26 127.05 -18.81c58.88,-5.2 229.16,30.34 275.63,55.55 -17.21,32.21 -38.8,23.09 -86.35,33.67 -96.22,21.41 -219.62,52.64 -316.69,50.85zm523.99 191.09c72.64,-48.35 177.49,-79.25 192,-180.26 14.88,-103.67 4.51,-242.83 -51.87,-302.1 -208.19,-218.87 -790.1,-207.49 -874.84,-141.3 -42.67,33.34 -20.58,278.51 -18.22,348.05 4.17,122.66 3.69,244.11 4.36,366.76 0.46,86.02 -18.05,269.81 28.67,330.12 79.78,7.93 133.68,-26.87 160.52,-71.51 38.77,-64.5 11.27,-134.47 34.86,-196.56 126.05,-4.71 347.7,77.26 448.05,122.27 175.58,78.77 258.56,141.3 367.38,192.62l39.72 -81.12c6.72,-22.65 16.56,-61.62 19.41,-88.91 9.64,-92.59 -6.77,-116.13 -58.8,-152.28 -115.69,-80.41 -254.19,-113.88 -291.24,-145.78zm-6549.99 -1692.35c99.6,-19.12 328.07,-13.34 398.21,41.35 -28.23,40.56 -340.83,80.34 -405.6,82.94l7.39 -124.29zm-218.67 716.68l22.26 19.47c71.73,4.71 123.08,-23.8 155.62,-72.15 29.24,-43.46 24.94,-137.89 29.34,-198.82 141.74,5.54 327.35,70.08 444.75,120.38 106.68,45.71 370.24,193.97 381.15,198.2 46.98,-105.53 101.61,-247.73 -1.69,-321.29 -131.08,-93.35 -242.26,-105.5 -292.28,-146.04 55.26,-57.72 165.08,-66.48 186.4,-168.11 21.61,-103.04 7.98,-251.84 -46.33,-313.04 -159.8,-180.06 -663.09,-230.88 -858.52,-154.5 -65.72,25.68 -41.81,216.79 -38.82,323.13 3.37,119.55 1.28,644.11 18.12,712.77z"/>
   <g>
    <path class="fil1" d="M1506.77 3500.57c-329.52,27.16 -678.52,151.44 -976.17,273.28 -54.96,22.51 -252.49,110.46 -280.61,138.12l360.12 -105.1c124.36,-31.67 257.13,-58.67 389.42,-80.35 280.04,-45.91 571.02,-69.32 864.38,-67.71 482.45,2.62 956.02,82.1 1405.72,231.32 49.22,16.33 128.77,51.08 172.5,59.49 -96.19,-87.84 -325.97,-200.01 -452.75,-254.98 -479.29,-207.82 -967.38,-235.55 -1482.61,-194.07z"/>
    <path class="fil2" d="M1455.14 3575.4c-26.21,21.47 -53.25,44.25 -77.74,66.47 103.74,3.54 224.33,-45.83 303.19,-102.18 87.21,-62.32 154.67,-147.56 214.66,-235.82 30.25,-44.5 89.09,-164.67 128.73,-178.13 74.41,-25.28 143.7,175.6 187.16,263.21 55.98,112.87 124.22,245.37 311.46,308.63 -60.23,-113.59 -160.26,-324.78 -197.33,-555.01 -44.87,-278.69 13.3,-574.57 182.63,-787.31 41.64,-52.31 74.86,-84.8 119.34,-128.77 15.44,-15.26 131.95,-101.02 135.86,-107.91 -129,-9.52 -316.6,123.36 -383.46,186.9 -26.52,25.21 -48.35,43 -74.65,69.08 -80.68,80.04 -148.23,181.83 -268.58,65.27 -88.76,-85.96 -193.08,-371.51 -326.74,-535.07 -29.32,-35.88 -109.45,-121.23 -157.67,-135.28 14.09,31.24 38.81,70 55.42,99.82 134.73,241.84 249.8,522.54 296.24,801.79 54.56,328.04 -119.53,550 -304.85,767.24 -5.07,5.94 -135.45,130.34 -143.67,137.07z"/>
    <path class="fil3" d="M1681.21 1606.45c0.11,70.93 9.73,119.84 19.32,183.92 71.37,-10.18 208.18,-89.05 257.23,-122.67 251.83,-172.64 381.14,-444.09 380.53,-779.9 -0.15,-76.3 -9.03,-131.98 -17.97,-203.22 -112.88,27.35 -354.75,229.7 -437.39,339.87 -114.52,152.68 -202.09,331.13 -201.72,582z"/>
    <path class="fil3" d="M1569.07 1761.55c27.39,-347.53 -126.55,-735.37 -390.32,-919.7 -65.11,-45.5 -200.72,-133.53 -295.2,-144.18 -14.29,153.7 -26.07,255.79 12.71,407.89 54.34,213.13 198.72,396.45 375.63,511.93 66.57,43.46 208.62,128.2 297.18,144.06z"/>
    <path class="fil4" d="M2864.77 2100.16c372.32,10.48 709.21,-125.18 912.23,-401.9 31.19,-42.52 144.17,-229.51 138.74,-296.2 -122.92,-26.66 -290.11,-14.91 -405.94,16.12 -211.9,56.77 -389.57,200.73 -506.69,381.1 -32.14,49.49 -137.66,233.06 -138.34,300.88z"/>
    <path class="fil2" d="M2070.77 2018.04c0.18,67.07 9.27,133.12 23.48,194.82l35.81 119.96c3.12,8.53 2.93,9.43 7.3,18.7l13.79 19c25.93,-14.47 85.56,-75.74 107.63,-100.99 106.43,-121.79 174.23,-276.02 174.16,-454.02 -0.03,-81.34 -30.58,-262.95 -72.9,-306 -72.1,33.63 -164.1,125.36 -204.84,192.29 -52.16,85.7 -84.75,191.06 -84.43,316.24z"/>
    <path class="fil4" d="M3066.62 1480.09c31.77,-12.76 105.73,-73.29 129.23,-95.7 47.99,-45.76 71.32,-72.64 109.17,-125.72 63.79,-89.47 113.79,-212.42 113.41,-351.27 -0.15,-51.02 -9.6,-154.18 -33.48,-192.41 -108.39,31.09 -233.04,159.81 -291.75,273.19 -71.44,137.99 -74.35,334.73 -26.58,491.91z"/>
    <path class="fil4" d="M2764.78 2025.96c32.5,-23.4 96.43,-139.96 110.24,-171.89 65.95,-152.38 94.98,-303.02 40.34,-469.86 -20.61,-62.93 -56.62,-149.69 -98.35,-182.16 -98.8,78.38 -181.49,241.79 -190.22,384.72 -5.41,88.49 10.15,177.98 37.1,250.66 23.13,62.39 61.99,150.86 100.89,188.53z"/>
    <path class="fil3" d="M699.81 1795.91c18.8,36.61 109.2,100.08 160.51,129 144.24,81.31 316.67,85.71 472.73,31.53 52.51,-18.23 166.24,-64.6 190.8,-102.03 -124.86,-81.56 -203.91,-149.67 -385.19,-174.86 -134.49,-18.68 -284.04,11.83 -397.84,83.34 -18.87,11.86 -30.15,17.26 -41.01,33.02z"/>
    <path class="fil5" d="M1628.9 1072.22c72.76,-81.93 122.96,-309.37 112.68,-445.85 -9.83,-130.51 -88.69,-309.23 -177.96,-376.37 -32.9,19.8 -86.35,128.43 -105.05,179.83 -59.63,163.93 -34.48,321.9 43.25,474.02 25.31,49.54 87.21,144.46 127.08,168.37z"/>
    <path class="fil4" d="M3418.07 2182.53c19.06,97.83 160.07,244.6 272.5,300.39 135.37,67.19 374.07,84.15 488.17,29.87 -10.67,-22.6 -40.49,-62.15 -56.82,-82.54 -64.87,-80.99 -135.09,-147.73 -230.46,-200.31 -142.74,-78.71 -298.51,-96.72 -473.39,-47.41z"/>
    <path class="fil4" d="M2838.95 2230.66c-6.37,41.29 69.63,159.6 89.55,185.45 153.41,199.09 371.25,247.77 633.86,214.5 -13.99,-84.27 -171.76,-251.34 -257.79,-309.97 -120.38,-82.04 -286.89,-123.96 -465.62,-89.98z"/>
    <path class="fil5" d="M402.42 1320.38c10.79,76.24 127.88,176.46 205.7,216.15 85.88,43.8 276.02,57.93 363.38,11.12 -21.95,-63.36 -146.44,-167.81 -216.65,-203.09 -104.88,-52.69 -235.28,-61.6 -352.43,-24.18z"/>
   </g>
  </g>
 </g>
</svg>
