<?xml version="1.0" encoding="UTF-8"?>
<!DOCTYPE svg PUBLIC "-//W3C//DTD SVG 1.1//EN" "http://www.w3.org/Graphics/SVG/1.1/DTD/svg11.dtd">
<!-- Creator: CorelDRAW 2018 (64 Bit Versão de avaliação) -->
<svg xmlns="http://www.w3.org/2000/svg" xml:space="preserve" width="75mm" height="25mm" version="1.1" style="shape-rendering:geometricPrecision; text-rendering:geometricPrecision; image-rendering:optimizeQuality; fill-rule:evenodd; clip-rule:evenodd"
viewBox="0 0 7500 2500"
 xmlns:xlink="http://www.w3.org/1999/xlink">
 <defs>
  <style type="text/css">
   <![CDATA[
    .fil4 {fill:#96C049}
    .fil3 {fill:#00A5FF}
    .fil5 {fill:#02A5FD}
    .fil0 {fill:#19427B}
    .fil1 {fill:#DD0100}
    .fil2 {fill:#F7C301}
   ]]>
  </style>
 </defs>
 <g id="Camada_x0020_1">
  <metadata id="CorelCorpID_0Corel-Layer"/>
  <g id="_1744605507952">
   <path class="fil0" d="M5403.97 1590.74c12.17,-18.08 12.78,-56.44 17.49,-82.15 5,-27.3 13.15,-50.63 -6.81,-71.74 -61.49,-65.05 -335.22,-92.32 -457.74,-6.28 -40.55,28.48 -49.83,77.31 -48.6,145.46 1.01,55.74 6.02,117.42 43.35,145.67 72.66,54.99 239.72,31.14 342.57,39.86l0.42 22.6c-52.69,16.28 -138.31,20.81 -197.36,15.56 -91.36,-8.12 -135.53,-41.31 -173.32,-40.21 -21.54,31.84 -33.8,129.61 -5.97,159.43 56.03,60.02 363.86,73.42 466.62,-15.81 40.91,-35.53 50.03,-70.22 52.02,-143.7 6.05,-222.35 -233.15,-144.44 -416.72,-166.14l0.57 -20.39c37.52,-20 153.84,-24.16 204.09,-19.96 78.39,6.55 164.04,45.14 179.39,37.8zm-456.05 -570.76c-92.24,45.92 -198.41,17.48 -260.92,-69.31 -19.04,-26.43 -30.18,-57.53 -46.14,-81.83 -22.91,8.9 -158.53,179.26 63.15,312.67 77.62,46.71 217.12,55.62 276.34,-39.86 33.49,-53.99 33.28,-22.22 58.48,-70.24 42.08,-80.16 42.75,-245.08 41.28,-343 -0.98,-65.56 3.34,-108.92 -91.83,-98.69 -56.92,6.13 -36.06,28.42 -33.38,148.25 1.9,84.62 6.49,158.74 -6.98,242.01zm951.13 -191.92c17.87,55.1 7.55,358.83 17.91,379.48 23.98,25.81 66.66,12.3 90.02,-9.9 25.35,-24.09 20.45,-69.05 23.51,-111.28 3.2,-44.13 2.21,-243.28 9.43,-261.93 76.51,-12.59 170.82,16.36 241.98,13.88 8.6,-37.89 14.24,-94.66 5.18,-136.21 -9.08,-41.67 -59.6,-45.02 -101.64,-51.25 -82.84,-12.29 -342.57,-13.13 -433.84,3.69 -53.35,9.82 -63.14,32.06 -63.74,88.62 -1.09,102.04 5.3,95.33 63.52,89.74 40.85,-3.92 107.02,-14.68 147.67,-4.84zm-1338.38 819.58c8.68,-24.89 23.02,-45.61 35.21,-61.41 25.84,9.8 37.23,34.71 45.19,60.76l-24.18 1.02 -34.68 0.07 -21.54 -0.44zm-171.62 315.36c93.03,-156.36 45.4,-155.32 133.56,-162.43 62.61,-5.05 126.19,-1.17 188.41,4.1 38.65,3.28 35.16,23.14 48.37,50.06 20.58,41.98 44.36,90.59 64.89,127.76 38.49,-6.63 87.54,-87.74 55.01,-163.37 -41.51,-96.51 -191.03,-423.61 -268.98,-433.95 -57.28,-7.6 -138.03,138.71 -165.89,186.7 -10.7,18.45 -30.56,61.97 -39.76,74.27 -21.39,28.59 -46.59,-12.69 -47.18,73.88 -0.21,30.83 -17.55,60.28 -28.35,88.26 -31.67,82.13 30.34,148.02 59.92,154.72zm1590.39 -283.06c15.49,-28.2 24.83,-68.47 31.1,-106.58 8.32,-50.62 1.47,-74.56 -33.78,-94.24 -61.07,-34.09 -130.11,-56.79 -210.77,-63.01 -266.46,-20.57 -379.93,278.13 -244.61,454.25 19.35,25.18 46.18,44.73 74.74,59.36 95.34,48.84 390.08,50.47 396.03,-75.94 1.49,-31.65 -6.08,-92.17 -12.87,-119.57 -91.82,18.89 -125.62,48.35 -257.88,46.6 -58.46,-0.78 -224.83,-30.47 -177.41,-99.79 39.51,-57.75 124.03,-84.97 217.13,-79.19 111.88,6.94 173.63,70.25 218.32,78.11zm-3051.7 -838.3c30.88,-19.33 243.25,4.43 269.7,40.43 -7.97,15.37 -6.98,11.59 -23.22,18.24l-94.29 24.96c-47.91,6.51 -99.24,6.82 -151.46,3.3l-0.73 -86.93zm-2.97 259.91c85.28,-2.46 169.83,8.48 247.75,-18.84 67.77,-23.76 118.73,-64.47 129.39,-142.59 28.95,-211.93 -72.9,-258.62 -250.06,-290.68 -49.78,-9.01 -208.45,-27.25 -237.58,9.86 -18.61,23.69 -6.69,211.46 -6.74,257.46 -0.09,90.14 -1.44,183.04 1.06,272.89 0.71,25.48 4.41,32.26 30.1,32.47 78.39,0.63 83.73,-69.62 86.08,-120.57zm913.23 523.59c3.48,-1.19 -5.71,-17.35 23.43,12.87 71.56,74.22 200.7,203.4 266.91,283.14 13.9,16.74 22.59,31.05 43.51,41.01 46.59,22.17 100.85,-19.38 106.83,-54.43l3.89 -336.68c0.77,-49.64 5.52,-114.46 0.99,-162.76 -21.48,-13.72 -58.72,-27.02 -92.8,-16.2 -35.43,11.24 -32.02,43.33 -33,84.78 -1.8,75.18 2.62,163.53 -3.13,236.38 -17.26,0.2 -19.48,-9.77 -28.96,-22.38 -53.05,-70.62 -206.58,-241.14 -272.55,-282.44 -45.33,-28.39 -117.36,-13.69 -144.23,23.85l0.49 79.31c0.38,113.05 -9.57,362 9.69,452.37 37.73,7.3 74.77,-7.38 93.68,-27.84 24.78,-26.81 18.89,-62.48 19.34,-107.3l5.91 -203.68zm3007.37 -682.05c-150.2,163.58 -490.12,69.99 -475.18,-20.69 3.82,-23.21 68.29,-56.68 101.7,-67.65 44,-14.44 95.9,-20.82 146,-20.87 59.46,-0.05 232.86,21.58 227.48,109.21zm-293.09 -296.93c-190.9,19.36 -262.99,149.23 -244.75,352.71 9.38,104.53 41.99,148.46 116.19,186.45 104.81,53.66 257.63,51.93 366.57,-6.74 30.11,-16.21 69.18,-40.99 86.96,-61.71 66.55,-77.58 108.11,-333.57 -68.44,-430.9 -74.38,-41.01 -160.07,-49.59 -256.53,-39.81zm-2549.91 280.52c21.64,-61.09 155,-91.88 243.03,-92.76 83.93,-0.83 135.34,8.08 199.76,51.39 17.86,12 39.43,20.29 33.94,50.93 -5.26,29.3 -64.28,58.25 -97.95,71.7 -45.45,18.16 -91.33,23.99 -145.65,23.61 -78.2,-0.55 -209.38,-21.75 -233.13,-104.87zm169.89 -278.74c-186.08,28.49 -252.9,153.71 -229.77,362.95 10.87,98.42 49.05,145.57 124.14,178.93 76.14,33.83 168.02,44.42 258.38,24.52 74.25,-16.36 160.18,-62.58 192.18,-104.76 60.75,-80.09 103.83,-326.77 -84.68,-429.68 -67.8,-37.02 -175.13,-45 -260.25,-31.96zm2397.3 818.8c-2.92,-40.79 -26.8,-49.67 -61.46,-58.57 -89.62,-23.01 -378.35,-27.06 -434.86,-5.37 -33.89,13 -22.61,55.11 -19.89,88.83 15.65,194.09 -8.88,61.45 -23.8,188.67 -3.72,31.68 -7.25,61.6 0.45,93.08l31.09 -2.47c7.98,161.54 -14.38,186.82 140.75,187.68 106.66,0.59 218.23,-1 324.67,7.49 16.08,-99.87 68.89,-160.18 -71.86,-171.86 -83.24,-6.9 -260.85,7.33 -282.31,3.64l0.25 -42.1c91.72,-7.2 316.27,3.79 329.57,1.42 13.52,-24.37 25.52,-106.93 13.62,-132.55 -10.67,-17.04 -56.98,-16.44 -76.6,-17.72 -27.8,-1.81 -57.08,-2.14 -84.53,-2.93 -49.47,-1.42 -138.76,4.33 -181.79,-2.1l0.68 -39.55c56.04,-8.43 138.8,-8.69 196.7,-7.25 62.65,1.54 130.9,17.59 183.26,17.57 15.19,-22.05 18.23,-75.58 16.06,-105.91zm-1423.41 -609.46c-34.61,34.78 -38.21,138.22 -29.01,167.88l32.25 1.26c2.07,204.06 -17.32,186.37 304.55,188.58 46.69,0.32 116.61,6.68 158.5,4.13 16.32,-40.36 26.84,-92.44 19.12,-139.97 -28.29,-57.54 -311.13,-19.57 -369.47,-25.47l-3.04 -43.53c56.18,-2.41 109.38,-4.33 165.17,-3.38 43.94,0.75 131.22,11.3 168.05,4.67 8.38,-28.66 23.76,-101.01 12.31,-130.46 -28.41,-34.72 -284.09,-20.27 -343.88,-22.73l1 -42.24c65.58,-5.31 133.52,-7.18 197.19,-5.9 69.54,1.4 120.09,12.95 185.01,18.85 6.46,-21.59 14.57,-71.8 13.76,-100.75 -1.13,-40.56 -21.13,-53.99 -55.71,-63.61 -90.27,-25.12 -368.84,-29.25 -437.96,-7.88 -49.56,15.31 -14.16,99.84 -17.84,200.55zm-1464.85 614.36c-1.38,-43.58 -19.2,-51.52 -57.03,-62.18 -89.33,-25.16 -382,-27.97 -438.88,-7.19 -41.53,15.16 -16.63,113.38 -15.02,198.54 -23.92,22.83 -27.11,53.81 -31.26,95.83 -10.07,101.99 8.26,71.9 33.59,75.37 6.54,158.16 -14.97,185.69 141.55,186.59 107.75,0.62 216.07,0.23 324.03,7.29 15.24,-106.1 69.06,-161.6 -76.35,-172 -46.56,-3.33 -96.92,-2.16 -143.67,-0.99 -39.54,0.98 -97.4,9.44 -134.56,5.84l0.5 -43.49c56.93,-2.47 111.66,-4.35 168.73,-3.32 38.72,0.7 131.64,13.53 159.89,4.37 13.29,-19.38 28.1,-104.96 14.35,-130.58 -22.78,-34.89 -313.28,-21.47 -343.45,-22.33l1.04 -41.97c194.94,-14.78 201.61,-6.15 379.62,12.56 12.11,-19.39 17.87,-72.46 16.92,-102.34zm-1009.25 158.38l0.1 -62.47c58.87,-20.2 135.49,-6.36 194.64,9.47 21.47,5.75 15.51,1.34 22.61,13.88 -21.95,14.73 -183.95,44.6 -217.35,39.12zm-119.54 273.17c0.36,10.39 0.22,24.22 1.34,34.2 5.52,49.27 73.58,23.27 98.93,-12.2 17.94,-25.1 15.04,-74.69 15.98,-108.62 196.42,7.69 388.04,151.42 448.72,172.63 36.78,-112.23 55.37,-148.96 -48.49,-202.51 -31.22,-16.1 -95.65,-36.61 -111.77,-52.04 61.07,-47.36 104.13,-32.86 104.2,-138.8 0.06,-105.39 -30.54,-140.14 -111.94,-175.26 -108.33,-46.75 -227.21,-56.29 -346.06,-35.75 -48.81,8.43 -59.21,13.44 -58.26,67.28l7.35 451.07zm4174.63 -271.55l0.19 -65.56 68.69 -10.16c31.83,-2.82 123.88,16.4 149,30.02 -9.3,17.41 -20.97,12.48 -46.68,18.2 -52.01,11.58 -118.72,28.46 -171.2,27.5zm283.27 103.29c39.27,-26.13 95.95,-42.84 103.79,-97.44 8.05,-56.05 2.44,-131.27 -28.04,-163.32 -112.54,-118.32 -427.12,-112.16 -472.93,-76.38 -23.07,18.02 -11.13,150.56 -9.85,188.15 2.25,66.31 1.99,131.97 2.35,198.27 0.25,46.5 -9.75,145.86 15.51,178.46 43.12,4.29 72.26,-14.52 86.77,-38.65 20.96,-34.87 6.09,-72.7 18.85,-106.26 68.14,-2.55 187.96,41.76 242.21,66.1 94.92,42.58 139.78,76.38 198.6,104.13l21.48 -43.86c3.63,-12.24 8.95,-33.31 10.49,-48.06 5.21,-50.06 -3.66,-62.78 -31.78,-82.33 -62.55,-43.46 -137.42,-61.56 -157.45,-78.81zm-3540.9 -914.87c53.84,-10.34 177.35,-7.21 215.27,22.35 -15.26,21.93 -184.26,43.44 -219.27,44.84l4 -67.19zm-118.22 387.43l12.04 10.53c38.78,2.55 66.53,-12.87 84.12,-39 15.81,-23.5 13.49,-74.55 15.87,-107.49 76.62,3 176.96,37.89 240.43,65.08 57.67,24.71 200.15,104.86 206.05,107.15 25.39,-57.05 54.92,-133.93 -0.92,-173.69 -70.86,-50.47 -130.96,-57.04 -158,-78.95 29.87,-31.2 89.24,-35.94 100.76,-90.88 11.69,-55.71 4.32,-136.14 -25.04,-169.23 -86.39,-97.34 -358.47,-124.81 -464.12,-83.52 -35.53,13.88 -22.6,117.19 -20.98,174.68 1.82,64.63 0.69,348.21 9.79,385.32z"/>
   <g>
    <path class="fil1" d="M978.35 2007.25c-178.14,14.68 -366.81,81.86 -527.71,147.73 -29.72,12.17 -136.5,59.72 -151.7,74.67l194.68 -56.82c67.23,-17.12 139,-31.71 210.52,-43.44 151.38,-24.81 308.69,-37.47 467.28,-36.6 260.81,1.42 516.82,44.38 759.92,125.05 26.61,8.83 69.62,27.62 93.26,32.16 -52,-47.48 -176.22,-108.12 -244.76,-137.84 -259.1,-112.35 -522.96,-127.34 -801.49,-104.91z"/>
    <path class="fil2" d="M950.44 2047.7c-14.17,11.61 -28.79,23.92 -42.03,35.93 56.08,1.91 121.27,-24.77 163.91,-55.23 47.14,-33.7 83.61,-79.78 116.04,-127.49 16.35,-24.06 48.16,-89.02 69.59,-96.3 40.23,-13.66 77.69,94.93 101.18,142.3 30.26,61.01 67.15,132.64 168.38,166.84 -32.57,-61.41 -86.64,-175.58 -106.68,-300.04 -24.26,-150.65 7.18,-310.61 98.73,-425.61 22.51,-28.28 40.47,-45.85 64.51,-69.62 8.35,-8.24 71.33,-54.61 73.45,-58.33 -69.74,-5.15 -171.16,66.68 -207.3,101.04 -14.33,13.62 -26.14,23.24 -40.36,37.34 -43.61,43.27 -80.13,98.29 -145.19,35.29 -47.98,-46.48 -104.38,-200.84 -176.64,-289.27 -15.84,-19.39 -59.16,-65.53 -85.23,-73.12 7.62,16.88 20.98,37.84 29.96,53.96 72.83,130.73 135.04,282.48 160.15,433.44 29.49,177.34 -64.62,297.33 -164.8,414.77 -2.74,3.21 -73.23,70.46 -77.67,74.1z"/>
    <path class="fil3" d="M1072.65 983.29c0.06,38.35 5.26,64.78 10.44,99.43 38.59,-5.5 112.55,-48.14 139.06,-66.32 136.14,-93.32 206.04,-240.07 205.71,-421.61 -0.07,-41.25 -4.88,-71.35 -9.71,-109.86 -61.02,14.79 -191.78,124.17 -236.45,183.73 -61.91,82.54 -109.25,179.01 -109.05,314.63z"/>
    <path class="fil3" d="M1012.03 1067.14c14.8,-187.87 -68.41,-397.54 -211.01,-497.19 -35.2,-24.59 -108.51,-72.19 -159.58,-77.94 -7.73,83.09 -14.1,138.28 6.87,220.5 29.38,115.22 107.43,214.32 203.06,276.75 35.99,23.5 112.78,69.31 160.66,77.88z"/>
    <path class="fil4" d="M1712.48 1250.19c201.28,5.67 383.39,-67.67 493.15,-217.27 16.86,-22.98 77.94,-124.07 75,-160.12 -66.45,-14.42 -156.83,-8.06 -219.45,8.71 -114.55,30.69 -210.6,108.51 -273.91,206.02 -17.38,26.76 -74.42,126 -74.79,162.66z"/>
    <path class="fil2" d="M1283.25 1205.79c0.09,36.26 5.01,71.97 12.69,105.33l19.36 64.84c1.68,4.62 1.58,5.1 3.94,10.11l7.46 10.27c14.01,-7.82 46.25,-40.94 58.18,-54.59 57.54,-65.84 94.19,-149.21 94.15,-245.44 -0.01,-43.97 -16.53,-142.15 -39.41,-165.42 -38.97,18.18 -88.71,67.76 -110.73,103.94 -28.2,46.34 -45.82,103.29 -45.64,170.96z"/>
    <path class="fil4" d="M1821.6 914.98c17.17,-6.9 57.16,-39.62 69.86,-51.74 25.94,-24.73 38.56,-39.26 59.02,-67.96 34.48,-48.36 61.51,-114.83 61.3,-189.89 -0.07,-27.58 -5.18,-83.35 -18.1,-104.02 -58.59,16.81 -125.98,86.4 -157.71,147.68 -38.62,74.6 -40.2,180.96 -14.37,265.93z"/>
    <path class="fil4" d="M1658.43 1210.08c17.56,-12.65 52.12,-75.67 59.59,-92.92 35.65,-82.38 51.34,-163.82 21.81,-254.01 -11.14,-34.02 -30.61,-80.92 -53.17,-98.48 -53.41,42.37 -98.11,130.71 -102.83,207.98 -2.93,47.84 5.49,96.22 20.05,135.51 12.51,33.73 33.52,81.55 54.55,101.92z"/>
    <path class="fil3" d="M542.11 1085.71c10.16,19.79 59.03,54.11 86.77,69.74 77.97,43.96 171.19,46.34 255.56,17.04 28.39,-9.85 89.86,-34.92 103.14,-55.15 -67.5,-44.09 -110.23,-80.91 -208.23,-94.53 -72.71,-10.1 -153.55,6.4 -215.07,45.05 -10.2,6.41 -16.3,9.33 -22.17,17.85z"/>
    <path class="fil5" d="M1044.37 694.49c39.33,-44.29 66.47,-167.25 60.91,-241.03 -5.31,-70.55 -47.94,-167.17 -96.2,-203.46 -17.79,10.7 -46.68,69.43 -56.79,97.22 -32.23,88.61 -18.64,174.01 23.38,256.25 13.68,26.78 47.15,78.09 68.7,91.02z"/>
    <path class="fil4" d="M2011.59 1294.72c10.31,52.89 86.53,132.23 147.32,162.39 73.18,36.32 202.21,45.49 263.89,16.15 -5.76,-12.22 -21.88,-33.6 -30.71,-44.62 -35.07,-43.79 -73.03,-79.87 -124.59,-108.29 -77.16,-42.55 -161.37,-52.29 -255.91,-25.63z"/>
    <path class="fil4" d="M1698.52 1320.74c-3.44,22.32 37.64,86.28 48.41,100.25 82.94,107.63 200.7,133.95 342.66,115.96 -7.56,-45.56 -92.85,-135.87 -139.35,-167.57 -65.09,-44.35 -155.1,-67.01 -251.72,-48.64z"/>
    <path class="fil5" d="M381.34 828.64c5.83,41.22 69.13,95.39 111.2,116.85 46.43,23.68 149.22,31.32 196.45,6.02 -11.87,-34.26 -79.17,-90.72 -117.13,-109.79 -56.7,-28.49 -127.19,-33.31 -190.52,-13.08z"/>
   </g>
  </g>
 </g>
</svg>
