<?xml version="1.0" encoding="UTF-8"?>
<!DOCTYPE svg PUBLIC "-//W3C//DTD SVG 1.1//EN" "http://www.w3.org/Graphics/SVG/1.1/DTD/svg11.dtd">
<!-- Creator: CorelDRAW 2018 (64 Bit Versão de avaliação) -->
<svg xmlns="http://www.w3.org/2000/svg" xml:space="preserve" width="30mm" height="30mm" version="1.1" style="shape-rendering:geometricPrecision; text-rendering:geometricPrecision; image-rendering:optimizeQuality; fill-rule:evenodd; clip-rule:evenodd"
viewBox="0 0 3000 3000"
 xmlns:xlink="http://www.w3.org/1999/xlink">
 <defs>
  <style type="text/css">
   <![CDATA[
    .fil0 {fill:none}
    .fil3 {fill:#FEFEFE}
    .fil5 {fill:#96C049}
    .fil4 {fill:#00A5FF}
    .fil6 {fill:#02A5FD}
    .fil1 {fill:#DD0100}
    .fil2 {fill:#F7C301}
   ]]>
  </style>
 </defs>
 <g id="Camada_x0020_1">
  <metadata id="CorelCorpID_0Corel-Layer"/>
  <g id="_1804974834192">
   <rect class="fil0" x="-0" y="-0" width="3000" height="3000"/>
   <g>
    <path class="fil1" d="M1187.35 1727.47c-160.33,13.21 -330.13,73.68 -474.96,132.97 -26.74,10.95 -122.85,53.74 -136.53,67.2l175.22 -51.14c60.51,-15.41 125.1,-28.54 189.47,-39.1 136.25,-22.33 277.83,-33.72 420.57,-32.94 234.74,1.28 465.15,39.95 683.95,112.55 23.95,7.95 62.66,24.85 83.94,28.95 -46.81,-42.74 -158.61,-97.32 -220.29,-124.06 -233.2,-101.12 -470.68,-114.61 -721.37,-94.43z"/>
    <path class="fil2" d="M1162.23 1763.88c-12.75,10.45 -25.91,21.53 -37.82,32.34 50.47,1.72 109.14,-22.3 147.51,-49.71 42.44,-30.33 75.26,-71.8 104.45,-114.74 14.71,-21.66 43.35,-80.12 62.63,-86.67 36.2,-12.3 69.92,85.43 91.06,128.06 27.24,54.92 60.45,119.38 151.55,150.17 -29.31,-55.27 -77.98,-158.03 -96.02,-270.05 -21.82,-135.59 6.47,-279.55 88.86,-383.06 20.26,-25.45 36.43,-41.26 58.07,-62.66 7.51,-7.42 64.2,-49.15 66.1,-52.5 -62.77,-4.63 -154.04,60.02 -186.57,90.94 -12.9,12.26 -23.53,20.92 -36.32,33.61 -39.26,38.94 -72.12,88.47 -130.68,31.76 -43.19,-41.83 -93.95,-180.76 -158.98,-260.35 -14.26,-17.45 -53.25,-58.98 -76.71,-65.81 6.85,15.2 18.88,34.05 26.96,48.56 65.56,117.67 121.54,254.24 144.14,390.11 26.54,159.62 -58.16,267.61 -148.32,373.31 -2.47,2.89 -65.91,63.41 -69.91,66.69z"/>
    <path class="fil3" d="M1840.45 2598.57c7.8,-11.59 8.19,-36.19 11.21,-52.68 3.21,-17.5 8.44,-32.47 -4.36,-46 -39.44,-41.71 -214.97,-59.2 -293.54,-4.03 -26.01,18.27 -31.95,49.58 -31.16,93.28 0.64,35.74 3.85,75.3 27.79,93.42 46.6,35.26 153.73,19.97 219.69,25.56l0.27 14.49c-33.79,10.44 -88.7,13.35 -126.57,9.98 -58.59,-5.21 -86.91,-26.49 -111.14,-25.79 -13.82,20.42 -21.68,83.12 -3.83,102.24 35.93,38.49 233.33,47.08 299.23,-10.14 26.23,-22.78 32.08,-45.03 33.36,-92.15 3.88,-142.59 -149.51,-92.62 -267.23,-106.54l0.36 -13.08c24.06,-12.82 98.66,-15.49 130.88,-12.8 50.27,4.2 105.19,28.95 115.04,24.24zm-292.46 -366.01c-59.14,29.45 -127.23,11.21 -167.32,-44.45 -12.21,-16.95 -19.35,-36.89 -29.59,-52.47 -14.69,5.71 -101.66,114.95 40.5,200.5 49.78,29.96 139.23,35.67 177.21,-25.55 21.48,-34.63 21.34,-14.25 37.5,-45.05 26.99,-51.4 27.42,-157.16 26.48,-219.96 -0.63,-42.04 2.13,-69.84 -58.9,-63.28 -36.5,3.92 -23.12,18.22 -21.4,95.07 1.22,54.26 4.16,101.79 -4.48,155.19zm609.94 -123.07c11.46,35.33 4.84,230.11 11.48,243.35 15.38,16.55 42.75,7.88 57.73,-6.35 16.26,-15.45 13.12,-44.28 15.08,-71.36 2.06,-28.3 1.42,-156.01 6.05,-167.97 49.07,-8.07 109.54,10.49 155.17,8.9 5.52,-24.3 9.14,-60.7 3.33,-87.35 -5.83,-26.72 -38.22,-28.87 -65.18,-32.87 -53.12,-7.88 -219.69,-8.41 -278.21,2.37 -34.22,6.3 -40.5,20.56 -40.88,56.83 -0.7,65.44 3.4,61.14 40.73,57.55 26.2,-2.51 68.63,-9.41 94.7,-3.1zm-858.27 525.58c5.57,-15.97 14.76,-29.25 22.58,-39.39 16.57,6.28 23.88,22.26 28.98,38.97l-15.51 0.65 -22.24 0.04 -13.81 -0.27zm-110.06 202.23c59.66,-100.27 29.12,-99.61 85.65,-104.17 40.15,-3.23 80.92,-0.75 120.82,2.64 24.79,2.1 22.55,14.83 31.02,32.09 13.2,26.93 28.45,58.1 41.62,81.94 24.68,-4.26 56.13,-56.27 35.28,-104.77 -26.62,-61.89 -122.51,-271.65 -172.5,-278.28 -36.73,-4.87 -88.52,88.95 -106.38,119.72 -6.86,11.83 -19.6,39.75 -25.49,47.63 -13.72,18.34 -29.88,-8.14 -30.26,47.38 -0.14,19.77 -11.26,38.65 -18.18,56.6 -20.31,52.67 19.45,94.92 38.42,99.22zm1019.89 -181.53c9.93,-18.08 15.92,-43.9 19.94,-68.34 5.34,-32.46 0.94,-47.81 -21.67,-60.43 -39.16,-21.86 -83.43,-36.42 -135.16,-40.41 -170.87,-13.19 -243.64,178.36 -156.86,291.3 12.41,16.15 29.61,28.68 47.93,38.07 61.14,31.32 250.15,32.36 253.96,-48.7 0.96,-20.3 -3.9,-59.11 -8.25,-76.68 -58.88,12.11 -80.56,31.01 -165.37,29.88 -37.49,-0.5 -144.18,-19.54 -113.77,-63.99 25.34,-37.03 79.54,-54.49 139.24,-50.79 71.75,4.45 111.35,45.05 140.01,50.09zm-1956.99 -537.58c19.8,-12.39 155.99,2.85 172.95,25.93 -5.11,9.86 -4.47,7.44 -14.89,11.7l-60.46 16c-30.73,4.18 -63.65,4.38 -97.13,2.12l-0.47 -55.75zm-1.9 166.68c54.68,-1.58 108.9,5.44 158.87,-12.08 43.46,-15.24 76.14,-41.35 82.98,-91.44 18.56,-135.91 -46.76,-165.85 -160.36,-186.41 -31.93,-5.77 -133.68,-17.47 -152.36,6.32 -11.93,15.2 -4.29,135.61 -4.32,165.11 -0.05,57.8 -0.92,117.38 0.68,175 0.45,16.34 2.83,20.68 19.31,20.82 50.26,0.4 53.69,-44.65 55.2,-77.32zm585.63 335.77c2.23,-0.77 -3.66,-11.13 15.03,8.25 45.88,47.59 128.7,130.43 171.16,181.57 8.91,10.73 14.48,19.91 27.9,26.3 29.87,14.21 64.67,-12.43 68.51,-34.91l2.49 -215.9c0.49,-31.84 3.54,-73.4 0.63,-104.38 -13.77,-8.79 -37.65,-17.32 -59.51,-10.39 -22.71,7.22 -20.53,27.79 -21.16,54.37 -1.15,48.21 1.69,104.87 -2,151.59 -11.07,0.13 -12.5,-6.27 -18.57,-14.35 -34.03,-45.29 -132.48,-154.64 -174.78,-181.13 -29.08,-18.2 -75.27,-8.77 -92.5,15.3l0.32 50.86c0.24,72.5 -6.14,232.14 6.21,290.09 24.2,4.68 47.95,-4.73 60.07,-17.85 15.89,-17.19 12.12,-40.07 12.41,-68.81l3.79 -130.61zm1928.56 -437.39c-96.32,104.9 -314.31,44.88 -304.73,-13.27 2.45,-14.88 43.8,-36.35 65.22,-43.37 28.22,-9.27 61.5,-13.36 93.62,-13.39 38.13,-0.03 149.34,13.84 145.89,70.03zm-187.96 -190.41c-122.42,12.42 -168.65,95.7 -156.95,226.18 6.01,67.04 26.93,95.21 74.51,119.57 67.21,34.41 165.21,33.3 235.07,-4.32 19.31,-10.4 44.37,-26.29 55.77,-39.58 42.68,-49.75 69.33,-213.91 -43.89,-276.33 -47.7,-26.29 -102.65,-31.79 -164.51,-25.52zm-1635.2 179.89c13.88,-39.18 99.4,-58.92 155.86,-59.49 53.82,-0.53 86.79,5.19 128.1,32.96 11.45,7.7 25.28,13.01 21.76,32.66 -3.37,18.79 -41.22,37.36 -62.81,45.98 -29.15,11.64 -58.57,15.38 -93.4,15.14 -50.16,-0.35 -134.27,-13.95 -149.51,-67.25zm108.95 -178.75c-119.33,18.27 -162.18,98.57 -147.35,232.75 6.98,63.12 31.46,93.35 79.61,114.75 48.83,21.69 107.75,28.48 165.69,15.72 47.62,-10.49 102.73,-40.13 123.25,-67.18 38.95,-51.36 66.58,-209.55 -54.3,-275.55 -43.48,-23.73 -112.31,-28.85 -166.9,-20.49zm1537.33 525.08c-1.87,-26.16 -17.18,-31.86 -39.41,-37.56 -57.47,-14.76 -242.62,-17.36 -278.87,-3.45 -21.73,8.34 -14.5,35.34 -12.75,56.97 10.04,124.46 -5.69,39.4 -15.26,120.99 -2.38,20.31 -4.65,39.5 0.29,59.69l19.93 -1.59c5.12,103.6 -9.22,119.81 90.26,120.36 68.4,0.38 139.95,-0.65 208.21,4.8 10.31,-64.04 44.18,-102.72 -46.09,-110.21 -53.38,-4.43 -167.27,4.7 -181.04,2.33l0.17 -26.99c58.81,-4.62 202.81,2.43 211.34,0.91 8.67,-15.63 16.37,-68.57 8.73,-85 -6.83,-10.93 -36.53,-10.55 -49.12,-11.37 -17.82,-1.15 -36.6,-1.37 -54.2,-1.87 -31.73,-0.91 -88.99,2.77 -116.58,-1.35l0.44 -25.36c35.94,-5.41 89.01,-5.58 126.14,-4.66 40.17,1 83.94,11.29 117.52,11.27 9.74,-14.14 11.68,-48.46 10.29,-67.91zm-912.8 -390.83c-22.19,22.3 -24.5,88.63 -18.6,107.65l20.68 0.81c1.33,130.86 -11.1,119.51 195.3,120.93 29.94,0.21 74.78,4.29 101.64,2.65 10.47,-25.88 17.22,-59.28 12.27,-89.76 -18.15,-36.9 -199.53,-12.55 -236.93,-16.33l-1.95 -27.91c36.02,-1.55 70.14,-2.79 105.91,-2.18 28.18,0.48 84.15,7.25 107.77,3 5.37,-18.38 15.24,-64.78 7.89,-83.66 -18.22,-22.27 -182.17,-13 -220.51,-14.58l0.64 -27.09c42.05,-3.4 85.61,-4.6 126.45,-3.78 44.59,0.9 77.01,8.31 118.64,12.09 4.14,-13.84 9.34,-46.05 8.82,-64.61 -0.72,-26.01 -13.54,-34.62 -35.72,-40.79 -57.89,-16.11 -236.53,-18.76 -280.86,-5.06 -31.78,9.82 -9.08,64.03 -11.44,128.62zm-939.37 393.97c-0.89,-27.95 -12.31,-33.04 -36.57,-39.88 -57.29,-16.13 -244.97,-17.93 -281.45,-4.61 -26.63,9.73 -10.66,72.71 -9.63,127.32 -15.34,14.64 -17.38,34.51 -20.04,61.46 -6.46,65.4 5.29,46.1 21.53,48.33 4.2,101.42 -9.59,119.08 90.78,119.65 69.1,0.4 138.56,0.15 207.79,4.68 9.77,-68.04 44.29,-103.63 -48.96,-110.3 -29.86,-2.13 -62.15,-1.39 -92.13,-0.64 -25.36,0.64 -62.46,6.06 -86.29,3.75l0.32 -27.89c36.5,-1.58 71.6,-2.79 108.2,-2.13 24.83,0.45 84.42,8.68 102.54,2.8 8.52,-12.43 18.01,-67.31 9.2,-83.74 -14.61,-22.36 -200.9,-13.76 -220.25,-14.31l0.67 -26.92c125.01,-9.47 129.29,-3.94 243.44,8.06 7.76,-12.44 11.46,-46.47 10.85,-65.63zm-647.21 101.56l0.06 -40.05c37.75,-12.96 86.89,-4.08 124.82,6.07 13.77,3.68 9.95,0.85 14.5,8.9 -14.07,9.45 -117.96,28.6 -139.38,25.08zm-76.66 175.18c0.24,6.67 0.14,15.53 0.86,21.93 3.54,31.6 47.19,14.93 63.45,-7.82 11.5,-16.09 9.64,-47.89 10.24,-69.65 125.96,4.92 248.84,97.1 287.76,110.7 23.58,-71.97 35.51,-95.53 -31.1,-129.87 -20.02,-10.32 -61.34,-23.47 -71.68,-33.37 39.17,-30.37 66.78,-21.07 66.83,-89.01 0.04,-67.58 -19.59,-89.86 -71.79,-112.39 -69.47,-29.98 -145.7,-36.09 -221.92,-22.93 -31.3,5.42 -37.97,8.62 -37.36,43.15l4.71 289.26zm2677.1 -174.14l0.12 -42.04 44.05 -6.52c20.41,-1.8 79.44,10.52 95.55,19.26 -5.97,11.16 -13.45,8 -29.93,11.67 -33.36,7.42 -76.14,18.25 -109.79,17.63zm181.65 66.24c25.18,-16.76 61.53,-27.47 66.56,-62.48 5.16,-35.95 1.57,-84.19 -17.98,-104.74 -72.17,-75.87 -273.91,-71.93 -303.28,-48.98 -14.8,11.56 -7.14,96.55 -6.32,120.66 1.45,42.52 1.28,84.62 1.51,127.15 0.16,29.81 -6.25,93.53 9.94,114.44 27.66,2.75 46.35,-9.32 55.65,-24.79 13.44,-22.36 3.91,-46.62 12.08,-68.15 43.7,-1.63 120.54,26.79 155.33,42.39 60.87,27.31 89.64,48.99 127.36,66.78l13.77 -28.12c2.33,-7.85 5.74,-21.37 6.73,-30.83 3.34,-32.1 -2.35,-40.25 -20.38,-52.79 -40.11,-27.87 -88.12,-39.48 -100.97,-50.54zm-2270.7 -586.69c34.53,-6.62 113.73,-4.62 138.05,14.34 -9.79,14.06 -118.16,27.85 -140.61,28.75l2.56 -43.09zm-75.81 248.46l7.72 6.75c24.87,1.63 42.67,-8.25 53.95,-25.01 10.14,-15.07 8.65,-47.81 10.17,-68.93 49.14,1.92 113.49,24.29 154.18,41.73 36.99,15.85 128.36,67.25 132.14,68.71 16.28,-36.58 35.22,-85.88 -0.59,-111.38 -45.44,-32.36 -83.98,-36.57 -101.32,-50.63 19.15,-20.01 57.23,-23.04 64.62,-58.28 7.49,-35.72 2.76,-87.3 -16.06,-108.52 -55.4,-62.42 -229.88,-80.04 -297.63,-53.56 -22.78,8.9 -14.49,75.15 -13.46,112.02 1.17,41.45 0.45,223.3 6.28,247.1z"/>
    <path class="fil4" d="M1272.23 805.88c0.05,34.51 4.73,58.31 9.4,89.49 34.72,-4.95 101.29,-43.33 125.15,-59.69 122.53,-83.99 185.45,-216.07 185.15,-379.46 -0.07,-37.12 -4.39,-64.21 -8.74,-98.88 -54.92,13.31 -172.61,111.76 -212.82,165.37 -55.72,74.29 -98.32,161.11 -98.14,283.17z"/>
    <path class="fil4" d="M1217.66 881.34c13.33,-169.08 -61.57,-357.79 -189.91,-447.47 -31.68,-22.14 -97.66,-64.98 -143.63,-70.15 -6.95,74.78 -12.68,124.45 6.19,198.45 26.44,103.7 96.69,192.9 182.76,249.08 32.39,21.15 101.5,62.38 144.59,70.09z"/>
    <path class="fil5" d="M1848.09 1046.1c181.15,5.1 345.07,-60.91 443.85,-195.55 15.17,-20.69 70.14,-111.67 67.5,-144.11 -59.8,-12.98 -141.15,-7.26 -197.51,7.84 -103.1,27.62 -189.55,97.66 -246.53,185.42 -15.64,24.08 -66.98,113.4 -67.31,146.4z"/>
    <path class="fil2" d="M1461.77 1006.14c0.08,32.64 4.51,64.77 11.42,94.79l17.42 58.37c1.52,4.15 1.43,4.59 3.56,9.1l6.7 9.24c12.62,-7.04 41.64,-36.85 52.37,-49.13 51.79,-59.26 84.78,-134.3 84.74,-220.91 -0.01,-39.58 -14.88,-127.94 -35.47,-148.88 -35.08,16.36 -79.84,60.99 -99.66,93.55 -25.38,41.71 -41.24,92.96 -41.08,153.87z"/>
    <path class="fil5" d="M1946.3 744.4c15.46,-6.21 51.44,-35.66 62.88,-46.56 23.35,-22.27 34.7,-35.34 53.11,-61.17 31.04,-43.53 55.37,-103.35 55.18,-170.91 -0.07,-24.82 -4.66,-75.02 -16.29,-93.62 -52.73,15.13 -113.38,77.76 -141.94,132.92 -34.77,67.14 -36.18,162.87 -12.94,239.34z"/>
    <path class="fil5" d="M1799.44 1010c15.81,-11.39 46.92,-68.1 53.64,-83.64 32.09,-74.14 46.21,-147.43 19.63,-228.61 -10.03,-30.62 -27.55,-72.83 -47.86,-88.63 -48.07,38.14 -88.3,117.64 -92.55,187.19 -2.63,43.05 4.94,86.59 18.05,121.96 11.26,30.35 30.16,73.4 49.09,91.73z"/>
    <path class="fil4" d="M794.72 898.07c9.15,17.81 53.13,48.69 78.1,62.76 70.18,39.56 154.08,41.7 230.01,15.34 25.55,-8.87 80.88,-31.43 92.83,-49.64 -60.75,-39.69 -99.21,-72.82 -187.41,-85.08 -65.44,-9.09 -138.21,5.76 -193.57,40.55 -9.19,5.77 -14.67,8.4 -19.96,16.07z"/>
    <path class="fil6" d="M1246.78 545.95c35.4,-39.86 59.82,-150.52 54.82,-216.93 -4.78,-63.5 -43.16,-150.45 -86.59,-183.12 -16.01,9.63 -42.01,62.49 -51.11,87.5 -29.01,79.75 -16.78,156.62 21.04,230.63 12.32,24.11 42.44,70.29 61.84,81.92z"/>
    <path class="fil5" d="M2117.3 1086.18c9.27,47.6 77.88,119.01 132.59,146.15 65.86,32.69 182,40.95 237.51,14.54 -5.18,-11 -19.7,-30.24 -27.64,-40.16 -31.56,-39.41 -65.73,-71.88 -112.13,-97.47 -69.45,-38.29 -145.24,-47.06 -230.33,-23.06z"/>
    <path class="fil5" d="M1835.53 1109.59c-3.1,20.1 33.88,77.66 43.57,90.23 74.64,96.87 180.63,120.56 308.4,104.37 -6.8,-41 -83.57,-122.29 -125.42,-150.82 -58.58,-39.91 -139.59,-60.31 -226.55,-43.78z"/>
    <path class="fil6" d="M650.03 666.69c5.25,37.1 62.22,85.86 100.08,105.17 41.79,21.31 134.3,28.19 176.81,5.42 -10.68,-30.84 -71.26,-81.65 -105.42,-98.82 -51.03,-25.64 -114.47,-29.97 -171.47,-11.77z"/>
   </g>
  </g>
 </g>
</svg>
