<?xml version="1.0" encoding="UTF-8"?>
<!DOCTYPE svg PUBLIC "-//W3C//DTD SVG 1.1//EN" "http://www.w3.org/Graphics/SVG/1.1/DTD/svg11.dtd">
<!-- Creator: CorelDRAW 2018 (64 Bit) -->
<svg xmlns="http://www.w3.org/2000/svg" xml:space="preserve" width="65.747mm" height="11.227mm" version="1.1" style="shape-rendering:geometricPrecision; text-rendering:geometricPrecision; image-rendering:optimizeQuality; fill-rule:evenodd; clip-rule:evenodd"
viewBox="0 0 6574.7 1122.7"
 xmlns:xlink="http://www.w3.org/1999/xlink">
 <defs>
  <style type="text/css">
   <![CDATA[
    .fil0 {fill:black;fill-rule:nonzero}
   ]]>
  </style>
 </defs>
 <g id="Camada_x0020_1">
  <metadata id="CorelCorpID_0Corel-Layer"/>
  <g id="_2033624544384">
   <path class="fil0" d="M179.21 76.8l0 56.35 -4.68 0c-3.52,-14.71 -10.07,-25.98 -19.66,-33.81 -9.59,-7.84 -20.47,-11.76 -32.62,-11.76 -10.14,0 -19.46,2.92 -27.93,8.76 -8.47,5.83 -14.67,13.47 -18.58,22.9 -5.03,12.07 -7.55,25.49 -7.55,40.28 0,14.55 1.83,27.8 5.51,39.75 3.67,11.94 9.43,20.98 17.26,27.09 7.84,6.12 17.99,9.18 30.45,9.18 10.24,0 19.62,-2.25 28.13,-6.72 8.51,-4.48 17.48,-12.19 26.91,-23.14l0 14.03c-9.11,9.51 -18.6,16.4 -28.47,20.68 -9.88,4.28 -21.41,6.42 -34.6,6.42 -17.34,0 -32.74,-3.48 -46.21,-10.43 -13.47,-6.96 -23.86,-16.95 -31.17,-29.98 -7.32,-13.03 -10.98,-26.9 -10.98,-41.6 0,-15.51 4.06,-30.21 12.18,-44.13 8.1,-13.9 19.05,-24.69 32.85,-32.37 13.78,-7.67 28.43,-11.5 43.93,-11.5 11.43,0 23.5,2.47 36.21,7.43 7.36,2.87 12.03,4.31 14.03,4.31 2.55,0 4.77,-0.93 6.66,-2.82 1.87,-1.87 3.09,-4.85 3.65,-8.92l4.68 0zm115.57 120.01l-57.43 0 -6.83 15.83c-2.24,5.27 -3.36,9.63 -3.36,13.06 0,4.56 1.84,7.92 5.51,10.08 2.16,1.28 7.48,2.24 15.95,2.88l0 4.43 -54.07 0 0 -4.43c5.84,-0.88 10.63,-3.3 14.39,-7.26 3.75,-3.96 8.39,-12.13 13.9,-24.52l58.16 -129.72 2.27 0 58.63 133.32c5.59,12.63 10.19,20.58 13.79,23.86 2.71,2.48 6.55,3.92 11.5,4.32l0 4.43 -78.64 0 0 -4.43 3.23 0c6.32,0 10.76,-0.88 13.31,-2.64 1.76,-1.29 2.64,-3.12 2.64,-5.52 0,-1.44 -0.24,-2.91 -0.72,-4.44 -0.15,-0.72 -1.35,-3.72 -3.6,-8.99l-8.63 -20.26zm-4.08 -8.87l-24.22 -55.99 -24.93 55.99 49.15 0zm84.45 55.15l0 -4.43 5.39 0c4.72,0 8.34,-0.75 10.86,-2.22 2.51,-1.48 4.37,-3.51 5.57,-6.06 0.72,-1.68 1.08,-6.72 1.08,-15.11l0 -106.94c0,-8.32 -0.44,-13.52 -1.32,-15.59 -0.88,-2.08 -2.66,-3.9 -5.33,-5.46 -2.68,-1.55 -6.3,-2.33 -10.86,-2.33l-5.39 0 0 -4.44 72.77 0c19.43,0 35.06,2.64 46.89,7.91 14.46,6.48 25.43,16.27 32.91,29.37 7.47,13.11 11.2,27.94 11.2,44.49 0,11.43 -1.84,21.96 -5.51,31.59 -3.68,9.63 -8.43,17.58 -14.27,23.86 -5.83,6.28 -12.57,11.31 -20.2,15.11 -7.64,3.8 -16.97,6.73 -28,8.81 -4.87,0.96 -12.55,1.44 -23.02,1.44l-72.77 0zm61.98 -153.35l0 126.85c0,6.71 0.32,10.83 0.96,12.35 0.64,1.52 1.72,2.67 3.24,3.48 2.15,1.2 5.27,1.8 9.35,1.8 13.35,0 23.54,-4.56 30.57,-13.67 9.6,-12.31 14.39,-31.42 14.39,-57.31 0,-20.86 -3.28,-37.53 -9.83,-50 -5.19,-9.75 -11.87,-16.38 -20.02,-19.9 -5.75,-2.48 -15.31,-3.68 -28.66,-3.6zm179 0.12l0 66.18 3.24 0c10.31,0 17.78,-3.24 22.42,-9.71 4.63,-6.47 7.59,-16.02 8.87,-28.65l4.56 0 0 85.13 -4.56 0c-0.96,-9.28 -2.98,-16.87 -6.05,-22.79 -3.08,-5.92 -6.66,-9.89 -10.73,-11.93 -4.08,-2.03 -9.99,-3.05 -17.75,-3.05l0 45.8c0,8.95 0.38,14.42 1.14,16.42 0.76,2.01 2.18,3.64 4.26,4.92 2.08,1.28 5.43,1.92 10.07,1.92l9.71 0c15.19,0 27.35,-3.52 36.51,-10.56 9.15,-7.02 15.73,-17.73 19.72,-32.13l4.44 0 -7.32 51.68 -140.52 0 0 -4.43 5.4 0c4.72,0 8.52,-0.84 11.39,-2.52 2.08,-1.12 3.68,-3.04 4.8,-5.76 0.88,-1.92 1.32,-6.96 1.32,-15.11l0 -106.94c0,-7.36 -0.2,-11.87 -0.6,-13.55 -0.8,-2.8 -2.28,-4.95 -4.44,-6.48 -3.04,-2.23 -7.19,-3.35 -12.47,-3.35l-5.4 0 0 -4.44 136.08 0 0 48.08 -4.55 0c-2.32,-11.75 -5.58,-20.18 -9.77,-25.3 -4.19,-5.12 -10.13,-8.87 -17.81,-11.27 -4.47,-1.44 -12.87,-2.16 -25.17,-2.16l-16.79 0zm186.8 148.8l0 4.43 -85.01 0 0 -4.43 5.4 0c4.72,0 8.52,-0.84 11.39,-2.52 2.08,-1.12 3.68,-3.04 4.8,-5.76 0.88,-1.92 1.32,-6.96 1.32,-15.11l0 -106.94c0,-8.32 -0.44,-13.52 -1.32,-15.59 -0.88,-2.08 -2.66,-3.9 -5.33,-5.46 -2.68,-1.55 -6.3,-2.33 -10.86,-2.33l-5.4 0 0 -4.44 85.01 0 0 4.44 -5.39 0c-4.72,0 -8.52,0.84 -11.4,2.51 -2.07,1.12 -3.71,3.04 -4.91,5.76 -0.88,1.92 -1.32,6.96 -1.32,15.11l0 106.94c0,8.32 0.46,13.51 1.38,15.59 0.92,2.07 2.72,3.9 5.4,5.46 2.68,1.56 6.29,2.34 10.85,2.34l5.39 0zm110.49 -41.85l-57.43 0 -6.83 15.83c-2.24,5.27 -3.36,9.63 -3.36,13.06 0,4.56 1.84,7.92 5.51,10.08 2.16,1.28 7.48,2.24 15.95,2.88l0 4.43 -54.07 0 0 -4.43c5.84,-0.88 10.63,-3.3 14.39,-7.26 3.75,-3.96 8.39,-12.13 13.9,-24.52l58.16 -129.72 2.27 0 58.63 133.32c5.59,12.63 10.19,20.58 13.79,23.86 2.71,2.48 6.55,3.92 11.5,4.32l0 4.43 -78.64 0 0 -4.43 3.23 0c6.32,0 10.76,-0.88 13.31,-2.64 1.76,-1.29 2.64,-3.12 2.64,-5.52 0,-1.44 -0.24,-2.91 -0.72,-4.44 -0.15,-0.72 -1.35,-3.72 -3.6,-8.99l-8.63 -20.26zm-4.08 -8.87l-24.22 -55.99 -24.93 55.99 49.15 0zm209.4 -18.46l0 45.07c0,8.8 0.54,14.33 1.62,16.61 1.08,2.28 3,4.1 5.76,5.46 2.75,1.35 7.81,2.04 15.17,2.04l0 4.43 -82.62 0 0 -4.43c7.52,0 12.62,-0.7 15.3,-2.1 2.67,-1.41 4.55,-3.22 5.63,-5.46 1.08,-2.24 1.62,-7.75 1.62,-16.55l0 -105.5c0,-8.8 -0.54,-14.33 -1.62,-16.61 -1.08,-2.28 -2.98,-4.1 -5.69,-5.46 -2.73,-1.35 -7.8,-2.03 -15.24,-2.03l0 -4.44 70.86 0c23.34,0 40.09,4.16 50.24,12.47 10.15,8.31 15.22,18.7 15.22,31.17 0,10.56 -3.27,19.59 -9.82,27.09 -6.56,7.52 -15.59,12.63 -27.1,15.36 -7.75,1.92 -20.86,2.88 -39.33,2.88zm0 -79.62l0 70.26c2.64,0.16 4.64,0.24 5.99,0.24 9.76,0 17.28,-2.89 22.55,-8.69 5.27,-5.8 7.91,-14.77 7.91,-26.92 0,-12.06 -2.64,-20.9 -7.91,-26.49 -5.27,-5.6 -13.15,-8.4 -23.62,-8.4l-4.92 0zm86.98 -9.35l83.93 0 0 4.44 -4.19 0c-6.32,0 -10.65,0.66 -13.01,1.97 -2.36,1.32 -4.04,3.14 -5.04,5.46 -1,2.31 -1.5,8.11 -1.5,17.39l0 79.6c0,14.55 1.1,24.18 3.3,28.9 2.2,4.72 5.81,8.63 10.85,11.75 5.04,3.12 11.39,4.68 19.06,4.68 8.8,0 16.29,-1.98 22.49,-5.94 6.19,-3.96 10.83,-9.42 13.9,-16.37 3.08,-6.95 4.61,-19.06 4.61,-36.32l0 -66.3c0,-7.28 -0.75,-12.47 -2.27,-15.59 -1.52,-3.12 -3.44,-5.28 -5.76,-6.48 -3.59,-1.83 -8.67,-2.75 -15.22,-2.75l0 -4.44 56.23 0 0 4.44 -3.36 0c-4.55,0 -8.35,0.92 -11.38,2.75 -3.04,1.84 -5.25,4.6 -6.6,8.28 -1.05,2.55 -1.56,7.15 -1.56,13.79l0 61.74c0,19.1 -1.26,32.89 -3.78,41.36 -2.52,8.48 -8.65,16.27 -18.4,23.39 -9.75,7.12 -23.06,10.67 -39.92,10.67 -14.07,0 -24.95,-1.88 -32.62,-5.64 -10.47,-5.12 -17.87,-11.67 -22.18,-19.67 -4.31,-7.98 -6.47,-18.74 -6.47,-32.25l0 -79.6c0,-9.35 -0.52,-15.17 -1.56,-17.45 -1.04,-2.28 -2.84,-4.1 -5.39,-5.46 -2.56,-1.35 -7.28,-1.99 -14.16,-1.91l0 -4.44zm116.07 -55.51l-39.69 41.61 -10.31 0 13.91 -41.61 36.09 0zm166.68 131.88c15.43,3.6 26.26,7.96 32.49,13.08 8.96,7.26 13.44,16.7 13.44,28.29 0,12.23 -4.92,22.34 -14.76,30.33 -12.06,9.67 -29.61,14.51 -52.62,14.51l-82.62 0 0 -4.43c7.52,0 12.62,-0.7 15.3,-2.1 2.67,-1.41 4.55,-3.22 5.63,-5.46 1.08,-2.24 1.62,-7.75 1.62,-16.55l0 -105.5c0,-8.8 -0.54,-14.33 -1.62,-16.61 -1.08,-2.28 -2.98,-4.1 -5.69,-5.46 -2.73,-1.35 -7.8,-2.03 -15.24,-2.03l0 -4.44 77.94 0c18.62,0 31.81,1.66 39.57,4.97 7.74,3.33 13.86,8.28 18.34,14.88 4.48,6.59 6.71,13.6 6.71,21.03 0,7.84 -2.83,14.82 -8.51,20.93 -5.68,6.11 -15.67,10.97 -29.98,14.56zm-43.64 -3.23c11.35,0 19.73,-1.28 25.12,-3.84 5.39,-2.56 9.53,-6.16 12.41,-10.79 2.87,-4.64 4.31,-10.55 4.31,-17.75 0,-7.19 -1.41,-13.08 -4.25,-17.68 -2.84,-4.6 -6.9,-8.09 -12.17,-10.49 -5.27,-2.4 -13.75,-3.56 -25.42,-3.48l0 64.03zm0 9.35l0 52.15 -0.12 6c0,4.31 1.1,7.57 3.3,9.77 2.2,2.19 5.46,3.3 9.77,3.3 6.4,0 12.3,-1.42 17.69,-4.26 5.39,-2.84 9.53,-6.96 12.41,-12.35 2.87,-5.39 4.31,-11.41 4.31,-18.04 0,-7.6 -1.75,-14.41 -5.27,-20.45 -3.52,-6.03 -8.35,-10.24 -14.51,-12.64 -6.16,-2.4 -15.35,-3.57 -27.58,-3.48zm253.23 23.02l-6.12 57.07 -144.36 0 0 -4.43 5.4 0c4.72,0 8.52,-0.84 11.39,-2.52 2.08,-1.12 3.68,-3.04 4.8,-5.76 0.88,-1.92 1.32,-6.96 1.32,-15.11l0 -106.94c0,-8.32 -0.44,-13.52 -1.32,-15.59 -0.88,-2.08 -2.66,-3.9 -5.33,-5.46 -2.68,-1.55 -6.3,-2.33 -10.86,-2.33l-5.4 0 0 -4.44 86.69 0 0 4.44 -7.07 0c-4.72,0 -8.52,0.84 -11.4,2.51 -2.07,1.12 -3.71,3.04 -4.91,5.76 -0.88,1.92 -1.32,6.96 -1.32,15.11l0 103.59c0,8.31 0.48,13.6 1.44,15.88 0.96,2.28 2.84,3.98 5.63,5.1 2.01,0.72 6.84,1.08 14.52,1.08l13.54 0c8.63,0 15.83,-1.53 21.58,-4.56 5.75,-3.04 10.73,-7.83 14.93,-14.39 4.19,-6.55 8.17,-16.22 11.93,-29.01l4.92 0zm102.11 52.64l0 4.43 -85.01 0 0 -4.43 5.4 0c4.72,0 8.52,-0.84 11.39,-2.52 2.08,-1.12 3.68,-3.04 4.8,-5.76 0.88,-1.92 1.32,-6.96 1.32,-15.11l0 -106.94c0,-8.32 -0.44,-13.52 -1.32,-15.59 -0.88,-2.08 -2.66,-3.9 -5.33,-5.46 -2.68,-1.55 -6.3,-2.33 -10.86,-2.33l-5.4 0 0 -4.44 85.01 0 0 4.44 -5.39 0c-4.72,0 -8.52,0.84 -11.4,2.51 -2.07,1.12 -3.71,3.04 -4.91,5.76 -0.88,1.92 -1.32,6.96 -1.32,15.11l0 106.94c0,8.32 0.46,13.51 1.38,15.59 0.92,2.07 2.72,3.9 5.4,5.46 2.68,1.56 6.29,2.34 10.85,2.34l5.39 0zm169.54 -161.86l0 56.35 -4.68 0c-3.52,-14.71 -10.07,-25.98 -19.66,-33.81 -9.59,-7.84 -20.47,-11.76 -32.62,-11.76 -10.14,0 -19.46,2.92 -27.93,8.76 -8.47,5.83 -14.67,13.47 -18.58,22.9 -5.03,12.07 -7.55,25.49 -7.55,40.28 0,14.55 1.83,27.8 5.51,39.75 3.67,11.94 9.43,20.98 17.26,27.09 7.84,6.12 17.99,9.18 30.45,9.18 10.24,0 19.62,-2.25 28.13,-6.72 8.51,-4.48 17.48,-12.19 26.91,-23.14l0 14.03c-9.11,9.51 -18.6,16.4 -28.47,20.68 -9.88,4.28 -21.41,6.42 -34.6,6.42 -17.34,0 -32.74,-3.48 -46.21,-10.43 -13.47,-6.96 -23.86,-16.95 -31.17,-29.98 -7.32,-13.03 -10.98,-26.9 -10.98,-41.6 0,-15.51 4.06,-30.21 12.18,-44.13 8.1,-13.9 19.05,-24.69 32.85,-32.37 13.78,-7.67 28.43,-11.5 43.93,-11.5 11.43,0 23.5,2.47 36.21,7.43 7.36,2.87 12.03,4.31 14.03,4.31 2.55,0 4.77,-0.93 6.66,-2.82 1.87,-1.87 3.09,-4.85 3.65,-8.92l4.68 0zm117.53 120.01l-57.43 0 -6.83 15.83c-2.24,5.27 -3.36,9.63 -3.36,13.06 0,4.56 1.84,7.92 5.51,10.08 2.16,1.28 7.48,2.24 15.95,2.88l0 4.43 -54.07 0 0 -4.43c5.84,-0.88 10.63,-3.3 14.39,-7.26 3.75,-3.96 8.39,-12.13 13.9,-24.52l58.16 -129.72 2.27 0 58.63 133.32c5.59,12.63 10.19,20.58 13.79,23.86 2.71,2.48 6.55,3.92 11.5,4.32l0 4.43 -78.64 0 0 -4.43 3.23 0c6.32,0 10.76,-0.88 13.31,-2.64 1.76,-1.29 2.64,-3.12 2.64,-5.52 0,-1.44 -0.24,-2.91 -0.72,-4.44 -0.15,-0.72 -1.35,-3.72 -3.6,-8.99l-8.63 -20.26zm-4.08 -8.87l-24.22 -55.99 -24.93 55.99 49.15 0zm260.12 -0.24l44.12 -107.19 66.18 0 0 4.44 -5.27 0c-4.8,0 -8.64,0.84 -11.52,2.51 -1.99,1.12 -3.59,3 -4.79,5.64 -0.88,1.92 -1.32,6.91 -1.32,14.99l0 107.18c0,8.32 0.44,13.51 1.32,15.59 0.88,2.07 2.68,3.9 5.4,5.46 2.72,1.56 6.35,2.34 10.91,2.34l5.27 0 0 4.43 -84.89 0 0 -4.43 5.28 0c4.8,0 8.64,-0.84 11.51,-2.52 2,-1.12 3.6,-3.04 4.8,-5.76 0.88,-1.92 1.32,-6.96 1.32,-15.11l0 -120.49 -62.35 148.31 -2.88 0 -63.3 -147.23 0 114.5c0,7.99 0.2,12.91 0.6,14.74 1.04,4 3.29,7.26 6.77,9.78 3.48,2.52 8.94,3.78 16.37,3.78l0 4.43 -55.64 0 0 -4.43 1.68 0c3.6,0.08 6.96,-0.51 10.08,-1.74 3.11,-1.24 5.47,-2.91 7.07,-4.98 1.6,-2.08 2.84,-5 3.72,-8.76 0.16,-0.87 0.24,-4.95 0.24,-12.22l0 -102.87c0,-8.24 -0.44,-13.37 -1.32,-15.41 -0.88,-2.04 -2.68,-3.84 -5.39,-5.4 -2.73,-1.55 -6.36,-2.33 -10.92,-2.33l-5.16 0 0 -4.44 66.43 0 45.68 107.19zm218.61 9.11l-57.43 0 -6.83 15.83c-2.24,5.27 -3.36,9.63 -3.36,13.06 0,4.56 1.84,7.92 5.51,10.08 2.16,1.28 7.48,2.24 15.95,2.88l0 4.43 -54.07 0 0 -4.43c5.84,-0.88 10.63,-3.3 14.39,-7.26 3.75,-3.96 8.39,-12.13 13.9,-24.52l58.16 -129.72 2.27 0 58.63 133.32c5.59,12.63 10.19,20.58 13.79,23.86 2.71,2.48 6.55,3.92 11.5,4.32l0 4.43 -78.64 0 0 -4.43 3.23 0c6.32,0 10.76,-0.88 13.31,-2.64 1.76,-1.29 2.64,-3.12 2.64,-5.52 0,-1.44 -0.24,-2.91 -0.72,-4.44 -0.15,-0.72 -1.35,-3.72 -3.6,-8.99l-8.63 -20.26zm-4.08 -8.87l-24.22 -55.99 -24.93 55.99 49.15 0zm194.59 -111.14l1.32 54.19 -4.92 0c-2.31,-13.59 -8.01,-24.52 -17.08,-32.79 -9.08,-8.28 -18.89,-12.41 -29.44,-12.41 -8.15,0 -14.6,2.18 -19.36,6.53 -4.76,4.36 -7.14,9.37 -7.14,15.05 0,3.59 0.84,6.79 2.52,9.59 2.32,3.76 6.04,7.47 11.16,11.15 3.75,2.64 12.42,7.32 26.01,14.03 19.02,9.35 31.85,18.18 38.49,26.5 6.55,8.31 9.83,17.82 9.83,28.53 0,13.59 -5.3,25.28 -15.89,35.07 -10.59,9.79 -24.03,14.69 -40.34,14.69 -5.11,0 -9.95,-0.52 -14.5,-1.56 -4.56,-1.04 -10.28,-3 -17.16,-5.88 -3.83,-1.6 -6.99,-2.39 -9.46,-2.39 -2.08,0 -4.28,0.79 -6.59,2.39 -2.32,1.6 -4.2,4.04 -5.64,7.32l-4.44 0 0 -61.39 4.44 0c3.51,17.27 10.29,30.44 20.32,39.5 10.03,9.08 20.84,13.62 32.43,13.62 8.95,0 16.08,-2.44 21.4,-7.32 5.32,-4.88 7.97,-10.56 7.97,-17.03 0,-3.83 -1.02,-7.55 -3.05,-11.15 -2.04,-3.59 -5.14,-7.01 -9.29,-10.25 -4.17,-3.23 -11.52,-7.45 -22.07,-12.65 -14.78,-7.27 -25.42,-13.46 -31.89,-18.58 -6.47,-5.11 -11.45,-10.83 -14.92,-17.14 -3.48,-6.32 -5.22,-13.27 -5.22,-20.87 0,-12.95 4.75,-23.97 14.27,-33.09 9.51,-9.11 21.5,-13.66 35.97,-13.66 5.27,0 10.39,0.64 15.34,1.91 3.76,0.96 8.34,2.74 13.73,5.33 5.39,2.61 9.17,3.9 11.33,3.9 2.08,0 3.71,-0.63 4.91,-1.92 1.2,-1.27 2.32,-4.35 3.36,-9.22l3.6 0zm183.65 0l0 56.35 -4.68 0c-3.52,-14.71 -10.07,-25.98 -19.66,-33.81 -9.59,-7.84 -20.47,-11.76 -32.62,-11.76 -10.14,0 -19.46,2.92 -27.93,8.76 -8.47,5.83 -14.67,13.47 -18.58,22.9 -5.03,12.07 -7.55,25.49 -7.55,40.28 0,14.55 1.83,27.8 5.51,39.75 3.67,11.94 9.43,20.98 17.26,27.09 7.84,6.12 17.99,9.18 30.45,9.18 10.24,0 19.62,-2.25 28.13,-6.72 8.51,-4.48 17.48,-12.19 26.91,-23.14l0 14.03c-9.11,9.51 -18.6,16.4 -28.47,20.68 -9.88,4.28 -21.41,6.42 -34.6,6.42 -17.34,0 -32.74,-3.48 -46.21,-10.43 -13.47,-6.96 -23.86,-16.95 -31.17,-29.98 -7.32,-13.03 -10.98,-26.9 -10.98,-41.6 0,-15.51 4.06,-30.21 12.18,-44.13 8.1,-13.9 19.05,-24.69 32.85,-32.37 13.78,-7.67 28.43,-11.5 43.93,-11.5 11.43,0 23.5,2.47 36.21,7.43 7.36,2.87 12.03,4.31 14.03,4.31 2.55,0 4.77,-0.93 6.66,-2.82 1.87,-1.87 3.09,-4.85 3.65,-8.92l4.68 0zm19.17 3.71l83.93 0 0 4.44 -4.19 0c-6.32,0 -10.65,0.66 -13.01,1.97 -2.36,1.32 -4.04,3.14 -5.04,5.46 -1,2.31 -1.5,8.11 -1.5,17.39l0 79.6c0,14.55 1.1,24.18 3.3,28.9 2.2,4.72 5.81,8.63 10.85,11.75 5.04,3.12 11.39,4.68 19.06,4.68 8.8,0 16.29,-1.98 22.49,-5.94 6.19,-3.96 10.83,-9.42 13.9,-16.37 3.08,-6.95 4.61,-19.06 4.61,-36.32l0 -66.3c0,-7.28 -0.75,-12.47 -2.27,-15.59 -1.52,-3.12 -3.44,-5.28 -5.76,-6.48 -3.59,-1.83 -8.67,-2.75 -15.22,-2.75l0 -4.44 56.23 0 0 4.44 -3.36 0c-4.55,0 -8.35,0.92 -11.38,2.75 -3.04,1.84 -5.25,4.6 -6.6,8.28 -1.05,2.55 -1.56,7.15 -1.56,13.79l0 61.74c0,19.1 -1.26,32.89 -3.78,41.36 -2.52,8.48 -8.65,16.27 -18.4,23.39 -9.75,7.12 -23.06,10.67 -39.92,10.67 -14.07,0 -24.95,-1.88 -32.62,-5.64 -10.47,-5.12 -17.87,-11.67 -22.18,-19.67 -4.31,-7.98 -6.47,-18.74 -6.47,-32.25l0 -79.6c0,-9.35 -0.52,-15.17 -1.56,-17.45 -1.04,-2.28 -2.84,-4.1 -5.39,-5.46 -2.56,-1.35 -7.28,-1.99 -14.16,-1.91l0 -4.44zm328.56 105.51l-6.12 57.07 -144.36 0 0 -4.43 5.4 0c4.72,0 8.52,-0.84 11.39,-2.52 2.08,-1.12 3.68,-3.04 4.8,-5.76 0.88,-1.92 1.32,-6.96 1.32,-15.11l0 -106.94c0,-8.32 -0.44,-13.52 -1.32,-15.59 -0.88,-2.08 -2.66,-3.9 -5.33,-5.46 -2.68,-1.55 -6.3,-2.33 -10.86,-2.33l-5.4 0 0 -4.44 86.69 0 0 4.44 -7.07 0c-4.72,0 -8.52,0.84 -11.4,2.51 -2.07,1.12 -3.71,3.04 -4.91,5.76 -0.88,1.92 -1.32,6.96 -1.32,15.11l0 103.59c0,8.31 0.48,13.6 1.44,15.88 0.96,2.28 2.84,3.98 5.63,5.1 2.01,0.72 6.84,1.08 14.52,1.08l13.54 0c8.63,0 15.83,-1.53 21.58,-4.56 5.75,-3.04 10.73,-7.83 14.93,-14.39 4.19,-6.55 8.17,-16.22 11.93,-29.01l4.92 0zm98.66 52.64l0 4.43 -85 0 0 -4.43 5.4 0c4.72,0 8.52,-0.84 11.39,-2.52 2.08,-1.12 3.68,-3.04 4.8,-5.76 0.88,-1.92 1.32,-6.96 1.32,-15.11l0 -106.94c0,-8.32 -0.44,-13.52 -1.32,-15.59 -0.88,-2.08 -2.66,-3.9 -5.33,-5.46 -2.68,-1.55 -6.3,-2.33 -10.86,-2.33l-5.4 0 0 -4.44 85 0 0 4.44 -5.39 0c-4.72,0 -8.52,0.84 -11.4,2.51 -2.07,1.12 -3.71,3.04 -4.91,5.76 -0.88,1.92 -1.32,6.96 -1.32,15.11l0 106.94c0,8.32 0.46,13.51 1.38,15.59 0.92,2.07 2.72,3.9 5.4,5.46 2.68,1.56 6.29,2.34 10.85,2.34l5.39 0zm69.49 -158.15l80.2 100.83 0 -69.89c0,-9.76 -1.39,-16.35 -4.19,-19.79 -3.83,-4.63 -10.27,-6.87 -19.3,-6.71l0 -4.44 53.71 0 0 4.44c-6.88,0.88 -11.49,2.01 -13.84,3.41 -2.37,1.41 -4.2,3.68 -5.52,6.84 -1.32,3.15 -1.98,8.58 -1.98,16.25l0 135.36 -4.08 0 -109.94 -135.36 0 103.34c0,9.35 2.14,15.67 6.41,18.95 4.28,3.27 9.18,4.92 14.69,4.92l3.84 0 0 4.43 -57.67 0 0 -4.43c8.95,-0.09 15.19,-1.92 18.71,-5.52 3.51,-3.6 5.27,-9.72 5.27,-18.35l0 -114.73 -3.48 -4.32c-3.44,-4.32 -6.47,-7.16 -9.11,-8.52 -2.64,-1.35 -6.43,-2.11 -11.39,-2.27l0 -4.44 57.67 0zm218.32 116.3l-57.43 0 -6.83 15.83c-2.24,5.27 -3.36,9.63 -3.36,13.06 0,4.56 1.84,7.92 5.51,10.08 2.16,1.28 7.48,2.24 15.95,2.88l0 4.43 -54.07 0 0 -4.43c5.84,-0.88 10.63,-3.3 14.39,-7.26 3.75,-3.96 8.39,-12.13 13.9,-24.52l58.16 -129.72 2.27 0 58.63 133.32c5.59,12.63 10.19,20.58 13.79,23.86 2.71,2.48 6.55,3.92 11.5,4.32l0 4.43 -78.64 0 0 -4.43 3.23 0c6.32,0 10.76,-0.88 13.31,-2.64 1.76,-1.29 2.64,-3.12 2.64,-5.52 0,-1.44 -0.24,-2.91 -0.72,-4.44 -0.15,-0.72 -1.35,-3.72 -3.6,-8.99l-8.63 -20.26zm-4.08 -8.87l-24.22 -55.99 -24.93 55.99 49.15 0zm146.34 55.15l0 -4.43 5.39 0c4.72,0 8.34,-0.75 10.86,-2.22 2.51,-1.48 4.37,-3.51 5.57,-6.06 0.72,-1.68 1.08,-6.72 1.08,-15.11l0 -106.94c0,-8.32 -0.44,-13.52 -1.32,-15.59 -0.88,-2.08 -2.66,-3.9 -5.33,-5.46 -2.68,-1.55 -6.3,-2.33 -10.86,-2.33l-5.39 0 0 -4.44 72.77 0c19.43,0 35.06,2.64 46.89,7.91 14.46,6.48 25.43,16.27 32.91,29.37 7.47,13.11 11.2,27.94 11.2,44.49 0,11.43 -1.84,21.96 -5.51,31.59 -3.68,9.63 -8.43,17.58 -14.27,23.86 -5.83,6.28 -12.57,11.31 -20.2,15.11 -7.64,3.8 -16.97,6.73 -28,8.81 -4.87,0.96 -12.55,1.44 -23.02,1.44l-72.77 0zm61.98 -153.35l0 126.85c0,6.71 0.32,10.83 0.96,12.35 0.64,1.52 1.72,2.67 3.24,3.48 2.15,1.2 5.27,1.8 9.35,1.8 13.35,0 23.54,-4.56 30.57,-13.67 9.6,-12.31 14.39,-31.42 14.39,-57.31 0,-20.86 -3.28,-37.53 -9.83,-50 -5.19,-9.75 -11.87,-16.38 -20.02,-19.9 -5.75,-2.48 -15.31,-3.68 -28.66,-3.6zm179 0.12l0 66.18 3.24 0c10.31,0 17.78,-3.24 22.42,-9.71 4.63,-6.47 7.59,-16.02 8.87,-28.65l4.56 0 0 85.13 -4.56 0c-0.96,-9.28 -2.98,-16.87 -6.05,-22.79 -3.08,-5.92 -6.66,-9.89 -10.73,-11.93 -4.08,-2.03 -9.99,-3.05 -17.75,-3.05l0 45.8c0,8.95 0.38,14.42 1.14,16.42 0.76,2.01 2.18,3.64 4.26,4.92 2.08,1.28 5.43,1.92 10.07,1.92l9.71 0c15.19,0 27.35,-3.52 36.51,-10.56 9.15,-7.02 15.73,-17.73 19.72,-32.13l4.44 0 -7.32 51.68 -140.52 0 0 -4.43 5.4 0c4.72,0 8.52,-0.84 11.39,-2.52 2.08,-1.12 3.68,-3.04 4.8,-5.76 0.88,-1.92 1.32,-6.96 1.32,-15.11l0 -106.94c0,-7.36 -0.2,-11.87 -0.6,-13.55 -0.8,-2.8 -2.28,-4.95 -4.44,-6.48 -3.04,-2.23 -7.19,-3.35 -12.47,-3.35l-5.4 0 0 -4.44 136.08 0 0 48.08 -4.55 0c-2.32,-11.75 -5.58,-20.18 -9.77,-25.3 -4.19,-5.12 -10.13,-8.87 -17.81,-11.27 -4.47,-1.44 -12.87,-2.16 -25.17,-2.16l-16.79 0zm272.4 67.02c15.43,3.6 26.26,7.96 32.49,13.08 8.96,7.26 13.44,16.7 13.44,28.29 0,12.23 -4.92,22.34 -14.76,30.33 -12.06,9.67 -29.61,14.51 -52.62,14.51l-82.62 0 0 -4.43c7.52,0 12.62,-0.7 15.3,-2.1 2.67,-1.41 4.55,-3.22 5.63,-5.46 1.08,-2.24 1.62,-7.75 1.62,-16.55l0 -105.5c0,-8.8 -0.54,-14.33 -1.62,-16.61 -1.08,-2.28 -2.98,-4.1 -5.69,-5.46 -2.73,-1.35 -7.8,-2.03 -15.24,-2.03l0 -4.44 77.94 0c18.62,0 31.81,1.66 39.57,4.97 7.74,3.33 13.86,8.28 18.34,14.88 4.48,6.59 6.71,13.6 6.71,21.03 0,7.84 -2.83,14.82 -8.51,20.93 -5.68,6.11 -15.67,10.97 -29.98,14.56zm-43.64 -3.23c11.35,0 19.73,-1.28 25.12,-3.84 5.39,-2.56 9.53,-6.16 12.41,-10.79 2.87,-4.64 4.31,-10.55 4.31,-17.75 0,-7.19 -1.41,-13.08 -4.25,-17.68 -2.84,-4.6 -6.9,-8.09 -12.17,-10.49 -5.27,-2.4 -13.75,-3.56 -25.42,-3.48l0 64.03zm0 9.35l0 52.15 -0.12 6c0,4.31 1.1,7.57 3.3,9.77 2.2,2.19 5.46,3.3 9.77,3.3 6.4,0 12.3,-1.42 17.69,-4.26 5.39,-2.84 9.53,-6.96 12.41,-12.35 2.87,-5.39 4.31,-11.41 4.31,-18.04 0,-7.6 -1.75,-14.41 -5.27,-20.45 -3.52,-6.03 -8.35,-10.24 -14.51,-12.64 -6.16,-2.4 -15.35,-3.57 -27.58,-3.48zm193.28 -84.77c25.9,-0.95 46.93,6.6 63.13,22.67 16.18,16.06 24.27,36.16 24.27,60.3 0,20.62 -6.03,38.76 -18.1,54.43 -15.99,20.78 -38.57,31.18 -67.74,31.18 -29.26,0 -51.88,-9.92 -67.86,-29.74 -12.63,-15.67 -18.95,-34.24 -18.95,-55.75 0,-24.14 8.22,-44.26 24.64,-60.36 16.43,-16.11 36.63,-23.68 60.61,-22.73zm1.44 7.68c-14.87,0 -26.18,7.59 -33.93,22.78 -6.32,12.47 -9.47,30.37 -9.47,53.71 0,27.74 4.87,48.24 14.62,61.5 6.8,9.28 16.31,13.92 28.54,13.92 8.23,0 15.1,-2.01 20.62,-6 7.03,-5.12 12.51,-13.29 16.43,-24.52 3.91,-11.23 5.87,-25.88 5.87,-43.94 0,-21.51 -1.99,-37.59 -5.99,-48.26 -4,-10.67 -9.1,-18.2 -15.29,-22.6 -6.2,-4.39 -13.33,-6.59 -21.4,-6.59zm196.86 110.9l-57.43 0 -6.83 15.83c-2.24,5.27 -3.36,9.63 -3.36,13.06 0,4.56 1.84,7.92 5.51,10.08 2.16,1.28 7.48,2.24 15.95,2.88l0 4.43 -54.07 0 0 -4.43c5.84,-0.88 10.63,-3.3 14.39,-7.26 3.75,-3.96 8.39,-12.13 13.9,-24.52l58.16 -129.72 2.27 0 58.63 133.32c5.59,12.63 10.19,20.58 13.79,23.86 2.71,2.48 6.55,3.92 11.5,4.32l0 4.43 -78.64 0 0 -4.43 3.23 0c6.32,0 10.76,-0.88 13.31,-2.64 1.76,-1.29 2.64,-3.12 2.64,-5.52 0,-1.44 -0.24,-2.91 -0.72,-4.44 -0.15,-0.72 -1.35,-3.72 -3.6,-8.99l-8.63 -20.26zm-4.08 -8.87l-24.22 -55.99 -24.93 55.99 49.15 0zm317.9 -107.43l0 4.44c-5.91,0.95 -11.19,4.11 -15.82,9.47 -3.35,4 -8.35,13.39 -14.99,28.17l-55.98 124.22 -3.96 0 -55.75 -129.25c-6.71,-15.58 -11.21,-24.73 -13.49,-27.46 -2.28,-2.71 -6.57,-4.43 -12.89,-5.15l0 -4.44 77.93 0 0 4.44 -2.64 0c-7.03,0 -11.82,0.88 -14.38,2.63 -1.84,1.2 -2.76,2.97 -2.76,5.28 0,1.44 0.32,3.14 0.96,5.1 0.64,1.95 2.8,7.21 6.47,15.76l34.65 80.93 32.13 -72.06c3.83,-8.7 6.2,-14.54 7.07,-17.5 0.88,-2.96 1.32,-5.48 1.32,-7.55 0,-2.4 -0.63,-4.52 -1.91,-6.36 -1.28,-1.83 -3.16,-3.24 -5.64,-4.2 -3.43,-1.35 -7.99,-2.03 -13.66,-2.03l0 -4.44 53.34 0zm92.44 158.15l0 4.43 -85.01 0 0 -4.43 5.4 0c4.72,0 8.52,-0.84 11.39,-2.52 2.08,-1.12 3.68,-3.04 4.8,-5.76 0.88,-1.92 1.32,-6.96 1.32,-15.11l0 -106.94c0,-8.32 -0.44,-13.52 -1.32,-15.59 -0.88,-2.08 -2.66,-3.9 -5.33,-5.46 -2.68,-1.55 -6.3,-2.33 -10.86,-2.33l-5.4 0 0 -4.44 85.01 0 0 4.44 -5.39 0c-4.72,0 -8.52,0.84 -11.4,2.51 -2.07,1.12 -3.71,3.04 -4.91,5.76 -0.88,1.92 -1.32,6.96 -1.32,15.11l0 106.94c0,8.32 0.46,13.51 1.38,15.59 0.92,2.07 2.72,3.9 5.4,5.46 2.68,1.56 6.29,2.34 10.85,2.34l5.39 0zm123.68 -161.86l1.32 54.19 -4.92 0c-2.31,-13.59 -8.01,-24.52 -17.08,-32.79 -9.08,-8.28 -18.89,-12.41 -29.44,-12.41 -8.15,0 -14.6,2.18 -19.36,6.53 -4.76,4.36 -7.14,9.37 -7.14,15.05 0,3.59 0.84,6.79 2.52,9.59 2.32,3.76 6.04,7.47 11.16,11.15 3.75,2.64 12.42,7.32 26.01,14.03 19.02,9.35 31.85,18.18 38.49,26.5 6.55,8.31 9.83,17.82 9.83,28.53 0,13.59 -5.3,25.28 -15.89,35.07 -10.59,9.79 -24.03,14.69 -40.34,14.69 -5.11,0 -9.95,-0.52 -14.5,-1.56 -4.56,-1.04 -10.28,-3 -17.16,-5.88 -3.83,-1.6 -6.99,-2.39 -9.46,-2.39 -2.08,0 -4.28,0.79 -6.59,2.39 -2.32,1.6 -4.2,4.04 -5.64,7.32l-4.44 0 0 -61.39 4.44 0c3.51,17.27 10.29,30.44 20.32,39.5 10.03,9.08 20.84,13.62 32.43,13.62 8.95,0 16.08,-2.44 21.4,-7.32 5.32,-4.88 7.97,-10.56 7.97,-17.03 0,-3.83 -1.02,-7.55 -3.05,-11.15 -2.04,-3.59 -5.14,-7.01 -9.29,-10.25 -4.17,-3.23 -11.52,-7.45 -22.07,-12.65 -14.78,-7.27 -25.42,-13.46 -31.89,-18.58 -6.47,-5.11 -11.45,-10.83 -14.92,-17.14 -3.48,-6.32 -5.22,-13.27 -5.22,-20.87 0,-12.95 4.75,-23.97 14.27,-33.09 9.51,-9.11 21.5,-13.66 35.97,-13.66 5.27,0 10.39,0.64 15.34,1.91 3.76,0.96 8.34,2.74 13.73,5.33 5.39,2.61 9.17,3.9 11.33,3.9 2.08,0 3.71,-0.63 4.91,-1.92 1.2,-1.27 2.32,-4.35 3.36,-9.22l3.6 0zm174.66 3.71l0 44 -4.32 0c-2.56,-10.14 -5.4,-17.44 -8.51,-21.88 -3.12,-4.43 -7.39,-7.97 -12.83,-10.61 -3.04,-1.44 -8.36,-2.16 -15.95,-2.16l-12.11 0 0 125.41c0,8.32 0.46,13.51 1.38,15.59 0.92,2.07 2.72,3.9 5.4,5.46 2.68,1.56 6.33,2.34 10.97,2.34l5.39 0 0 4.43 -85.13 0 0 -4.43 5.4 0c4.72,0 8.52,-0.84 11.39,-2.52 2.08,-1.12 3.72,-3.04 4.92,-5.76 0.88,-1.92 1.32,-6.96 1.32,-15.11l0 -125.41 -11.75 0c-10.95,0 -18.9,2.32 -23.86,6.96 -6.95,6.47 -11.36,15.7 -13.19,27.69l-4.56 0 0 -44 146.04 0zm111.02 116.3l-57.43 0 -6.83 15.83c-2.24,5.27 -3.36,9.63 -3.36,13.06 0,4.56 1.84,7.92 5.51,10.08 2.16,1.28 7.48,2.24 15.95,2.88l0 4.43 -54.07 0 0 -4.43c5.84,-0.88 10.63,-3.3 14.39,-7.26 3.75,-3.96 8.39,-12.13 13.9,-24.52l58.16 -129.72 2.27 0 58.63 133.32c5.59,12.63 10.19,20.58 13.79,23.86 2.71,2.48 6.55,3.92 11.5,4.32l0 4.43 -78.64 0 0 -4.43 3.23 0c6.32,0 10.76,-0.88 13.31,-2.64 1.76,-1.29 2.64,-3.12 2.64,-5.52 0,-1.44 -0.24,-2.91 -0.72,-4.44 -0.15,-0.72 -1.35,-3.72 -3.6,-8.99l-8.63 -20.26zm-4.08 -8.87l-24.22 -55.99 -24.93 55.99 49.15 0zm157.1 11.15l-69.9 0 0 -24.82 69.9 0 0 24.82zm169.78 -122.29l0 56.35 -4.68 0c-3.52,-14.71 -10.07,-25.98 -19.66,-33.81 -9.59,-7.84 -20.47,-11.76 -32.62,-11.76 -10.14,0 -19.46,2.92 -27.93,8.76 -8.47,5.83 -14.67,13.47 -18.58,22.9 -5.03,12.07 -7.55,25.49 -7.55,40.28 0,14.55 1.83,27.8 5.51,39.75 3.67,11.94 9.43,20.98 17.26,27.09 7.84,6.12 17.99,9.18 30.45,9.18 10.24,0 19.62,-2.25 28.13,-6.72 8.51,-4.48 17.48,-12.19 26.91,-23.14l0 14.03c-9.11,9.51 -18.6,16.4 -28.47,20.68 -9.88,4.28 -21.41,6.42 -34.6,6.42 -17.34,0 -32.74,-3.48 -46.21,-10.43 -13.47,-6.96 -23.86,-16.95 -31.17,-29.98 -7.32,-13.03 -10.98,-26.9 -10.98,-41.6 0,-15.51 4.06,-30.21 12.18,-44.13 8.1,-13.9 19.05,-24.69 32.85,-32.37 13.78,-7.67 28.43,-11.5 43.93,-11.5 11.43,0 23.5,2.47 36.21,7.43 7.36,2.87 12.03,4.31 14.03,4.31 2.55,0 4.77,-0.93 6.66,-2.82 1.87,-1.87 3.09,-4.85 3.65,-8.92l4.68 0zm84.14 92.68l0 45.07c0,8.8 0.54,14.33 1.62,16.61 1.08,2.28 3,4.1 5.76,5.46 2.75,1.35 7.81,2.04 15.17,2.04l0 4.43 -82.62 0 0 -4.43c7.52,0 12.62,-0.7 15.3,-2.1 2.67,-1.41 4.55,-3.22 5.63,-5.46 1.08,-2.24 1.62,-7.75 1.62,-16.55l0 -105.5c0,-8.8 -0.54,-14.33 -1.62,-16.61 -1.08,-2.28 -2.98,-4.1 -5.69,-5.46 -2.73,-1.35 -7.8,-2.03 -15.24,-2.03l0 -4.44 70.86 0c23.34,0 40.09,4.16 50.24,12.47 10.15,8.31 15.22,18.7 15.22,31.17 0,10.56 -3.27,19.59 -9.82,27.09 -6.56,7.52 -15.59,12.63 -27.1,15.36 -7.75,1.92 -20.86,2.88 -39.33,2.88zm0 -79.62l0 70.26c2.64,0.16 4.64,0.24 5.99,0.24 9.76,0 17.28,-2.89 22.55,-8.69 5.27,-5.8 7.91,-14.77 7.91,-26.92 0,-12.06 -2.64,-20.9 -7.91,-26.49 -5.27,-5.6 -13.15,-8.4 -23.62,-8.4l-4.92 0zm198.25 97.84l44.12 -107.19 66.18 0 0 4.44 -5.27 0c-4.8,0 -8.64,0.84 -11.52,2.51 -1.99,1.12 -3.59,3 -4.79,5.64 -0.88,1.92 -1.32,6.91 -1.32,14.99l0 107.18c0,8.32 0.44,13.51 1.32,15.59 0.88,2.07 2.68,3.9 5.4,5.46 2.72,1.56 6.35,2.34 10.91,2.34l5.27 0 0 4.43 -84.89 0 0 -4.43 5.28 0c4.8,0 8.64,-0.84 11.51,-2.52 2,-1.12 3.6,-3.04 4.8,-5.76 0.88,-1.92 1.32,-6.96 1.32,-15.11l0 -120.49 -62.35 148.31 -2.88 0 -63.3 -147.23 0 114.5c0,7.99 0.2,12.91 0.6,14.74 1.04,4 3.29,7.26 6.77,9.78 3.48,2.52 8.94,3.78 16.37,3.78l0 4.43 -55.64 0 0 -4.43 1.68 0c3.6,0.08 6.96,-0.51 10.08,-1.74 3.11,-1.24 5.47,-2.91 7.07,-4.98 1.6,-2.08 2.84,-5 3.72,-8.76 0.16,-0.87 0.24,-4.95 0.24,-12.22l0 -102.87c0,-8.24 -0.44,-13.37 -1.32,-15.41 -0.88,-2.04 -2.68,-3.84 -5.39,-5.4 -2.73,-1.55 -6.36,-2.33 -10.92,-2.33l-5.16 0 0 -4.44 66.43 0 45.68 107.19zm225.68 -30.82c15.43,3.6 26.26,7.96 32.49,13.08 8.96,7.26 13.44,16.7 13.44,28.29 0,12.23 -4.92,22.34 -14.76,30.33 -12.06,9.67 -29.61,14.51 -52.62,14.51l-82.62 0 0 -4.43c7.52,0 12.62,-0.7 15.3,-2.1 2.67,-1.41 4.55,-3.22 5.63,-5.46 1.08,-2.24 1.62,-7.75 1.62,-16.55l0 -105.5c0,-8.8 -0.54,-14.33 -1.62,-16.61 -1.08,-2.28 -2.98,-4.1 -5.69,-5.46 -2.73,-1.35 -7.8,-2.03 -15.24,-2.03l0 -4.44 77.94 0c18.62,0 31.81,1.66 39.57,4.97 7.74,3.33 13.86,8.28 18.34,14.88 4.48,6.59 6.71,13.6 6.71,21.03 0,7.84 -2.83,14.82 -8.51,20.93 -5.68,6.11 -15.67,10.97 -29.98,14.56zm-43.64 -3.23c11.35,0 19.73,-1.28 25.12,-3.84 5.39,-2.56 9.53,-6.16 12.41,-10.79 2.87,-4.64 4.31,-10.55 4.31,-17.75 0,-7.19 -1.41,-13.08 -4.25,-17.68 -2.84,-4.6 -6.9,-8.09 -12.17,-10.49 -5.27,-2.4 -13.75,-3.56 -25.42,-3.48l0 64.03zm0 9.35l0 52.15 -0.12 6c0,4.31 1.1,7.57 3.3,9.77 2.2,2.19 5.46,3.3 9.77,3.3 6.4,0 12.3,-1.42 17.69,-4.26 5.39,-2.84 9.53,-6.96 12.41,-12.35 2.87,-5.39 4.31,-11.41 4.31,-18.04 0,-7.6 -1.75,-14.41 -5.27,-20.45 -3.52,-6.03 -8.35,-10.24 -14.51,-12.64 -6.16,-2.4 -15.35,-3.57 -27.58,-3.48zm273 -82.49l0 4.44c-5.91,0.95 -11.19,4.11 -15.82,9.47 -3.35,4 -8.35,13.39 -14.99,28.17l-55.98 124.22 -3.96 0 -55.75 -129.25c-6.71,-15.58 -11.21,-24.73 -13.49,-27.46 -2.28,-2.71 -6.57,-4.43 -12.89,-5.15l0 -4.44 77.93 0 0 4.44 -2.64 0c-7.03,0 -11.82,0.88 -14.38,2.63 -1.84,1.2 -2.76,2.97 -2.76,5.28 0,1.44 0.32,3.14 0.96,5.1 0.64,1.95 2.8,7.21 6.47,15.76l34.65 80.93 32.13 -72.06c3.83,-8.7 6.2,-14.54 7.07,-17.5 0.88,-2.96 1.32,-5.48 1.32,-7.55 0,-2.4 -0.63,-4.52 -1.91,-6.36 -1.28,-1.83 -3.16,-3.24 -5.64,-4.2 -3.43,-1.35 -7.99,-2.03 -13.66,-2.03l0 -4.44 53.34 0z"/>
   <path class="fil0" d="M1939.52 472.28l-62.94 0 -11.04 25.66c-2.71,6.32 -4.07,11.03 -4.07,14.15 0,2.48 1.18,4.65 3.54,6.54 2.36,1.88 7.45,3.09 15.29,3.66l0 4.43 -51.2 0 0 -4.43c6.8,-1.2 11.19,-2.76 13.19,-4.68 4.07,-3.84 8.59,-11.63 13.55,-23.38l57.19 -133.8 4.19 0 56.59 135.24c4.56,10.87 8.7,17.92 12.42,21.16 3.71,3.24 8.88,5.06 15.51,5.46l0 4.43 -64.14 0 0 -4.43c6.48,-0.33 10.86,-1.41 13.14,-3.24 2.27,-1.84 3.41,-4.08 3.41,-6.72 0,-3.51 -1.6,-9.07 -4.79,-16.66l-9.84 -23.39zm-3.36 -8.87l-27.57 -65.7 -28.29 65.7 55.86 0zm70.38 -46.51l51.68 0 0 4.43 -3.36 0c-3.12,0 -5.49,0.76 -7.14,2.28 -1.64,1.52 -2.46,3.55 -2.46,6.11 0,2.8 0.84,6.12 2.52,9.95l25.54 60.67 25.66 -62.94c1.84,-4.48 2.76,-7.87 2.76,-10.19 0,-1.12 -0.32,-2.04 -0.96,-2.76 -0.88,-1.2 -2,-2.02 -3.36,-2.46 -1.36,-0.44 -4.12,-0.66 -8.27,-0.66l0 -4.43 35.85 0 0 4.43c-4.16,0.32 -7.04,1.16 -8.64,2.52 -2.79,2.4 -5.31,6.4 -7.55,11.99l-38.97 94.24 -4.91 0 -39.21 -92.68c-1.76,-4.32 -3.44,-7.42 -5.03,-9.3 -1.6,-1.87 -3.64,-3.45 -6.12,-4.73 -1.35,-0.72 -4.03,-1.4 -8.03,-2.04l0 -4.43zm146.88 41.36c-0.08,16.3 3.88,29.09 11.87,38.37 7.99,9.27 17.38,13.9 28.17,13.9 7.19,0 13.45,-1.98 18.77,-5.94 5.31,-3.95 9.77,-10.72 13.36,-20.31l3.72 2.4c-1.68,10.95 -6.55,20.91 -14.62,29.91 -8.08,8.99 -18.19,13.49 -30.34,13.49 -13.19,0 -24.47,-5.14 -33.86,-15.41 -9.4,-10.27 -14.1,-24.08 -14.1,-41.43 0,-18.78 4.82,-33.42 14.46,-43.94 9.63,-10.51 21.72,-15.76 36.26,-15.76 12.31,0 22.42,4.05 30.34,12.16 7.91,8.12 11.86,18.97 11.86,32.56l-75.89 0zm0 -6.95l50.83 0c-0.39,-7.04 -1.23,-12 -2.52,-14.87 -1.99,-4.48 -4.97,-8 -8.92,-10.56 -3.96,-2.56 -8.1,-3.83 -12.41,-3.83 -6.64,0 -12.57,2.58 -17.81,7.73 -5.23,5.16 -8.29,12.34 -9.17,21.53zm124.24 -14.39c12.87,-15.51 25.14,-23.26 36.81,-23.26 6,0 11.16,1.5 15.47,4.49 4.31,3 7.75,7.93 10.31,14.81 1.76,4.79 2.64,12.15 2.64,22.06l0 46.88c0,6.95 0.56,11.67 1.67,14.15 0.88,2 2.31,3.56 4.26,4.68 1.96,1.11 5.58,1.68 10.86,1.68l0 4.31 -54.32 0 0 -4.31 2.28 0c5.12,0 8.69,-0.78 10.73,-2.34 2.04,-1.56 3.45,-3.86 4.26,-6.9 0.32,-1.2 0.48,-4.95 0.48,-11.27l0 -44.96c0,-9.99 -1.3,-17.24 -3.9,-21.76 -2.6,-4.51 -6.97,-6.77 -13.13,-6.77 -9.51,0 -18.98,5.2 -28.42,15.58l0 57.91c0,7.43 0.45,12.03 1.32,13.79 1.12,2.31 2.67,4.02 4.62,5.1 1.96,1.08 5.94,1.62 11.93,1.62l0 4.31 -54.31 0 0 -4.31 2.39 0c5.6,0 9.38,-1.42 11.34,-4.26 1.95,-2.84 2.94,-8.25 2.94,-16.25l0 -40.76c0,-13.19 -0.3,-21.23 -0.9,-24.11 -0.6,-2.87 -1.53,-4.83 -2.76,-5.87 -1.24,-1.04 -2.9,-1.56 -4.98,-1.56 -2.24,0 -4.92,0.6 -8.03,1.8l-1.8 -4.31 33.09 -13.43 5.15 0 0 23.26zm118.71 -80.69c3.35,0 6.21,1.18 8.57,3.53 2.36,2.36 3.54,5.22 3.54,8.58 0,3.35 -1.18,6.23 -3.54,8.63 -2.36,2.4 -5.22,3.6 -8.57,3.6 -3.36,0 -6.24,-1.2 -8.63,-3.6 -2.4,-2.4 -3.6,-5.28 -3.6,-8.63 0,-3.36 1.18,-6.22 3.54,-8.58 2.35,-2.35 5.25,-3.53 8.69,-3.53zm9.95 57.43l0 88.24c0,6.88 0.51,11.45 1.5,13.73 1,2.28 2.48,3.98 4.44,5.1 1.95,1.11 5.53,1.68 10.73,1.68l0 4.31 -53.36 0 0 -4.31c5.36,0 8.96,-0.52 10.8,-1.56 1.83,-1.05 3.29,-2.76 4.37,-5.16 1.08,-2.4 1.62,-6.99 1.62,-13.79l0 -42.32c0,-11.91 -0.36,-19.62 -1.08,-23.14 -0.56,-2.56 -1.44,-4.34 -2.63,-5.34 -1.2,-1 -2.85,-1.5 -4.92,-1.5 -2.25,0 -4.96,0.6 -8.16,1.8l-1.68 -4.31 33.09 -13.43 5.28 0zm107.91 100.71c-5.36,5.59 -10.59,9.61 -15.71,12.05 -5.11,2.44 -10.63,3.66 -16.54,3.66 -12,0 -22.47,-5.02 -31.41,-15.05 -8.96,-10.03 -13.44,-22.92 -13.44,-38.67 0,-15.74 4.96,-30.15 14.88,-43.22 9.9,-13.07 22.65,-19.6 38.24,-19.6 9.67,0 17.66,3.07 23.98,9.23l0 -20.26c0,-12.55 -0.3,-20.26 -0.9,-23.14 -0.6,-2.88 -1.54,-4.83 -2.82,-5.88 -1.28,-1.04 -2.88,-1.56 -4.8,-1.56 -2.07,0 -4.83,0.64 -8.27,1.92l-1.56 -4.19 32.73 -13.43 5.4 0 0 126.97c0,12.87 0.3,20.72 0.9,23.55 0.59,2.85 1.55,4.82 2.87,5.94 1.32,1.11 2.86,1.68 4.62,1.68 2.16,0 5.04,-0.68 8.64,-2.04l1.31 4.2 -32.61 13.55 -5.51 0 0 -15.71zm0 -8.4l0 -56.58c-0.48,-5.44 -1.92,-10.39 -4.32,-14.87 -2.4,-4.48 -5.58,-7.85 -9.53,-10.13 -3.96,-2.28 -7.81,-3.42 -11.57,-3.42 -7.04,0 -13.31,3.16 -18.83,9.47 -7.27,8.32 -10.91,20.47 -10.91,36.45 0,16.15 3.52,28.52 10.55,37.1 7.04,8.6 14.87,12.9 23.5,12.9 7.28,0 14.31,-3.64 21.11,-10.92zm107.43 4.92c-11.27,8.71 -18.34,13.75 -21.22,15.11 -4.32,2 -8.91,3 -13.79,3 -7.6,0 -13.85,-2.6 -18.76,-7.79 -4.92,-5.2 -7.38,-12.03 -7.38,-20.51 0,-5.35 1.2,-9.99 3.6,-13.9 3.28,-5.44 8.97,-10.56 17.09,-15.36 8.11,-4.79 21.6,-10.62 40.46,-17.49l0 -4.32c0,-10.95 -1.74,-18.47 -5.21,-22.55 -3.48,-4.07 -8.54,-6.11 -15.17,-6.11 -5.04,0 -9.03,1.36 -11.99,4.08 -3.04,2.72 -4.56,5.83 -4.56,9.35l0.24 6.95c0,3.68 -0.94,6.51 -2.81,8.52 -1.88,2 -4.34,3 -7.38,3 -2.96,0 -5.37,-1.05 -7.25,-3.12 -1.89,-2.08 -2.82,-4.92 -2.82,-8.52 0,-6.87 3.51,-13.19 10.55,-18.94 7.03,-5.75 16.9,-8.63 29.62,-8.63 9.75,0 17.74,1.64 23.97,4.92 4.72,2.47 8.19,6.35 10.44,11.62 1.43,3.44 2.15,10.48 2.15,21.11l0 37.28c0,10.48 0.2,16.89 0.6,19.24 0.4,2.37 1.06,3.94 1.98,4.74 0.92,0.81 1.98,1.2 3.18,1.2 1.28,0 2.4,-0.27 3.35,-0.84 1.68,-1.04 4.92,-3.96 9.71,-8.75l0 6.71c-8.94,12 -17.5,17.99 -25.65,17.99 -3.92,0 -7.03,-1.36 -9.35,-4.08 -2.32,-2.72 -3.52,-7.35 -3.6,-13.91zm0 -7.79l0 -41.84c-12.07,4.79 -19.86,8.19 -23.38,10.19 -6.31,3.52 -10.83,7.19 -13.54,11.03 -2.72,3.84 -4.08,8.04 -4.08,12.59 0,5.75 1.72,10.53 5.15,14.32 3.44,3.8 7.4,5.7 11.87,5.7 6.08,0 14.07,-4 23.98,-11.99zm75.45 -89.56c3.68,0 6.81,1.29 9.41,3.89 2.6,2.6 3.9,5.74 3.9,9.42 0,3.67 -1.3,6.81 -3.9,9.4 -2.6,2.61 -5.73,3.9 -9.41,3.9 -3.67,0 -6.81,-1.29 -9.41,-3.9 -2.6,-2.59 -3.9,-5.73 -3.9,-9.4 0,-3.68 1.3,-6.82 3.9,-9.42 2.6,-2.6 5.74,-3.89 9.41,-3.89zm-0.24 89.8c3.76,0 6.93,1.32 9.53,3.95 2.6,2.64 3.9,5.8 3.9,9.48 0,3.68 -1.32,6.81 -3.96,9.41 -2.64,2.6 -5.79,3.9 -9.47,3.9 -3.67,0 -6.81,-1.3 -9.4,-3.9 -2.61,-2.6 -3.9,-5.73 -3.9,-9.41 0,-3.68 1.29,-6.84 3.9,-9.48 2.59,-2.63 5.73,-3.95 9.4,-3.95zm251.56 -142.91l4.2 51.31 -4.2 0c-4.24,-12.78 -9.72,-22.42 -16.43,-28.89 -9.67,-9.36 -22.09,-14.03 -37.28,-14.03 -20.71,0 -36.45,8.19 -47.24,24.58 -9.03,13.82 -13.55,30.29 -13.55,49.39 0,15.51 3,29.66 8.99,42.45 6,12.78 13.85,22.16 23.56,28.11 9.71,5.96 19.68,8.94 29.91,8.94 5.99,0 11.79,-0.76 17.39,-2.28 5.59,-1.53 10.98,-3.76 16.18,-6.72l0 -47c0,-8.15 -0.61,-13.48 -1.85,-16 -1.24,-2.52 -3.16,-4.44 -5.75,-5.76 -2.61,-1.32 -7.18,-1.98 -13.74,-1.98l0 -4.56 62.95 0 0 4.56 -3 0c-6.23,0 -10.51,2.08 -12.83,6.24 -1.6,2.96 -2.39,8.79 -2.39,17.5l0 49.76c-9.2,4.95 -18.27,8.59 -27.22,10.91 -8.96,2.32 -18.91,3.48 -29.86,3.48 -31.41,0 -55.27,-10.07 -71.57,-30.22 -12.23,-15.1 -18.35,-32.53 -18.35,-52.27 0,-14.31 3.44,-28.02 10.32,-41.13 8.15,-15.58 19.34,-27.57 33.57,-35.97 11.91,-6.95 25.98,-10.42 42.2,-10.42 5.92,0 11.29,0.48 16.12,1.43 4.84,0.96 11.7,3.08 20.57,6.36 4.48,1.67 7.47,2.51 8.98,2.51 1.53,0 2.82,-0.69 3.9,-2.1 1.08,-1.39 1.74,-4.13 1.98,-8.2l4.44 0zm49.8 97.83c-0.08,16.3 3.88,29.09 11.87,38.37 7.99,9.27 17.38,13.9 28.17,13.9 7.19,0 13.45,-1.98 18.77,-5.94 5.31,-3.95 9.77,-10.72 13.36,-20.31l3.72 2.4c-1.68,10.95 -6.55,20.91 -14.62,29.91 -8.08,8.99 -18.19,13.49 -30.34,13.49 -13.19,0 -24.47,-5.14 -33.86,-15.41 -9.4,-10.27 -14.1,-24.08 -14.1,-41.43 0,-18.78 4.82,-33.42 14.46,-43.94 9.63,-10.51 21.72,-15.76 36.26,-15.76 12.31,0 22.42,4.05 30.34,12.16 7.91,8.12 11.86,18.97 11.86,32.56l-75.89 0zm0 -6.95l50.83 0c-0.39,-7.04 -1.23,-12 -2.52,-14.87 -1.99,-4.48 -4.97,-8 -8.92,-10.56 -3.96,-2.56 -8.1,-3.83 -12.41,-3.83 -6.64,0 -12.57,2.58 -17.81,7.73 -5.23,5.16 -8.29,12.34 -9.17,21.53zm122.4 -70.5l0 36.09 25.66 0 0 8.39 -25.66 0 0 71.22c0,7.11 1.02,11.9 3.06,14.38 2.04,2.48 4.66,3.72 7.86,3.72 2.64,0 5.19,-0.82 7.68,-2.46 2.47,-1.64 4.38,-4.05 5.74,-7.25l4.68 0c-2.8,7.83 -6.76,13.73 -11.87,17.68 -5.12,3.96 -10.39,5.94 -15.83,5.94 -3.67,0 -7.26,-1.02 -10.78,-3.06 -3.52,-2.03 -6.12,-4.95 -7.79,-8.75 -1.68,-3.8 -2.52,-9.66 -2.52,-17.57l0 -73.85 -17.39 0 0 -3.96c4.4,-1.76 8.89,-4.73 13.49,-8.93 4.59,-4.2 8.69,-9.18 12.29,-14.93 1.84,-3.04 4.39,-8.59 7.67,-16.66l3.71 0zm132.61 36.09l0 66.54c0,12.71 0.3,20.48 0.9,23.31 0.6,2.85 1.56,4.82 2.88,5.94 1.31,1.11 2.85,1.68 4.61,1.68 2.48,0 5.28,-0.68 8.4,-2.04l1.68 4.2 -32.86 13.55 -5.39 0 0 -23.27c-9.43,10.24 -16.62,16.68 -21.58,19.31 -4.96,2.64 -10.2,3.96 -15.71,3.96 -6.15,0 -11.49,-1.78 -16,-5.34 -4.52,-3.56 -7.66,-8.13 -9.41,-13.73 -1.77,-5.59 -2.64,-13.5 -2.64,-23.73l0 -49.05c0,-5.19 -0.57,-8.79 -1.68,-10.79 -1.12,-1.99 -2.78,-3.53 -4.98,-4.61 -2.19,-1.08 -6.18,-1.58 -11.93,-1.5l0 -4.43 38.48 0 0 73.49c0,10.23 1.78,16.94 5.34,20.14 3.56,3.2 7.86,4.8 12.89,4.8 3.44,0 7.33,-1.08 11.69,-3.24 4.36,-2.16 9.53,-6.27 15.53,-12.35l0 -62.22c0,-6.23 -1.14,-10.45 -3.42,-12.65 -2.28,-2.2 -7.02,-3.38 -14.21,-3.54l0 -4.43 37.41 0zm-20.14 -56.83l-35.37 41.36 -4.08 0 12.59 -41.36 26.86 0zm84.41 -3.84l0 145.67c0,6.88 0.51,11.43 1.5,13.67 1,2.24 2.54,3.93 4.62,5.1 2.07,1.16 5.95,1.74 11.63,1.74l0 4.31 -53.84 0 0 -4.31c5.04,0 8.48,-0.52 10.32,-1.56 1.83,-1.05 3.27,-2.76 4.31,-5.16 1.04,-2.4 1.56,-6.99 1.56,-13.79l0 -99.75c0,-12.39 -0.28,-20 -0.84,-22.84 -0.56,-2.84 -1.46,-4.77 -2.69,-5.82 -1.24,-1.04 -2.82,-1.56 -4.74,-1.56 -2.08,0 -4.72,0.64 -7.92,1.92l-2.04 -4.19 32.73 -13.43 5.4 0zm56.66 0c3.35,0 6.21,1.18 8.57,3.53 2.36,2.36 3.54,5.22 3.54,8.58 0,3.35 -1.18,6.23 -3.54,8.63 -2.36,2.4 -5.22,3.6 -8.57,3.6 -3.36,0 -6.24,-1.2 -8.63,-3.6 -2.4,-2.4 -3.6,-5.28 -3.6,-8.63 0,-3.36 1.18,-6.22 3.54,-8.58 2.35,-2.35 5.25,-3.53 8.69,-3.53zm9.95 57.43l0 88.24c0,6.88 0.51,11.45 1.5,13.73 1,2.28 2.48,3.98 4.44,5.1 1.95,1.11 5.53,1.68 10.73,1.68l0 4.31 -53.35 0 0 -4.31c5.35,0 8.95,-0.52 10.79,-1.56 1.83,-1.05 3.29,-2.76 4.37,-5.16 1.08,-2.4 1.62,-6.99 1.62,-13.79l0 -42.32c0,-11.91 -0.36,-19.62 -1.08,-23.14 -0.56,-2.56 -1.44,-4.34 -2.63,-5.34 -1.2,-1 -2.85,-1.5 -4.92,-1.5 -2.25,0 -4.96,0.6 -8.15,1.8l-1.68 -4.31 33.08 -13.43 5.28 0zm84.05 0c16.63,0 29.97,6.31 40.04,18.94 8.56,10.79 12.83,23.18 12.83,37.17 0,9.83 -2.35,19.78 -7.07,29.85 -4.72,10.07 -11.21,17.66 -19.48,22.78 -8.28,5.12 -17.49,7.68 -27.64,7.68 -16.55,0 -29.69,-6.59 -39.44,-19.79 -8.24,-11.1 -12.36,-23.58 -12.36,-37.41 0,-10.07 2.5,-20.07 7.5,-30.03 4.99,-9.95 11.57,-17.3 19.72,-22.06 8.15,-4.76 16.79,-7.13 25.9,-7.13zm-3.72 7.79c-4.24,0 -8.49,1.26 -12.77,3.78 -4.28,2.52 -7.74,6.94 -10.37,13.24 -2.64,6.32 -3.96,14.43 -3.96,24.35 0,15.98 3.18,29.77 9.53,41.36 6.36,11.59 14.73,17.39 25.12,17.39 7.76,0 14.15,-3.2 19.19,-9.6 5.03,-6.39 7.55,-17.38 7.55,-32.97 0,-19.5 -4.19,-34.85 -12.59,-46.04 -5.67,-7.67 -12.9,-11.51 -21.7,-11.51zm303.28 -57.31l0 4.44c-5.75,1.04 -10.11,2.87 -13.06,5.51 -4.24,3.92 -8,9.91 -11.27,17.99l-56.71 138.36 -4.43 0 -60.91 -140.16c-3.12,-7.19 -5.32,-11.59 -6.6,-13.19 -2,-2.48 -4.45,-4.41 -7.37,-5.82 -2.91,-1.39 -6.85,-2.29 -11.81,-2.69l0 -4.44 66.42 0 0 4.44c-7.51,0.72 -12.39,2 -14.62,3.83 -2.25,1.84 -3.36,4.2 -3.36,7.08 0,3.99 1.83,10.23 5.51,18.7l41.37 95.32 38.36 -94.12c3.76,-9.27 5.63,-15.7 5.63,-19.3 0,-2.32 -1.15,-4.53 -3.47,-6.66 -2.32,-2.12 -6.24,-3.61 -11.75,-4.49 -0.4,-0.08 -1.08,-0.2 -2.04,-0.36l0 -4.44 50.11 0zm72.9 146.75c-11.27,8.71 -18.34,13.75 -21.22,15.11 -4.32,2 -8.91,3 -13.79,3 -7.6,0 -13.85,-2.6 -18.76,-7.79 -4.92,-5.2 -7.38,-12.03 -7.38,-20.51 0,-5.35 1.2,-9.99 3.6,-13.9 3.28,-5.44 8.97,-10.56 17.09,-15.36 8.11,-4.79 21.6,-10.62 40.46,-17.49l0 -4.32c0,-10.95 -1.74,-18.47 -5.21,-22.55 -3.48,-4.07 -8.54,-6.11 -15.17,-6.11 -5.04,0 -9.03,1.36 -11.99,4.08 -3.04,2.72 -4.56,5.83 -4.56,9.35l0.24 6.95c0,3.68 -0.94,6.51 -2.81,8.52 -1.88,2 -4.34,3 -7.38,3 -2.96,0 -5.37,-1.05 -7.25,-3.12 -1.89,-2.08 -2.82,-4.92 -2.82,-8.52 0,-6.87 3.51,-13.19 10.55,-18.94 7.03,-5.75 16.9,-8.63 29.62,-8.63 9.75,0 17.74,1.64 23.97,4.92 4.72,2.47 8.19,6.35 10.44,11.62 1.43,3.44 2.15,10.48 2.15,21.11l0 37.28c0,10.48 0.2,16.89 0.6,19.24 0.4,2.37 1.06,3.94 1.98,4.74 0.92,0.81 1.98,1.2 3.18,1.2 1.28,0 2.4,-0.27 3.35,-0.84 1.68,-1.04 4.92,-3.96 9.71,-8.75l0 6.71c-8.94,12 -17.5,17.99 -25.65,17.99 -3.92,0 -7.03,-1.36 -9.35,-4.08 -2.32,-2.72 -3.52,-7.35 -3.6,-13.91zm0 -7.79l0 -41.84c-12.07,4.79 -19.86,8.19 -23.38,10.19 -6.31,3.52 -10.83,7.19 -13.54,11.03 -2.72,3.84 -4.08,8.04 -4.08,12.59 0,5.75 1.72,10.53 5.15,14.32 3.44,3.8 7.4,5.7 11.87,5.7 6.08,0 14.07,-4 23.98,-11.99zm80.6 -89.44l0 24.69c9.2,-16.46 18.63,-24.69 28.3,-24.69 4.4,0 8.03,1.33 10.91,4.01 2.88,2.68 4.32,5.78 4.32,9.3 0,3.11 -1.04,5.75 -3.12,7.9 -2.07,2.16 -4.56,3.24 -7.44,3.24 -2.79,0 -5.93,-1.38 -9.4,-4.14 -3.48,-2.75 -6.06,-4.13 -7.74,-4.13 -1.43,0 -2.99,0.8 -4.67,2.4 -3.6,3.28 -7.32,8.68 -11.16,16.19l0 52.63c0,6.08 0.76,10.67 2.28,13.79 1.05,2.16 2.88,3.96 5.52,5.4 2.64,1.44 6.43,2.16 11.39,2.16l0 4.31 -56.23 0 0 -4.31c5.6,0 9.75,-0.88 12.47,-2.64 2,-1.29 3.39,-3.32 4.2,-6.12 0.39,-1.35 0.6,-5.23 0.6,-11.63l0 -42.56c0,-12.79 -0.27,-20.41 -0.78,-22.85 -0.52,-2.43 -1.48,-4.21 -2.88,-5.33 -1.41,-1.12 -3.14,-1.68 -5.22,-1.68 -2.48,0 -5.28,0.6 -8.39,1.8l-1.2 -4.31 33.21 -13.43 5.03 0zm83.19 73.02c-6.71,-3.28 -11.87,-7.86 -15.46,-13.74 -3.6,-5.87 -5.4,-12.36 -5.4,-19.47 0,-10.87 4.09,-20.22 12.29,-28.06 8.19,-7.84 18.68,-11.75 31.47,-11.75 10.47,0 19.54,2.55 27.22,7.67l23.25 0c3.44,0 5.43,0.1 6,0.3 0.56,0.2 0.96,0.54 1.2,1.02 0.48,0.72 0.72,2 0.72,3.84 0,2.08 -0.21,3.51 -0.6,4.31 -0.24,0.4 -0.66,0.72 -1.26,0.96 -0.6,0.24 -2.62,0.36 -6.06,0.36l-14.26 0c4.48,5.75 6.71,13.11 6.71,22.07 0,10.23 -3.91,18.98 -11.74,26.25 -7.84,7.27 -18.35,10.91 -31.54,10.91 -5.44,0 -10.99,-0.8 -16.67,-2.4 -3.51,3.04 -5.89,5.7 -7.13,7.97 -1.24,2.28 -1.86,4.22 -1.86,5.82 0,1.36 0.66,2.68 1.98,3.95 1.32,1.29 3.9,2.2 7.73,2.76 2.24,0.33 7.83,0.6 16.79,0.84 16.46,0.4 27.13,0.96 32.01,1.68 7.43,1.05 13.37,3.8 17.8,8.28 4.44,4.47 6.66,9.99 6.66,16.54 0,9.03 -4.24,17.51 -12.71,25.42 -12.47,11.67 -28.74,17.51 -48.8,17.51 -15.43,0 -28.46,-3.48 -39.08,-10.44 -6,-3.99 -9,-8.15 -9,-12.47 0,-1.91 0.45,-3.83 1.32,-5.75 1.36,-2.96 4.16,-7.07 8.4,-12.35 0.56,-0.72 4.63,-5.04 12.23,-12.95 -4.16,-2.48 -7.1,-4.7 -8.81,-6.65 -1.72,-1.96 -2.58,-4.18 -2.58,-6.66 0,-2.79 1.14,-6.07 3.42,-9.83 2.27,-3.76 7.53,-9.07 15.76,-15.94zm20.86 -67.26c-5.92,0 -10.87,2.35 -14.87,7.07 -3.99,4.72 -5.99,11.95 -5.99,21.7 0,12.63 2.72,22.42 8.15,29.37 4.16,5.28 9.43,7.92 15.83,7.92 6.07,0 11.07,-2.28 14.98,-6.84 3.92,-4.56 5.88,-11.71 5.88,-21.46 0,-12.71 -2.76,-22.66 -8.28,-29.85 -4.07,-5.27 -9.3,-7.91 -15.7,-7.91zm-22.06 107.3c-3.76,4.07 -6.6,7.88 -8.51,11.39 -1.92,3.52 -2.88,6.75 -2.88,9.72 0,3.83 2.32,7.19 6.95,10.06 8,4.96 19.55,7.43 34.65,7.43 14.39,0 25.01,-2.53 31.84,-7.61 6.83,-5.08 10.24,-10.49 10.24,-16.24 0,-4.16 -2.04,-7.11 -6.11,-8.88 -4.15,-1.75 -12.39,-2.79 -24.7,-3.11 -17.98,-0.48 -31.81,-1.4 -41.48,-2.76zm156.83 -15.83c-11.27,8.71 -18.34,13.75 -21.22,15.11 -4.32,2 -8.91,3 -13.79,3 -7.6,0 -13.85,-2.6 -18.76,-7.79 -4.92,-5.2 -7.38,-12.03 -7.38,-20.51 0,-5.35 1.2,-9.99 3.6,-13.9 3.28,-5.44 8.97,-10.56 17.09,-15.36 8.11,-4.79 21.6,-10.62 40.46,-17.49l0 -4.32c0,-10.95 -1.74,-18.47 -5.21,-22.55 -3.48,-4.07 -8.54,-6.11 -15.17,-6.11 -5.04,0 -9.03,1.36 -11.99,4.08 -3.04,2.72 -4.56,5.83 -4.56,9.35l0.24 6.95c0,3.68 -0.94,6.51 -2.81,8.52 -1.88,2 -4.34,3 -7.38,3 -2.96,0 -5.37,-1.05 -7.25,-3.12 -1.89,-2.08 -2.82,-4.92 -2.82,-8.52 0,-6.87 3.51,-13.19 10.55,-18.94 7.03,-5.75 16.9,-8.63 29.62,-8.63 9.75,0 17.74,1.64 23.97,4.92 4.72,2.47 8.19,6.35 10.44,11.62 1.43,3.44 2.15,10.48 2.15,21.11l0 37.28c0,10.48 0.2,16.89 0.6,19.24 0.4,2.37 1.06,3.94 1.98,4.74 0.92,0.81 1.98,1.2 3.18,1.2 1.28,0 2.4,-0.27 3.35,-0.84 1.68,-1.04 4.92,-3.96 9.71,-8.75l0 6.71c-8.94,12 -17.5,17.99 -25.65,17.99 -3.92,0 -7.03,-1.36 -9.35,-4.08 -2.32,-2.72 -3.52,-7.35 -3.6,-13.91zm0 -7.79l0 -41.84c-12.07,4.79 -19.86,8.19 -23.38,10.19 -6.31,3.52 -10.83,7.19 -13.54,11.03 -2.72,3.84 -4.08,8.04 -4.08,12.59 0,5.75 1.72,10.53 5.15,14.32 3.44,3.8 7.4,5.7 11.87,5.7 6.08,0 14.07,-4 23.98,-11.99zm117.73 -89.44l0 37.41 -3.96 0c-3.03,-11.76 -6.93,-19.75 -11.68,-23.99 -4.76,-4.24 -10.82,-6.35 -18.17,-6.35 -5.59,0 -10.11,1.48 -13.54,4.43 -3.44,2.96 -5.16,6.24 -5.16,9.84 0,4.48 1.27,8.31 3.83,11.51 2.48,3.27 7.52,6.75 15.11,10.43l17.51 8.51c16.22,7.91 24.34,18.35 24.34,31.3 0,9.99 -3.78,18.04 -11.34,24.16 -7.55,6.11 -16,9.17 -25.35,9.17 -6.72,0 -14.39,-1.2 -23.02,-3.6 -2.64,-0.8 -4.8,-1.2 -6.47,-1.2 -1.84,0 -3.28,1.04 -4.32,3.12l-3.96 0 0 -39.21 3.96 0c2.24,11.19 6.51,19.62 12.83,25.3 6.31,5.67 13.38,8.51 21.22,8.51 5.51,0 10.01,-1.62 13.49,-4.85 3.47,-3.24 5.21,-7.14 5.21,-11.7 0,-5.51 -1.93,-10.14 -5.81,-13.9 -3.88,-3.76 -11.62,-8.51 -23.21,-14.27 -11.58,-5.75 -19.18,-10.95 -22.77,-15.58 -3.6,-4.56 -5.4,-10.31 -5.4,-17.27 0,-9.03 3.1,-16.59 9.3,-22.66 6.18,-6.08 14.2,-9.11 24.03,-9.11 4.32,0 9.55,0.92 15.71,2.76 4.07,1.2 6.79,1.8 8.15,1.8 1.28,0 2.28,-0.28 3,-0.84 0.71,-0.57 1.55,-1.8 2.51,-3.72l3.96 0zm193.58 -53.23l0 56.23 -4.44 0c-1.43,-10.8 -4.01,-19.38 -7.72,-25.78 -3.72,-6.4 -9.02,-11.48 -15.89,-15.23 -6.88,-3.76 -13.99,-5.64 -21.34,-5.64 -8.32,0 -15.19,2.54 -20.63,7.62 -5.43,5.07 -8.15,10.86 -8.15,17.33 0,4.96 1.72,9.47 5.15,13.54 4.96,6 16.75,13.99 35.37,23.98 15.19,8.15 25.56,14.41 31.12,18.77 5.56,4.35 9.83,9.48 12.83,15.4 2.99,5.92 4.49,12.11 4.49,18.59 0,12.3 -4.78,22.92 -14.33,31.83 -9.54,8.91 -21.84,13.37 -36.87,13.37 -4.71,0 -9.15,-0.36 -13.3,-1.08 -2.48,-0.4 -7.61,-1.86 -15.41,-4.38 -7.79,-2.51 -12.72,-3.77 -14.8,-3.77 -2,0 -3.58,0.6 -4.74,1.79 -1.16,1.2 -2.02,3.68 -2.58,7.44l-4.43 0 0 -55.76 4.43 0c2.08,11.67 4.88,20.4 8.4,26.2 3.52,5.8 8.89,10.61 16.12,14.45 7.23,3.84 15.17,5.76 23.8,5.76 9.99,0 17.88,-2.64 23.68,-7.92 5.8,-5.27 8.69,-11.51 8.69,-18.7 0,-4 -1.09,-8.03 -3.29,-12.11 -2.2,-4.08 -5.62,-7.87 -10.25,-11.39 -3.12,-2.4 -11.64,-7.5 -25.54,-15.29 -13.91,-7.79 -23.81,-14 -29.68,-18.65 -5.87,-4.63 -10.33,-9.75 -13.36,-15.34 -3.04,-5.6 -4.56,-11.75 -4.56,-18.46 0,-11.67 4.47,-21.72 13.43,-30.16 8.95,-8.43 20.34,-12.64 34.17,-12.64 8.63,0 17.78,2.11 27.45,6.35 4.48,2 7.63,3 9.47,3 2.08,0 3.78,-0.62 5.1,-1.86 1.31,-1.24 2.37,-3.73 3.17,-7.49l4.44 0zm92.8 -4.2l-58.87 173.85 -9.59 0 58.87 -173.85 9.59 0zm-3.84 7.91l44.12 0 99.39 121.94 0 -93.76c0,-9.99 -1.11,-16.22 -3.35,-18.71 -2.96,-3.35 -7.63,-5.03 -14.02,-5.03l-5.64 0 0 -4.44 56.59 0 0 4.44 -5.76 0c-6.88,0 -11.75,2.08 -14.62,6.23 -1.77,2.56 -2.64,8.4 -2.64,17.51l0 137.04 -4.32 0 -107.19 -130.93 0 100.11c0,10 1.08,16.23 3.24,18.71 3.04,3.36 7.71,5.04 14.03,5.04l5.76 0 0 4.43 -56.6 0 0 -4.43 5.64 0c6.96,0 11.87,-2.08 14.75,-6.24 1.76,-2.56 2.64,-8.4 2.64,-17.51l0 -113.05c-4.72,-5.52 -8.3,-9.15 -10.73,-10.92 -2.44,-1.76 -6.02,-3.39 -10.74,-4.91 -2.31,-0.72 -5.83,-1.08 -10.55,-1.08l0 -4.44z"/>
   <path class="fil0" d="M1606.17 727.39c11.28,2.4 19.71,6.24 25.3,11.51 7.75,7.36 11.63,16.35 11.63,26.98 0,8.07 -2.56,15.81 -7.68,23.19 -5.11,7.4 -12.12,12.79 -21.03,16.19 -8.92,3.4 -22.53,5.1 -40.83,5.1l-76.73 0 0 -4.43 6.11 0c6.8,0 11.67,-2.16 14.63,-6.48 1.84,-2.8 2.76,-8.76 2.76,-17.87l0 -105.02c0,-10.07 -1.16,-16.43 -3.48,-19.07 -3.11,-3.51 -7.75,-5.27 -13.91,-5.27l-6.11 0 0 -4.44 70.25 0c13.11,0 23.63,0.96 31.54,2.88 11.99,2.87 21.14,7.97 27.45,15.29 6.32,7.31 9.47,15.72 9.47,25.23 0,8.16 -2.47,15.45 -7.43,21.88 -4.96,6.44 -12.27,11.21 -21.94,14.33zm-62.82 -6.47c2.96,0.56 6.33,0.98 10.13,1.25 3.79,0.28 7.97,0.42 12.52,0.42 11.67,0 20.45,-1.26 26.32,-3.78 5.87,-2.51 10.37,-6.36 13.49,-11.56 3.12,-5.2 4.68,-10.87 4.68,-17.03 0,-9.51 -3.88,-17.62 -11.63,-24.33 -7.75,-6.72 -19.06,-10.08 -33.94,-10.08 -7.98,0 -15.18,0.88 -21.57,2.64l0 62.47zm0 77.69c9.27,2.16 18.42,3.24 27.45,3.24 14.47,0 25.5,-3.26 33.09,-9.78 7.6,-6.51 11.4,-14.56 11.4,-24.15 0,-6.32 -1.72,-12.39 -5.16,-18.23 -3.44,-5.83 -9.03,-10.43 -16.78,-13.79 -7.76,-3.35 -17.35,-5.03 -28.78,-5.03 -4.96,0 -9.19,0.08 -12.71,0.24 -3.52,0.15 -6.35,0.44 -8.51,0.84l0 66.66zm183.08 -4.08c-11.27,8.71 -18.34,13.75 -21.22,15.11 -4.32,2 -8.91,3 -13.79,3 -7.6,0 -13.85,-2.6 -18.76,-7.79 -4.92,-5.2 -7.38,-12.03 -7.38,-20.51 0,-5.35 1.2,-9.99 3.6,-13.9 3.28,-5.44 8.97,-10.56 17.09,-15.36 8.11,-4.79 21.6,-10.62 40.46,-17.49l0 -4.32c0,-10.95 -1.74,-18.47 -5.21,-22.55 -3.48,-4.07 -8.54,-6.11 -15.17,-6.11 -5.04,0 -9.03,1.36 -11.99,4.08 -3.04,2.72 -4.56,5.83 -4.56,9.35l0.24 6.95c0,3.68 -0.94,6.51 -2.81,8.52 -1.88,2 -4.34,3 -7.38,3 -2.96,0 -5.37,-1.05 -7.25,-3.12 -1.89,-2.08 -2.82,-4.92 -2.82,-8.52 0,-6.87 3.51,-13.19 10.55,-18.94 7.03,-5.75 16.9,-8.63 29.62,-8.63 9.75,0 17.74,1.64 23.97,4.92 4.72,2.47 8.19,6.35 10.44,11.62 1.43,3.44 2.15,10.48 2.15,21.11l0 37.28c0,10.48 0.2,16.89 0.6,19.24 0.4,2.37 1.06,3.94 1.98,4.74 0.92,0.81 1.98,1.2 3.18,1.2 1.28,0 2.4,-0.27 3.35,-0.84 1.68,-1.04 4.92,-3.96 9.71,-8.75l0 6.71c-8.94,12 -17.5,17.99 -25.65,17.99 -3.92,0 -7.03,-1.36 -9.35,-4.08 -2.32,-2.72 -3.52,-7.35 -3.6,-13.91zm0 -7.79l0 -41.84c-12.07,4.79 -19.86,8.19 -23.38,10.19 -6.31,3.52 -10.83,7.19 -13.54,11.03 -2.72,3.84 -4.08,8.04 -4.08,12.59 0,5.75 1.72,10.53 5.15,14.32 3.44,3.8 7.4,5.7 11.87,5.7 6.08,0 14.07,-4 23.98,-11.99zm76.41 -146.87c3.35,0 6.21,1.18 8.57,3.53 2.36,2.36 3.54,5.22 3.54,8.58 0,3.35 -1.18,6.23 -3.54,8.63 -2.36,2.4 -5.22,3.6 -8.57,3.6 -3.36,0 -6.24,-1.2 -8.63,-3.6 -2.4,-2.4 -3.6,-5.28 -3.6,-8.63 0,-3.36 1.18,-6.22 3.54,-8.58 2.35,-2.35 5.25,-3.53 8.69,-3.53zm9.95 57.43l0 88.24c0,6.88 0.51,11.45 1.5,13.73 1,2.28 2.48,3.98 4.44,5.1 1.95,1.11 5.53,1.68 10.73,1.68l0 4.31 -53.36 0 0 -4.31c5.36,0 8.96,-0.52 10.8,-1.56 1.83,-1.05 3.29,-2.76 4.37,-5.16 1.08,-2.4 1.62,-6.99 1.62,-13.79l0 -42.32c0,-11.91 -0.36,-19.62 -1.08,-23.14 -0.56,-2.56 -1.44,-4.34 -2.63,-5.34 -1.2,-1 -2.85,-1.5 -4.92,-1.5 -2.25,0 -4.96,0.6 -8.16,1.8l-1.68 -4.31 33.09 -13.43 5.28 0zm62.46 0l0 24.69c9.2,-16.46 18.63,-24.69 28.3,-24.69 4.4,0 8.03,1.33 10.91,4.01 2.88,2.68 4.32,5.78 4.32,9.3 0,3.11 -1.04,5.75 -3.12,7.9 -2.07,2.16 -4.56,3.24 -7.44,3.24 -2.79,0 -5.93,-1.38 -9.4,-4.14 -3.48,-2.75 -6.06,-4.13 -7.74,-4.13 -1.43,0 -2.99,0.8 -4.67,2.4 -3.6,3.28 -7.32,8.68 -11.16,16.19l0 52.63c0,6.08 0.76,10.67 2.28,13.79 1.05,2.16 2.88,3.96 5.52,5.4 2.64,1.44 6.43,2.16 11.39,2.16l0 4.31 -56.23 0 0 -4.31c5.6,0 9.75,-0.88 12.47,-2.64 2,-1.29 3.39,-3.32 4.2,-6.12 0.39,-1.35 0.6,-5.23 0.6,-11.63l0 -42.56c0,-12.79 -0.27,-20.41 -0.78,-22.85 -0.52,-2.43 -1.48,-4.21 -2.88,-5.33 -1.41,-1.12 -3.14,-1.68 -5.22,-1.68 -2.48,0 -5.28,0.6 -8.39,1.8l-1.2 -4.31 33.21 -13.43 5.03 0zm81.77 0l0 24.69c9.2,-16.46 18.63,-24.69 28.3,-24.69 4.4,0 8.03,1.33 10.91,4.01 2.88,2.68 4.32,5.78 4.32,9.3 0,3.11 -1.04,5.75 -3.12,7.9 -2.07,2.16 -4.56,3.24 -7.44,3.24 -2.79,0 -5.93,-1.38 -9.4,-4.14 -3.48,-2.75 -6.06,-4.13 -7.74,-4.13 -1.43,0 -2.99,0.8 -4.67,2.4 -3.6,3.28 -7.32,8.68 -11.16,16.19l0 52.63c0,6.08 0.76,10.67 2.28,13.79 1.05,2.16 2.88,3.96 5.52,5.4 2.64,1.44 6.43,2.16 11.39,2.16l0 4.31 -56.23 0 0 -4.31c5.6,0 9.75,-0.88 12.47,-2.64 2,-1.29 3.39,-3.32 4.2,-6.12 0.39,-1.35 0.6,-5.23 0.6,-11.63l0 -42.56c0,-12.79 -0.27,-20.41 -0.78,-22.85 -0.52,-2.43 -1.48,-4.21 -2.88,-5.33 -1.41,-1.12 -3.14,-1.68 -5.22,-1.68 -2.48,0 -5.28,0.6 -8.39,1.8l-1.2 -4.31 33.21 -13.43 5.03 0zm100.17 0c16.63,0 29.97,6.31 40.04,18.94 8.56,10.79 12.83,23.18 12.83,37.17 0,9.83 -2.35,19.78 -7.07,29.85 -4.72,10.07 -11.21,17.66 -19.48,22.78 -8.28,5.12 -17.49,7.68 -27.64,7.68 -16.55,0 -29.69,-6.59 -39.44,-19.79 -8.24,-11.1 -12.36,-23.58 -12.36,-37.41 0,-10.07 2.5,-20.07 7.5,-30.03 4.99,-9.95 11.57,-17.3 19.72,-22.06 8.15,-4.76 16.79,-7.13 25.9,-7.13zm-3.72 7.79c-4.24,0 -8.49,1.26 -12.77,3.78 -4.28,2.52 -7.74,6.94 -10.37,13.24 -2.64,6.32 -3.96,14.43 -3.96,24.35 0,15.98 3.18,29.77 9.53,41.36 6.36,11.59 14.73,17.39 25.12,17.39 7.76,0 14.15,-3.2 19.19,-9.6 5.03,-6.39 7.55,-17.38 7.55,-32.97 0,-19.5 -4.19,-34.85 -12.59,-46.04 -5.67,-7.67 -12.9,-11.51 -21.7,-11.51zm99.76 -7.91c3.68,0 6.81,1.29 9.41,3.89 2.6,2.6 3.9,5.74 3.9,9.42 0,3.67 -1.3,6.81 -3.9,9.4 -2.6,2.61 -5.73,3.9 -9.41,3.9 -3.67,0 -6.81,-1.29 -9.41,-3.9 -2.6,-2.59 -3.9,-5.73 -3.9,-9.4 0,-3.68 1.3,-6.82 3.9,-9.42 2.6,-2.6 5.74,-3.89 9.41,-3.89zm-0.24 89.8c3.76,0 6.93,1.32 9.53,3.95 2.6,2.64 3.9,5.8 3.9,9.48 0,3.68 -1.32,6.81 -3.96,9.41 -2.64,2.6 -5.79,3.9 -9.47,3.9 -3.67,0 -6.81,-1.3 -9.4,-3.9 -2.61,-2.6 -3.9,-5.73 -3.9,-9.41 0,-3.68 1.29,-6.84 3.9,-9.48 2.59,-2.63 5.73,-3.95 9.4,-3.95zm210.24 -142.91l0 56.23 -4.44 0c-1.43,-10.8 -4.01,-19.38 -7.72,-25.78 -3.72,-6.4 -9.02,-11.48 -15.89,-15.23 -6.88,-3.76 -13.99,-5.64 -21.34,-5.64 -8.32,0 -15.19,2.54 -20.63,7.62 -5.43,5.07 -8.15,10.86 -8.15,17.33 0,4.96 1.72,9.47 5.15,13.54 4.96,6 16.75,13.99 35.37,23.98 15.19,8.15 25.56,14.41 31.12,18.77 5.56,4.35 9.83,9.48 12.83,15.4 2.99,5.92 4.49,12.11 4.49,18.59 0,12.3 -4.78,22.92 -14.33,31.83 -9.54,8.91 -21.84,13.37 -36.87,13.37 -4.71,0 -9.15,-0.36 -13.3,-1.08 -2.48,-0.4 -7.61,-1.86 -15.41,-4.38 -7.79,-2.51 -12.72,-3.77 -14.8,-3.77 -2,0 -3.58,0.6 -4.74,1.79 -1.16,1.2 -2.02,3.68 -2.58,7.44l-4.43 0 0 -55.76 4.43 0c2.08,11.67 4.88,20.4 8.4,26.2 3.52,5.8 8.89,10.61 16.12,14.45 7.23,3.84 15.17,5.76 23.8,5.76 9.99,0 17.88,-2.64 23.68,-7.92 5.8,-5.27 8.69,-11.51 8.69,-18.7 0,-4 -1.09,-8.03 -3.29,-12.11 -2.2,-4.08 -5.62,-7.87 -10.25,-11.39 -3.12,-2.4 -11.64,-7.5 -25.54,-15.29 -13.91,-7.79 -23.81,-14 -29.68,-18.65 -5.87,-4.63 -10.33,-9.75 -13.36,-15.34 -3.04,-5.6 -4.56,-11.75 -4.56,-18.46 0,-11.67 4.47,-21.72 13.43,-30.16 8.95,-8.43 20.34,-12.64 34.17,-12.64 8.63,0 17.78,2.11 27.45,6.35 4.48,2 7.63,3 9.47,3 2.08,0 3.78,-0.62 5.1,-1.86 1.31,-1.24 2.37,-3.73 3.17,-7.49l4.44 0zm92.41 150.46c-11.27,8.71 -18.34,13.75 -21.22,15.11 -4.32,2 -8.91,3 -13.79,3 -7.6,0 -13.85,-2.6 -18.76,-7.79 -4.92,-5.2 -7.38,-12.03 -7.38,-20.51 0,-5.35 1.2,-9.99 3.6,-13.9 3.28,-5.44 8.97,-10.56 17.09,-15.36 8.11,-4.79 21.6,-10.62 40.46,-17.49l0 -4.32c0,-10.95 -1.74,-18.47 -5.21,-22.55 -3.48,-4.07 -8.54,-6.11 -15.17,-6.11 -5.04,0 -9.03,1.36 -11.99,4.08 -3.04,2.72 -4.56,5.83 -4.56,9.35l0.24 6.95c0,3.68 -0.94,6.51 -2.81,8.52 -1.88,2 -4.34,3 -7.38,3 -2.96,0 -5.37,-1.05 -7.25,-3.12 -1.89,-2.08 -2.82,-4.92 -2.82,-8.52 0,-6.87 3.51,-13.19 10.55,-18.94 7.03,-5.75 16.9,-8.63 29.62,-8.63 9.75,0 17.74,1.64 23.97,4.92 4.72,2.47 8.19,6.35 10.44,11.62 1.43,3.44 2.15,10.48 2.15,21.11l0 37.28c0,10.48 0.2,16.89 0.6,19.24 0.4,2.37 1.06,3.94 1.98,4.74 0.92,0.81 1.98,1.2 3.18,1.2 1.28,0 2.4,-0.27 3.35,-0.84 1.68,-1.04 4.92,-3.96 9.71,-8.75l0 6.71c-8.94,12 -17.5,17.99 -25.65,17.99 -3.92,0 -7.03,-1.36 -9.35,-4.08 -2.32,-2.72 -3.52,-7.35 -3.6,-13.91zm0 -7.79l0 -41.84c-12.07,4.79 -19.86,8.19 -23.38,10.19 -6.31,3.52 -10.83,7.19 -13.54,11.03 -2.72,3.84 -4.08,8.04 -4.08,12.59 0,5.75 1.72,10.53 5.15,14.32 3.44,3.8 7.4,5.7 11.87,5.7 6.08,0 14.07,-4 23.98,-11.99zm-49.39 -107.9l-3.84 0c0.32,-10.96 2.59,-18.87 6.83,-23.75 4.24,-4.87 9.47,-7.31 15.7,-7.31 3.28,0 6.28,0.52 9,1.56 3.6,1.36 8.7,4.22 15.29,8.57 6.59,4.36 11.48,6.54 14.68,6.54 2.56,0 4.82,-1.08 6.78,-3.24 1.95,-2.16 3.49,-6.63 4.61,-13.43l3.72 0c0.08,7.43 -0.9,13.33 -2.93,17.69 -2.04,4.35 -4.92,7.74 -8.64,10.18 -3.72,2.44 -7.45,3.66 -11.21,3.66 -6.31,0 -14.15,-3.19 -23.5,-9.58 -5.04,-3.45 -8.43,-5.52 -10.19,-6.24 -1.76,-0.72 -3.48,-1.08 -5.16,-1.08 -3.28,0 -5.87,1.44 -7.79,4.32 -0.88,1.35 -2,5.4 -3.35,12.11zm151.58 18.46c16.63,0 29.97,6.31 40.04,18.94 8.56,10.79 12.83,23.18 12.83,37.17 0,9.83 -2.35,19.78 -7.07,29.85 -4.72,10.07 -11.21,17.66 -19.48,22.78 -8.28,5.12 -17.49,7.68 -27.64,7.68 -16.55,0 -29.69,-6.59 -39.44,-19.79 -8.24,-11.1 -12.36,-23.58 -12.36,-37.41 0,-10.07 2.5,-20.07 7.5,-30.03 4.99,-9.95 11.57,-17.3 19.72,-22.06 8.15,-4.76 16.79,-7.13 25.9,-7.13zm-3.72 7.79c-4.24,0 -8.49,1.26 -12.77,3.78 -4.28,2.52 -7.74,6.94 -10.37,13.24 -2.64,6.32 -3.96,14.43 -3.96,24.35 0,15.98 3.18,29.77 9.53,41.36 6.36,11.59 14.73,17.39 25.12,17.39 7.76,0 14.15,-3.2 19.19,-9.6 5.03,-6.39 7.55,-17.38 7.55,-32.97 0,-19.5 -4.19,-34.85 -12.59,-46.04 -5.67,-7.67 -12.9,-11.51 -21.7,-11.51zm303.28 -57.31l0 4.44c-5.75,1.04 -10.11,2.87 -13.06,5.51 -4.24,3.92 -8,9.91 -11.27,17.99l-56.71 138.36 -4.43 0 -60.91 -140.16c-3.12,-7.19 -5.32,-11.59 -6.6,-13.19 -2,-2.48 -4.45,-4.41 -7.37,-5.82 -2.91,-1.39 -6.85,-2.29 -11.81,-2.69l0 -4.44 66.42 0 0 4.44c-7.51,0.72 -12.39,2 -14.62,3.83 -2.25,1.84 -3.36,4.2 -3.36,7.08 0,3.99 1.83,10.23 5.51,18.7l41.37 95.32 38.36 -94.12c3.76,-9.27 5.63,-15.7 5.63,-19.3 0,-2.32 -1.15,-4.53 -3.47,-6.66 -2.32,-2.12 -6.24,-3.61 -11.75,-4.49 -0.4,-0.08 -1.08,-0.2 -2.04,-0.36l0 -4.44 50.11 0zm38.61 -7.91c3.35,0 6.21,1.18 8.57,3.53 2.36,2.36 3.54,5.22 3.54,8.58 0,3.35 -1.18,6.23 -3.54,8.63 -2.36,2.4 -5.22,3.6 -8.57,3.6 -3.36,0 -6.24,-1.2 -8.63,-3.6 -2.4,-2.4 -3.6,-5.28 -3.6,-8.63 0,-3.36 1.18,-6.22 3.54,-8.58 2.35,-2.35 5.25,-3.53 8.69,-3.53zm9.95 57.43l0 88.24c0,6.88 0.51,11.45 1.5,13.73 1,2.28 2.48,3.98 4.44,5.1 1.95,1.11 5.53,1.68 10.73,1.68l0 4.31 -53.36 0 0 -4.31c5.36,0 8.96,-0.52 10.8,-1.56 1.83,-1.05 3.29,-2.76 4.37,-5.16 1.08,-2.4 1.62,-6.99 1.62,-13.79l0 -42.32c0,-11.91 -0.36,-19.62 -1.08,-23.14 -0.56,-2.56 -1.44,-4.34 -2.63,-5.34 -1.2,-1 -2.85,-1.5 -4.92,-1.5 -2.25,0 -4.96,0.6 -8.16,1.8l-1.68 -4.31 33.09 -13.43 5.28 0zm123.61 71.34c-2.95,14.46 -8.74,25.59 -17.38,33.39 -8.63,7.79 -18.18,11.69 -28.65,11.69 -12.48,0 -23.34,-5.24 -32.61,-15.71 -9.28,-10.47 -13.92,-24.62 -13.92,-42.45 0,-17.25 5.14,-31.29 15.41,-42.08 10.27,-10.79 22.6,-16.18 36.99,-16.18 10.79,0 19.66,2.85 26.62,8.57 6.95,5.71 10.42,11.65 10.42,17.8 0,3.04 -0.97,5.5 -2.93,7.38 -1.96,1.88 -4.7,2.82 -8.21,2.82 -4.72,0 -8.28,-1.52 -10.68,-4.56 -1.35,-1.68 -2.25,-4.87 -2.7,-9.59 -0.44,-4.72 -2.05,-8.31 -4.85,-10.79 -2.8,-2.4 -6.67,-3.6 -11.63,-3.6 -7.99,0 -14.42,2.95 -19.3,8.87 -6.47,7.84 -9.71,18.19 -9.71,31.06 0,13.1 3.22,24.67 9.65,34.7 6.43,10.04 15.12,15.05 26.08,15.05 7.83,0 14.86,-2.67 21.1,-8.03 4.39,-3.68 8.67,-10.36 12.83,-20.02l3.47 1.68zm35.89 -26.74c-0.08,16.3 3.88,29.09 11.87,38.37 7.99,9.27 17.38,13.9 28.17,13.9 7.19,0 13.45,-1.98 18.77,-5.94 5.31,-3.95 9.77,-10.72 13.36,-20.31l3.72 2.4c-1.68,10.95 -6.55,20.91 -14.62,29.91 -8.08,8.99 -18.19,13.49 -30.34,13.49 -13.19,0 -24.47,-5.14 -33.86,-15.41 -9.4,-10.27 -14.1,-24.08 -14.1,-41.43 0,-18.78 4.82,-33.42 14.46,-43.94 9.63,-10.51 21.72,-15.76 36.26,-15.76 12.31,0 22.42,4.05 30.34,12.16 7.91,8.12 11.86,18.97 11.86,32.56l-75.89 0zm0 -6.95l50.83 0c-0.39,-7.04 -1.23,-12 -2.52,-14.87 -1.99,-4.48 -4.97,-8 -8.92,-10.56 -3.96,-2.56 -8.1,-3.83 -12.41,-3.83 -6.64,0 -12.57,2.58 -17.81,7.73 -5.23,5.16 -8.29,12.34 -9.17,21.53zm122.52 -14.39c12.87,-15.51 25.14,-23.26 36.81,-23.26 6,0 11.16,1.5 15.47,4.49 4.31,3 7.75,7.93 10.31,14.81 1.76,4.79 2.64,12.15 2.64,22.06l0 46.88c0,6.95 0.56,11.67 1.67,14.15 0.88,2 2.31,3.56 4.26,4.68 1.96,1.11 5.58,1.68 10.86,1.68l0 4.31 -54.32 0 0 -4.31 2.28 0c5.12,0 8.69,-0.78 10.73,-2.34 2.04,-1.56 3.45,-3.86 4.26,-6.9 0.32,-1.2 0.48,-4.95 0.48,-11.27l0 -44.96c0,-9.99 -1.3,-17.24 -3.9,-21.76 -2.6,-4.51 -6.97,-6.77 -13.13,-6.77 -9.51,0 -18.98,5.2 -28.42,15.58l0 57.91c0,7.43 0.45,12.03 1.32,13.79 1.12,2.31 2.67,4.02 4.62,5.1 1.96,1.08 5.94,1.62 11.93,1.62l0 4.31 -54.31 0 0 -4.31 2.39 0c5.6,0 9.38,-1.42 11.34,-4.26 1.95,-2.84 2.94,-8.25 2.94,-16.25l0 -40.76c0,-13.19 -0.3,-21.23 -0.9,-24.11 -0.6,-2.87 -1.53,-4.83 -2.76,-5.87 -1.24,-1.04 -2.9,-1.56 -4.98,-1.56 -2.24,0 -4.92,0.6 -8.03,1.8l-1.8 -4.31 33.09 -13.43 5.15 0 0 23.26zm122.66 -56.11l0 36.09 25.66 0 0 8.39 -25.66 0 0 71.22c0,7.11 1.02,11.9 3.06,14.38 2.04,2.48 4.66,3.72 7.86,3.72 2.64,0 5.19,-0.82 7.68,-2.46 2.47,-1.64 4.38,-4.05 5.74,-7.25l4.68 0c-2.8,7.83 -6.76,13.73 -11.87,17.68 -5.12,3.96 -10.39,5.94 -15.83,5.94 -3.67,0 -7.26,-1.02 -10.78,-3.06 -3.52,-2.03 -6.12,-4.95 -7.79,-8.75 -1.68,-3.8 -2.52,-9.66 -2.52,-17.57l0 -73.85 -17.39 0 0 -3.96c4.4,-1.76 8.89,-4.73 13.49,-8.93 4.59,-4.2 8.69,-9.18 12.29,-14.93 1.84,-3.04 4.39,-8.59 7.67,-16.66l3.71 0zm54.79 77.45c-0.08,16.3 3.88,29.09 11.87,38.37 7.99,9.27 17.38,13.9 28.17,13.9 7.19,0 13.45,-1.98 18.77,-5.94 5.31,-3.95 9.77,-10.72 13.36,-20.31l3.72 2.4c-1.68,10.95 -6.55,20.91 -14.62,29.91 -8.08,8.99 -18.19,13.49 -30.34,13.49 -13.19,0 -24.47,-5.14 -33.86,-15.41 -9.4,-10.27 -14.09,-24.08 -14.09,-41.43 0,-18.78 4.81,-33.42 14.45,-43.94 9.63,-10.51 21.72,-15.76 36.26,-15.76 12.31,0 22.42,4.05 30.34,12.16 7.91,8.12 11.86,18.97 11.86,32.56l-75.89 0zm0 -6.95l50.83 0c-0.39,-7.04 -1.23,-12 -2.52,-14.87 -1.99,-4.48 -4.97,-8 -8.92,-10.56 -3.96,-2.56 -8.1,-3.83 -12.41,-3.83 -6.64,0 -12.57,2.58 -17.81,7.73 -5.23,5.16 -8.29,12.34 -9.17,21.53zm271.5 21.09l-126.97 0 0 -8.75 126.97 0 0 8.75zm175.24 -28.65c11.28,2.4 19.71,6.24 25.3,11.51 7.75,7.36 11.63,16.35 11.63,26.98 0,8.07 -2.56,15.81 -7.68,23.19 -5.11,7.4 -12.12,12.79 -21.03,16.19 -8.92,3.4 -22.53,5.1 -40.83,5.1l-76.73 0 0 -4.43 6.11 0c6.8,0 11.67,-2.16 14.63,-6.48 1.84,-2.8 2.76,-8.76 2.76,-17.87l0 -105.02c0,-10.07 -1.16,-16.43 -3.48,-19.07 -3.11,-3.51 -7.75,-5.27 -13.91,-5.27l-6.11 0 0 -4.44 70.25 0c13.11,0 23.63,0.96 31.54,2.88 11.99,2.87 21.14,7.97 27.45,15.29 6.32,7.31 9.47,15.72 9.47,25.23 0,8.16 -2.47,15.45 -7.43,21.88 -4.96,6.44 -12.27,11.21 -21.94,14.33zm-62.82 -6.47c2.96,0.56 6.33,0.98 10.13,1.25 3.79,0.28 7.97,0.42 12.52,0.42 11.67,0 20.45,-1.26 26.32,-3.78 5.87,-2.51 10.37,-6.36 13.49,-11.56 3.12,-5.2 4.68,-10.87 4.68,-17.03 0,-9.51 -3.88,-17.62 -11.63,-24.33 -7.75,-6.72 -19.06,-10.08 -33.94,-10.08 -7.98,0 -15.18,0.88 -21.57,2.64l0 62.47zm0 77.69c9.27,2.16 18.42,3.24 27.45,3.24 14.47,0 25.5,-3.26 33.09,-9.78 7.6,-6.51 11.4,-14.56 11.4,-24.15 0,-6.32 -1.72,-12.39 -5.16,-18.23 -3.44,-5.83 -9.03,-10.43 -16.78,-13.79 -7.76,-3.35 -17.35,-5.03 -28.78,-5.03 -4.96,0 -9.19,0.08 -12.71,0.24 -3.52,0.15 -6.35,0.44 -8.51,0.84l0 66.66zm174.57 -101.31c16.63,0 29.97,6.31 40.04,18.94 8.56,10.79 12.83,23.18 12.83,37.17 0,9.83 -2.35,19.78 -7.07,29.85 -4.72,10.07 -11.21,17.66 -19.48,22.78 -8.28,5.12 -17.49,7.68 -27.64,7.68 -16.55,0 -29.69,-6.59 -39.44,-19.79 -8.24,-11.1 -12.36,-23.58 -12.36,-37.41 0,-10.07 2.5,-20.07 7.5,-30.03 4.99,-9.95 11.57,-17.3 19.72,-22.06 8.15,-4.76 16.79,-7.13 25.9,-7.13zm-3.72 7.79c-4.24,0 -8.49,1.26 -12.77,3.78 -4.28,2.52 -7.74,6.94 -10.37,13.24 -2.64,6.32 -3.96,14.43 -3.96,24.35 0,15.98 3.18,29.77 9.53,41.36 6.36,11.59 14.73,17.39 25.12,17.39 7.76,0 14.15,-3.2 19.19,-9.6 5.03,-6.39 7.55,-17.38 7.55,-32.97 0,-19.5 -4.19,-34.85 -12.59,-46.04 -5.67,-7.67 -12.9,-11.51 -21.7,-11.51zm135.01 89.44c-11.27,8.71 -18.34,13.75 -21.22,15.11 -4.32,2 -8.91,3 -13.79,3 -7.6,0 -13.85,-2.6 -18.76,-7.79 -4.92,-5.2 -7.38,-12.03 -7.38,-20.51 0,-5.35 1.2,-9.99 3.6,-13.9 3.28,-5.44 8.97,-10.56 17.09,-15.36 8.11,-4.79 21.6,-10.62 40.46,-17.49l0 -4.32c0,-10.95 -1.74,-18.47 -5.21,-22.55 -3.48,-4.07 -8.54,-6.11 -15.17,-6.11 -5.04,0 -9.03,1.36 -11.99,4.08 -3.04,2.72 -4.56,5.83 -4.56,9.35l0.24 6.95c0,3.68 -0.94,6.51 -2.81,8.52 -1.88,2 -4.34,3 -7.38,3 -2.96,0 -5.37,-1.05 -7.25,-3.12 -1.89,-2.08 -2.82,-4.92 -2.82,-8.52 0,-6.87 3.51,-13.19 10.55,-18.94 7.03,-5.75 16.9,-8.63 29.62,-8.63 9.75,0 17.74,1.64 23.97,4.92 4.72,2.47 8.19,6.35 10.44,11.62 1.43,3.44 2.15,10.48 2.15,21.11l0 37.28c0,10.48 0.2,16.89 0.6,19.24 0.4,2.37 1.06,3.94 1.98,4.74 0.92,0.81 1.98,1.2 3.18,1.2 1.28,0 2.4,-0.27 3.35,-0.84 1.68,-1.04 4.92,-3.96 9.71,-8.75l0 6.71c-8.94,12 -17.5,17.99 -25.65,17.99 -3.92,0 -7.03,-1.36 -9.35,-4.08 -2.32,-2.72 -3.52,-7.35 -3.6,-13.91zm0 -7.79l0 -41.84c-12.07,4.79 -19.86,8.19 -23.38,10.19 -6.31,3.52 -10.83,7.19 -13.54,11.03 -2.72,3.84 -4.08,8.04 -4.08,12.59 0,5.75 1.72,10.53 5.15,14.32 3.44,3.8 7.4,5.7 11.87,5.7 6.08,0 14.07,-4 23.98,-11.99zm278.97 -138.96l0 4.44c-5.75,1.04 -10.11,2.87 -13.06,5.51 -4.24,3.92 -8,9.91 -11.27,17.99l-56.71 138.36 -4.43 0 -60.91 -140.16c-3.12,-7.19 -5.32,-11.59 -6.6,-13.19 -2,-2.48 -4.45,-4.41 -7.37,-5.82 -2.91,-1.39 -6.85,-2.29 -11.81,-2.69l0 -4.44 66.42 0 0 4.44c-7.51,0.72 -12.39,2 -14.62,3.83 -2.25,1.84 -3.36,4.2 -3.36,7.08 0,3.99 1.83,10.23 5.51,18.7l41.37 95.32 38.36 -94.12c3.76,-9.27 5.63,-15.7 5.63,-19.3 0,-2.32 -1.15,-4.53 -3.47,-6.66 -2.32,-2.12 -6.24,-3.61 -11.75,-4.49 -0.4,-0.08 -1.08,-0.2 -2.04,-0.36l0 -4.44 50.11 0zm38.61 -7.91c3.35,0 6.21,1.18 8.57,3.53 2.36,2.36 3.54,5.22 3.54,8.58 0,3.35 -1.18,6.23 -3.54,8.63 -2.36,2.4 -5.22,3.6 -8.57,3.6 -3.36,0 -6.24,-1.2 -8.63,-3.6 -2.4,-2.4 -3.6,-5.28 -3.6,-8.63 0,-3.36 1.18,-6.22 3.54,-8.58 2.35,-2.35 5.25,-3.53 8.69,-3.53zm9.95 57.43l0 88.24c0,6.88 0.51,11.45 1.5,13.73 1,2.28 2.48,3.98 4.44,5.1 1.95,1.11 5.53,1.68 10.73,1.68l0 4.31 -53.36 0 0 -4.31c5.36,0 8.96,-0.52 10.8,-1.56 1.83,-1.05 3.29,-2.76 4.37,-5.16 1.08,-2.4 1.62,-6.99 1.62,-13.79l0 -42.32c0,-11.91 -0.36,-19.62 -1.08,-23.14 -0.56,-2.56 -1.44,-4.34 -2.63,-5.34 -1.2,-1 -2.85,-1.5 -4.92,-1.5 -2.25,0 -4.96,0.6 -8.16,1.8l-1.68 -4.31 33.09 -13.43 5.28 0zm101.31 0l0 37.41 -3.96 0c-3.03,-11.76 -6.93,-19.75 -11.68,-23.99 -4.76,-4.24 -10.82,-6.35 -18.17,-6.35 -5.59,0 -10.11,1.48 -13.54,4.43 -3.44,2.96 -5.16,6.24 -5.16,9.84 0,4.48 1.27,8.31 3.83,11.51 2.48,3.27 7.52,6.75 15.11,10.43l17.51 8.51c16.22,7.91 24.34,18.35 24.34,31.3 0,9.99 -3.78,18.04 -11.34,24.16 -7.55,6.11 -16,9.17 -25.35,9.17 -6.72,0 -14.39,-1.2 -23.02,-3.6 -2.64,-0.8 -4.8,-1.2 -6.47,-1.2 -1.84,0 -3.28,1.04 -4.32,3.12l-3.96 0 0 -39.21 3.96 0c2.24,11.19 6.51,19.62 12.83,25.3 6.31,5.67 13.38,8.51 21.22,8.51 5.51,0 10.01,-1.62 13.49,-4.85 3.47,-3.24 5.21,-7.14 5.21,-11.7 0,-5.51 -1.93,-10.14 -5.81,-13.9 -3.88,-3.76 -11.62,-8.51 -23.21,-14.27 -11.58,-5.75 -19.18,-10.95 -22.77,-15.58 -3.6,-4.56 -5.4,-10.31 -5.4,-17.27 0,-9.03 3.1,-16.59 9.3,-22.66 6.18,-6.08 14.2,-9.11 24.03,-9.11 4.32,0 9.55,0.92 15.71,2.76 4.07,1.2 6.79,1.8 8.15,1.8 1.28,0 2.28,-0.28 3,-0.84 0.71,-0.57 1.55,-1.8 2.51,-3.72l3.96 0zm59.17 -32.85l0 36.09 25.66 0 0 8.39 -25.66 0 0 71.22c0,7.11 1.02,11.9 3.06,14.38 2.04,2.48 4.66,3.72 7.86,3.72 2.64,0 5.19,-0.82 7.68,-2.46 2.47,-1.64 4.38,-4.05 5.74,-7.25l4.68 0c-2.8,7.83 -6.76,13.73 -11.87,17.68 -5.12,3.96 -10.39,5.94 -15.83,5.94 -3.67,0 -7.26,-1.02 -10.78,-3.06 -3.52,-2.03 -6.12,-4.95 -7.79,-8.75 -1.68,-3.8 -2.52,-9.66 -2.52,-17.57l0 -73.85 -17.39 0 0 -3.96c4.4,-1.76 8.89,-4.73 13.49,-8.93 4.59,-4.2 8.69,-9.18 12.29,-14.93 1.84,-3.04 4.39,-8.59 7.67,-16.66l3.71 0zm98.56 130.08c-11.27,8.71 -18.34,13.75 -21.22,15.11 -4.32,2 -8.91,3 -13.79,3 -7.6,0 -13.85,-2.6 -18.76,-7.79 -4.92,-5.2 -7.38,-12.03 -7.38,-20.51 0,-5.35 1.2,-9.99 3.6,-13.9 3.28,-5.44 8.97,-10.56 17.09,-15.36 8.11,-4.79 21.6,-10.62 40.46,-17.49l0 -4.32c0,-10.95 -1.74,-18.47 -5.21,-22.55 -3.48,-4.07 -8.54,-6.11 -15.17,-6.11 -5.04,0 -9.03,1.36 -11.99,4.08 -3.04,2.72 -4.56,5.83 -4.56,9.35l0.24 6.95c0,3.68 -0.94,6.51 -2.81,8.52 -1.88,2 -4.34,3 -7.38,3 -2.96,0 -5.37,-1.05 -7.25,-3.12 -1.89,-2.08 -2.82,-4.92 -2.82,-8.52 0,-6.87 3.51,-13.19 10.55,-18.94 7.03,-5.75 16.9,-8.63 29.62,-8.63 9.75,0 17.74,1.64 23.97,4.92 4.72,2.47 8.19,6.35 10.44,11.62 1.43,3.44 2.15,10.48 2.15,21.11l0 37.28c0,10.48 0.2,16.89 0.6,19.24 0.4,2.37 1.06,3.94 1.98,4.74 0.92,0.81 1.98,1.2 3.18,1.2 1.28,0 2.4,-0.27 3.35,-0.84 1.68,-1.04 4.92,-3.96 9.71,-8.75l0 6.71c-8.94,12 -17.5,17.99 -25.65,17.99 -3.92,0 -7.03,-1.36 -9.35,-4.08 -2.32,-2.72 -3.52,-7.35 -3.6,-13.91zm0 -7.79l0 -41.84c-12.07,4.79 -19.86,8.19 -23.38,10.19 -6.31,3.52 -10.83,7.19 -13.54,11.03 -2.72,3.84 -4.08,8.04 -4.08,12.59 0,5.75 1.72,10.53 5.15,14.32 3.44,3.8 7.4,5.7 11.87,5.7 6.08,0 14.07,-4 23.98,-11.99zm107.9 -146.87l-58.87 173.85 -9.59 0 58.87 -173.85 9.59 0zm165.33 170.49l-43.39 0 -55.04 -76.01c-4.07,0.15 -7.39,0.24 -9.95,0.24 -1.04,0 -2.16,-0.03 -3.35,-0.06 -1.2,-0.04 -2.44,-0.1 -3.72,-0.18l0 47.23c0,10.24 1.11,16.59 3.36,19.07 3.03,3.51 7.59,5.28 13.66,5.28l6.35 0 0 4.43 -69.65 0 0 -4.43 6.11 0c6.88,0 11.79,-2.25 14.75,-6.72 1.68,-2.48 2.52,-8.35 2.52,-17.63l0 -105.02c0,-10.23 -1.12,-16.58 -3.36,-19.07 -3.11,-3.51 -7.75,-5.27 -13.91,-5.27l-6.11 0 0 -4.44 59.23 0c17.26,0 29.98,1.26 38.18,3.77 8.2,2.52 15.15,7.16 20.87,13.92 5.71,6.75 8.57,14.8 8.57,24.15 0,9.99 -3.26,18.66 -9.77,26.02 -6.52,7.36 -16.61,12.55 -30.28,15.59l33.57 46.64c7.67,10.71 14.27,17.82 19.78,21.34 5.52,3.51 12.71,5.76 21.58,6.72l0 4.43zm-115.45 -83.57c1.52,0 2.84,0.03 3.96,0.06 1.11,0.04 2.03,0.06 2.75,0.06 15.51,0 27.2,-3.36 35.08,-10.07 7.86,-6.71 11.8,-15.27 11.8,-25.66 0,-10.14 -3.18,-18.4 -9.53,-24.75 -6.35,-6.36 -14.77,-9.54 -25.24,-9.54 -4.63,0 -10.91,0.76 -18.82,2.28l0 67.62zm279.23 83.57l-43.39 0 -55.04 -76.01c-4.07,0.15 -7.39,0.24 -9.95,0.24 -1.04,0 -2.16,-0.03 -3.35,-0.06 -1.2,-0.04 -2.44,-0.1 -3.72,-0.18l0 47.23c0,10.24 1.11,16.59 3.36,19.07 3.03,3.51 7.59,5.28 13.66,5.28l6.35 0 0 4.43 -69.65 0 0 -4.43 6.11 0c6.88,0 11.79,-2.25 14.75,-6.72 1.68,-2.48 2.52,-8.35 2.52,-17.63l0 -105.02c0,-10.23 -1.12,-16.58 -3.36,-19.07 -3.11,-3.51 -7.75,-5.27 -13.91,-5.27l-6.11 0 0 -4.44 59.23 0c17.26,0 29.98,1.26 38.18,3.77 8.2,2.52 15.15,7.16 20.87,13.92 5.71,6.75 8.57,14.8 8.57,24.15 0,9.99 -3.26,18.66 -9.77,26.02 -6.52,7.36 -16.61,12.55 -30.28,15.59l33.57 46.64c7.67,10.71 14.27,17.82 19.78,21.34 5.52,3.51 12.71,5.76 21.58,6.72l0 4.43zm-115.45 -83.57c1.52,0 2.84,0.03 3.96,0.06 1.11,0.04 2.03,0.06 2.75,0.06 15.51,0 27.2,-3.36 35.08,-10.07 7.86,-6.71 11.8,-15.27 11.8,-25.66 0,-10.14 -3.18,-18.4 -9.53,-24.75 -6.35,-6.36 -14.77,-9.54 -25.24,-9.54 -4.63,0 -10.91,0.76 -18.82,2.28l0 67.62z"/>
   <path class="fil0" d="M2639.64 927.7l3.72 55.27 -3.72 0c-4.95,-16.55 -12.03,-28.46 -21.22,-35.73 -9.19,-7.27 -20.22,-10.91 -33.09,-10.91 -10.79,0 -20.54,2.74 -29.25,8.21 -8.72,5.48 -15.57,14.21 -20.57,26.19 -4.99,12 -7.49,26.9 -7.49,44.73 0,14.7 2.36,27.45 7.07,38.25 4.72,10.79 11.82,19.06 21.29,24.81 9.47,5.76 20.28,8.64 32.43,8.64 10.55,0 19.86,-2.26 27.94,-6.78 8.07,-4.52 16.94,-13.49 26.61,-26.91l3.72 2.39c-8.16,14.47 -17.67,25.06 -28.54,31.78 -10.87,6.71 -23.78,10.07 -38.72,10.07 -26.94,0 -47.81,-9.99 -62.59,-29.98 -11.03,-14.86 -16.55,-32.37 -16.55,-52.51 0,-16.23 3.64,-31.14 10.92,-44.73 7.26,-13.58 17.28,-24.11 30.03,-31.59 12.75,-7.47 26.67,-11.2 41.78,-11.2 11.75,0 23.34,2.88 34.77,8.63 3.36,1.76 5.76,2.63 7.19,2.63 2.16,0 4.04,-0.75 5.64,-2.27 2.08,-2.16 3.56,-5.16 4.43,-8.99l4.2 0zm67.27 12.58l0 64.27 35.73 0c9.27,0 15.46,-1.4 18.58,-4.2 4.16,-3.67 6.47,-10.15 6.95,-19.42l4.44 0 0 56.59 -4.44 0c-1.11,-7.91 -2.24,-12.99 -3.36,-15.23 -1.44,-2.8 -3.79,-5 -7.07,-6.59 -3.28,-1.6 -8.31,-2.4 -15.1,-2.4l-35.73 0 0 53.59c0,7.19 0.32,11.57 0.96,13.13 0.63,1.56 1.76,2.79 3.36,3.72 1.59,0.92 4.62,1.38 9.1,1.38l27.58 0c9.19,0 15.86,-0.64 20.02,-1.92 4.16,-1.29 8.16,-3.8 11.99,-7.56 4.96,-4.95 10.03,-12.42 15.23,-22.41l4.79 0 -14.02 40.76 -125.3 0 0 -4.43 5.76 0c3.84,0 7.47,-0.93 10.91,-2.76 2.56,-1.29 4.3,-3.21 5.22,-5.76 0.92,-2.56 1.38,-7.8 1.38,-15.71l0 -105.62c0,-10.31 -1.04,-16.67 -3.12,-19.07 -2.87,-3.19 -7.67,-4.79 -14.39,-4.79l-5.76 0 0 -4.44 125.3 0 1.79 35.61 -4.67 0c-1.68,-8.56 -3.54,-14.43 -5.57,-17.62 -2.04,-3.2 -5.06,-5.64 -9.06,-7.32 -3.2,-1.2 -8.83,-1.8 -16.9,-1.8l-44.6 0zm149.03 77.58l0 47.35c0,10.24 1.11,16.59 3.36,19.07 3.03,3.51 7.62,5.28 13.78,5.28l6.23 0 0 4.43 -69.65 0 0 -4.43 6.11 0c6.88,0 11.79,-2.25 14.75,-6.72 1.6,-2.48 2.4,-8.35 2.4,-17.63l0 -105.02c0,-10.23 -1.08,-16.58 -3.24,-19.07 -3.11,-3.51 -7.75,-5.27 -13.91,-5.27l-6.11 0 0 -4.44 59.58 0c14.55,0 26.03,1.5 34.42,4.49 8.39,3 15.46,8.06 21.22,15.18 5.75,7.11 8.63,15.54 8.63,25.29 0,13.27 -4.37,24.06 -13.13,32.37 -8.75,8.32 -21.12,12.48 -37.11,12.48 -3.91,0 -8.15,-0.28 -12.7,-0.84 -4.56,-0.57 -9.44,-1.41 -14.63,-2.52zm0 -6.84c4.23,0.81 7.99,1.4 11.27,1.8 3.28,0.39 6.07,0.6 8.39,0.6 8.31,0 15.48,-3.22 21.52,-9.66 6.04,-6.42 9.05,-14.76 9.05,-24.99 0,-7.03 -1.44,-13.56 -4.31,-19.6 -2.88,-6.04 -6.96,-10.55 -12.23,-13.55 -5.28,-3 -11.28,-4.5 -17.99,-4.5 -4.07,0 -9.31,0.76 -15.7,2.28l0 67.62zm260.11 -82.96l0 4.43c-10.55,1.04 -19.16,3.14 -25.83,6.29 -6.68,3.16 -13.27,7.98 -19.78,14.45 -6.52,6.47 -11.91,13.69 -16.19,21.64 -4.28,7.96 -7.86,17.41 -10.73,28.36 11.51,-7.91 23.06,-11.87 34.64,-11.87 11.12,0 20.76,4.48 28.91,13.42 8.15,8.96 12.22,20.47 12.22,34.53 0,13.59 -4.11,25.98 -12.35,37.17 -9.91,13.59 -23.02,20.39 -39.32,20.39 -11.11,0 -20.54,-3.68 -28.3,-11.03 -15.19,-14.31 -22.78,-32.85 -22.78,-55.63 0,-14.55 2.92,-28.38 8.76,-41.49 5.83,-13.1 14.16,-24.74 24.99,-34.89 10.83,-10.15 21.21,-16.98 31.11,-20.5 9.91,-3.52 19.14,-5.27 27.7,-5.27l6.95 0zm-74.57 83.92c-1.44,10.8 -2.16,19.5 -2.16,26.14 0,7.67 1.42,16 4.26,24.99 2.84,8.99 7.05,16.13 12.65,21.41 4.07,3.75 9.03,5.63 14.86,5.63 6.95,0 13.17,-3.28 18.65,-9.83 5.47,-6.55 8.21,-15.9 8.21,-28.05 0,-13.68 -2.72,-25.5 -8.15,-35.49 -5.44,-9.99 -13.15,-14.99 -23.14,-14.99 -3.04,0 -6.3,0.64 -9.77,1.91 -3.48,1.29 -8.61,4.05 -15.41,8.28zm100.24 85.37l0 -4.44c10.39,-0.16 20.07,-2.58 29.01,-7.25 8.95,-4.68 17.61,-12.85 25.96,-24.52 8.36,-11.67 14.17,-24.5 17.45,-38.49 -12.55,8.08 -23.91,12.11 -34.05,12.11 -11.43,0 -21.22,-4.42 -29.37,-13.25 -8.16,-8.83 -12.24,-20.56 -12.24,-35.18 0,-14.23 4.08,-26.91 12.23,-38.01 9.83,-13.51 22.66,-20.26 38.49,-20.26 13.35,0 24.78,5.51 34.29,16.54 11.67,13.67 17.5,30.54 17.5,50.6 0,18.06 -4.43,34.9 -13.3,50.53 -8.87,15.63 -21.23,28.59 -37.05,38.91 -12.87,8.47 -26.9,12.71 -42.08,12.71l-6.84 0zm74.34 -83.57c1.43,-10.39 2.15,-18.71 2.15,-24.94 0,-7.75 -1.32,-16.13 -3.95,-25.12 -2.64,-8.99 -6.38,-15.88 -11.22,-20.68 -4.83,-4.79 -10.32,-7.19 -16.48,-7.19 -7.12,0 -13.35,3.2 -18.71,9.59 -5.35,6.39 -8.03,15.9 -8.03,28.53 0,16.87 3.56,30.06 10.67,39.57 5.2,6.87 11.59,10.31 19.19,10.31 3.67,0 8.03,-0.88 13.06,-2.64 5.04,-1.76 9.48,-4.23 13.32,-7.43zm47.96 -51.43c4.64,-10.96 10.5,-19.41 17.57,-25.37 7.07,-5.94 15.88,-8.92 26.43,-8.92 13.03,0 23.02,4.24 29.98,12.7 5.27,6.32 7.91,13.08 7.91,20.27 0,11.83 -7.43,24.06 -22.3,36.68 9.99,3.92 17.54,9.52 22.66,16.79 5.1,7.27 7.66,15.82 7.66,25.65 0,14.07 -4.47,26.26 -13.41,36.57 -11.67,13.44 -28.58,20.15 -50.73,20.15 -10.95,0 -18.4,-1.36 -22.35,-4.08 -3.96,-2.72 -5.94,-5.63 -5.94,-8.75 0,-2.32 0.94,-4.35 2.82,-6.12 1.88,-1.76 4.14,-2.64 6.78,-2.64 1.99,0 4.03,0.33 6.11,0.96 1.36,0.4 4.44,1.86 9.23,4.38 4.79,2.52 8.12,4.02 9.95,4.5 2.96,0.87 6.12,1.32 9.48,1.32 8.15,0 15.24,-3.16 21.27,-9.48 6.04,-6.31 9.06,-13.78 9.06,-22.41 0,-6.32 -1.4,-12.48 -4.2,-18.47 -2.07,-4.48 -4.35,-7.87 -6.84,-10.19 -3.43,-3.2 -8.15,-6.09 -14.14,-8.69 -5.99,-2.6 -12.11,-3.9 -18.35,-3.9l-3.83 0 0 -3.6c6.31,-0.8 12.65,-3.08 19,-6.84 6.35,-3.75 10.97,-8.27 13.85,-13.54 2.87,-5.27 4.31,-11.07 4.31,-17.39 0,-8.22 -2.58,-14.88 -7.73,-19.95 -5.15,-5.08 -11.57,-7.62 -19.24,-7.62 -12.39,0 -22.74,6.63 -31.05,19.9l-3.96 -1.91zm119.17 51.31c0,-18.54 2.8,-34.51 8.4,-47.9 5.59,-13.39 13.02,-23.36 22.29,-29.91 7.2,-5.2 14.64,-7.79 22.31,-7.79 12.47,0 23.66,6.35 33.57,19.06 12.39,15.75 18.58,37.09 18.58,64.02 0,18.87 -2.71,34.89 -8.15,48.08 -5.44,13.19 -12.37,22.76 -20.8,28.72 -8.44,5.95 -16.57,8.93 -24.4,8.93 -15.5,0 -28.42,-9.15 -38.73,-27.46 -8.71,-15.43 -13.07,-34.01 -13.07,-55.75zm23.5 3c0,22.38 2.76,40.64 8.27,54.79 4.56,11.91 11.35,17.87 20.39,17.87 4.31,0 8.79,-1.95 13.42,-5.82 4.64,-3.88 8.16,-10.37 10.56,-19.48 3.67,-13.75 5.51,-33.14 5.51,-58.16 0,-18.54 -1.92,-34 -5.75,-46.39 -2.88,-9.2 -6.6,-15.71 -11.16,-19.55 -3.27,-2.63 -7.23,-3.95 -11.86,-3.95 -5.44,0 -10.28,2.44 -14.51,7.31 -5.76,6.64 -9.67,17.07 -11.75,31.29 -2.08,14.23 -3.12,28.26 -3.12,42.09zm102.88 -54.31c4.64,-10.96 10.5,-19.41 17.57,-25.37 7.07,-5.94 15.88,-8.92 26.43,-8.92 13.03,0 23.02,4.24 29.98,12.7 5.27,6.32 7.91,13.08 7.91,20.27 0,11.83 -7.43,24.06 -22.3,36.68 9.99,3.92 17.54,9.52 22.66,16.79 5.11,7.27 7.67,15.82 7.67,25.65 0,14.07 -4.48,26.26 -13.42,36.57 -11.67,13.44 -28.58,20.15 -50.73,20.15 -10.95,0 -18.4,-1.36 -22.35,-4.08 -3.96,-2.72 -5.94,-5.63 -5.94,-8.75 0,-2.32 0.94,-4.35 2.82,-6.12 1.88,-1.76 4.14,-2.64 6.78,-2.64 1.99,0 4.03,0.33 6.11,0.96 1.36,0.4 4.44,1.86 9.23,4.38 4.79,2.52 8.12,4.02 9.95,4.5 2.96,0.87 6.12,1.32 9.48,1.32 8.15,0 15.24,-3.16 21.27,-9.48 6.04,-6.31 9.06,-13.78 9.06,-22.41 0,-6.32 -1.4,-12.48 -4.2,-18.47 -2.07,-4.48 -4.35,-7.87 -6.84,-10.19 -3.43,-3.2 -8.15,-6.09 -14.14,-8.69 -5.99,-2.6 -12.11,-3.9 -18.35,-3.9l-3.83 0 0 -3.6c6.31,-0.8 12.65,-3.08 19,-6.84 6.35,-3.75 10.97,-8.27 13.85,-13.54 2.87,-5.27 4.31,-11.07 4.31,-17.39 0,-8.22 -2.58,-14.88 -7.73,-19.95 -5.15,-5.08 -11.57,-7.62 -19.24,-7.62 -12.39,0 -22.74,6.63 -31.05,19.9l-3.96 -1.91zm125.17 67.5l61.99 0 0 18.1 -61.99 0 0 -18.1zm77.5 -16.19c0,-18.54 2.8,-34.51 8.4,-47.9 5.59,-13.39 13.02,-23.36 22.29,-29.91 7.2,-5.2 14.64,-7.79 22.31,-7.79 12.47,0 23.66,6.35 33.57,19.06 12.39,15.75 18.58,37.09 18.58,64.02 0,18.87 -2.71,34.89 -8.15,48.08 -5.44,13.19 -12.37,22.76 -20.8,28.72 -8.44,5.95 -16.57,8.93 -24.4,8.93 -15.5,0 -28.42,-9.15 -38.73,-27.46 -8.71,-15.43 -13.07,-34.01 -13.07,-55.75zm23.5 3c0,22.38 2.76,40.64 8.27,54.79 4.56,11.91 11.35,17.87 20.39,17.87 4.31,0 8.79,-1.95 13.42,-5.82 4.64,-3.88 8.16,-10.37 10.56,-19.48 3.67,-13.75 5.51,-33.14 5.51,-58.16 0,-18.54 -1.92,-34 -5.75,-46.39 -2.88,-9.2 -6.6,-15.71 -11.16,-19.55 -3.27,-2.63 -7.23,-3.95 -11.86,-3.95 -5.44,0 -10.28,2.44 -14.51,7.31 -5.76,6.64 -9.67,17.07 -11.75,31.29 -2.08,14.23 -3.12,28.26 -3.12,42.09zm103.36 80.69l0 -4.44c10.39,-0.16 20.07,-2.58 29.01,-7.25 8.95,-4.68 17.61,-12.85 25.96,-24.52 8.36,-11.67 14.17,-24.5 17.45,-38.49 -12.55,8.08 -23.91,12.11 -34.05,12.11 -11.43,0 -21.22,-4.42 -29.37,-13.25 -8.16,-8.83 -12.24,-20.56 -12.24,-35.18 0,-14.23 4.08,-26.91 12.23,-38.01 9.83,-13.51 22.66,-20.26 38.49,-20.26 13.35,0 24.78,5.51 34.29,16.54 11.67,13.67 17.5,30.54 17.5,50.6 0,18.06 -4.43,34.9 -13.3,50.53 -8.87,15.63 -21.23,28.59 -37.05,38.91 -12.87,8.47 -26.9,12.71 -42.08,12.71l-6.84 0zm74.34 -83.57c1.43,-10.39 2.15,-18.71 2.15,-24.94 0,-7.75 -1.32,-16.13 -3.95,-25.12 -2.64,-8.99 -6.38,-15.88 -11.22,-20.68 -4.83,-4.79 -10.32,-7.19 -16.48,-7.19 -7.12,0 -13.35,3.2 -18.71,9.59 -5.35,6.39 -8.03,15.9 -8.03,28.53 0,16.87 3.56,30.06 10.67,39.57 5.2,6.87 11.59,10.31 19.19,10.31 3.67,0 8.03,-0.88 13.06,-2.64 5.04,-1.76 9.48,-4.23 13.32,-7.43zm44.36 -0.12c0,-18.54 2.8,-34.51 8.4,-47.9 5.59,-13.39 13.02,-23.36 22.29,-29.91 7.2,-5.2 14.64,-7.79 22.31,-7.79 12.47,0 23.66,6.35 33.57,19.06 12.39,15.75 18.58,37.09 18.58,64.02 0,18.87 -2.71,34.89 -8.15,48.08 -5.44,13.19 -12.37,22.76 -20.8,28.72 -8.44,5.95 -16.57,8.93 -24.4,8.93 -15.5,0 -28.42,-9.15 -38.73,-27.46 -8.71,-15.43 -13.07,-34.01 -13.07,-55.75zm23.5 3c0,22.38 2.76,40.64 8.27,54.79 4.56,11.91 11.35,17.87 20.39,17.87 4.31,0 8.79,-1.95 13.42,-5.82 4.64,-3.88 8.16,-10.37 10.56,-19.48 3.67,-13.75 5.51,-33.14 5.51,-58.16 0,-18.54 -1.92,-34 -5.75,-46.39 -2.88,-9.2 -6.6,-15.71 -11.16,-19.55 -3.27,-2.63 -7.23,-3.95 -11.86,-3.95 -5.44,0 -10.28,2.44 -14.51,7.31 -5.76,6.64 -9.67,17.07 -11.75,31.29 -2.08,14.23 -3.12,28.26 -3.12,42.09z"/>
  </g>
 </g>
</svg>
