<?xml version="1.0" encoding="UTF-8"?>
<!DOCTYPE svg PUBLIC "-//W3C//DTD SVG 1.1//EN" "http://www.w3.org/Graphics/SVG/1.1/DTD/svg11.dtd">
<!-- Creator: CorelDRAW 2018 (64 Bit Versão de avaliação) -->
<svg xmlns="http://www.w3.org/2000/svg" xml:space="preserve" width="50.7998mm" height="37.931mm" version="1.1" style="shape-rendering:geometricPrecision; text-rendering:geometricPrecision; image-rendering:optimizeQuality; fill-rule:evenodd; clip-rule:evenodd"
viewBox="0 0 5079.98 3793.1"
 xmlns:xlink="http://www.w3.org/1999/xlink">
 <defs>
  <style type="text/css">
   <![CDATA[
    .fil1 {fill:none}
    .fil2 {fill:#FEFEFE}
    .fil5 {fill:#00A5FF}
    .fil7 {fill:#02A5FD}
    .fil6 {fill:#96C049}
    .fil3 {fill:#F7C301}
    .fil4 {fill:#FEFEFE}
    .fil0 {fill:url(#id0)}
   ]]>
  </style>
  <radialGradient id="id0" gradientUnits="userSpaceOnUse" gradientTransform="matrix(1 -1.60002E-05 3.14961E-05 0.898013 0 193)" cx="2539.99" cy="1896.55" r="2455.33" fx="2539.99" fy="1896.55">
   <stop offset="0" style="stop-opacity:1; stop-color:#E31E25"/>
   <stop offset="1" style="stop-opacity:1; stop-color:#892723"/>
  </radialGradient>
 </defs>
 <g id="Camada_x0020_1">
  <metadata id="CorelCorpID_0Corel-Layer"/>
  <rect class="fil0" x="-0.01" y="0.02" width="5080" height="3793.06"/>
  <g id="_1407951761056">
   <g id="_1804974834192">
    <rect class="fil1" x="1462.14" y="818.7" width="2155.7" height="2155.7"/>
    <g>
     <path class="fil2" d="M2315.33 2060c-115.21,9.49 -237.22,52.95 -341.29,95.55 -19.21,7.87 -88.28,38.62 -98.11,48.29l125.91 -36.75c43.48,-11.07 89.89,-20.51 136.15,-28.1 97.9,-16.04 199.64,-24.23 302.21,-23.67 168.67,0.92 334.24,28.71 491.46,80.88 17.21,5.71 45.02,17.86 60.32,20.8 -33.64,-30.71 -113.98,-69.93 -158.3,-89.14 -167.57,-72.66 -338.21,-82.36 -518.35,-67.86z"/>
     <path class="fil3" d="M2297.28 2086.17c-9.16,7.5 -18.62,15.47 -27.18,23.23 36.27,1.24 78.43,-16.02 106,-35.72 30.5,-21.79 54.08,-51.59 75.05,-82.44 10.57,-15.57 31.15,-57.58 45.01,-62.28 26.01,-8.84 50.24,61.38 65.43,92.02 19.57,39.46 43.44,85.78 108.9,107.9 -21.06,-39.71 -56.03,-113.55 -69,-194.04 -15.68,-97.44 4.65,-200.88 63.85,-275.26 14.56,-18.29 26.18,-29.65 41.73,-45.02 5.4,-5.34 46.13,-35.32 47.5,-37.73 -45.11,-3.33 -110.69,43.13 -134.06,65.35 -9.27,8.81 -16.91,15.03 -26.1,24.15 -28.21,27.98 -51.83,63.57 -93.91,22.82 -31.03,-30.06 -67.5,-129.89 -114.23,-187.08 -10.25,-12.54 -38.27,-42.38 -55.12,-47.29 4.92,10.92 13.56,24.47 19.37,34.9 47.11,84.55 87.33,182.68 103.57,280.32 19.07,114.69 -41.79,192.29 -106.58,268.24 -1.77,2.08 -47.36,45.57 -50.23,47.93z"/>
     <path class="fil4" d="M2784.63 2685.95c5.6,-8.33 5.88,-26.01 8.05,-37.86 2.31,-12.57 6.07,-23.33 -3.13,-33.05 -28.34,-29.97 -154.47,-42.54 -210.93,-2.9 -18.69,13.13 -22.96,35.63 -22.39,67.03 0.46,25.68 2.77,54.11 19.97,67.13 33.48,25.33 110.46,14.35 157.86,18.36l0.19 10.42c-24.28,7.5 -63.73,9.59 -90.94,7.17 -42.11,-3.75 -62.46,-19.04 -79.87,-18.53 -9.93,14.67 -15.57,59.72 -2.75,73.46 25.82,27.66 167.67,33.83 215.02,-7.28 18.85,-16.37 23.05,-32.36 23.97,-66.22 2.79,-102.46 -107.43,-66.55 -192.02,-76.56l0.26 -9.39c17.28,-9.22 70.89,-11.14 94.04,-9.2 36.12,3.02 75.59,20.8 82.67,17.42zm-210.16 -263.01c-42.49,21.16 -91.42,8.06 -120.23,-31.94 -8.77,-12.18 -13.9,-26.51 -21.26,-37.7 -10.55,4.1 -73.05,82.6 29.1,144.07 35.77,21.53 100.05,25.63 127.34,-18.36 15.44,-24.88 15.33,-10.24 26.95,-32.37 19.39,-36.93 19.7,-112.93 19.02,-158.05 -0.45,-30.21 1.53,-50.19 -42.32,-45.48 -26.23,2.82 -16.61,13.1 -15.38,68.32 0.88,38.99 2.99,73.14 -3.22,111.51zm438.29 -88.43c8.23,25.39 3.47,165.35 8.25,174.86 11.05,11.89 30.71,5.66 41.48,-4.56 11.68,-11.1 9.43,-31.82 10.83,-51.28 1.48,-20.33 1.02,-112.1 4.35,-120.7 35.26,-5.79 78.71,7.54 111.5,6.4 3.97,-17.46 6.57,-43.62 2.39,-62.77 -4.18,-19.2 -27.46,-20.74 -46.83,-23.62 -38.17,-5.66 -157.86,-6.04 -199.91,1.71 -24.59,4.52 -29.11,14.77 -29.38,40.83 -0.5,47.03 2.44,43.94 29.27,41.36 18.82,-1.81 49.31,-6.76 68.05,-2.23zm-616.73 377.66c4,-11.47 10.61,-21.01 16.23,-28.3 11.9,4.51 17.16,15.99 20.82,28l-11.14 0.47 -15.98 0.03 -9.93 -0.2zm-79.08 145.32c42.87,-72.05 20.92,-71.58 61.54,-74.85 28.85,-2.32 58.15,-0.54 86.82,1.89 17.81,1.51 16.2,10.66 22.29,23.06 9.48,19.35 20.44,41.75 29.91,58.88 17.73,-3.06 40.33,-40.43 25.35,-75.28 -19.13,-44.48 -88.03,-195.2 -123.96,-199.97 -26.39,-3.5 -63.6,63.92 -76.44,86.03 -4.93,8.5 -14.08,28.56 -18.31,34.23 -9.86,13.17 -21.47,-5.85 -21.75,34.04 -0.1,14.21 -8.09,27.77 -13.06,40.67 -14.59,37.85 13.98,68.21 27.61,71.3zm732.86 -130.44c7.13,-12.99 11.44,-31.55 14.32,-49.11 3.84,-23.32 0.68,-34.35 -15.57,-43.42 -28.14,-15.71 -59.95,-26.17 -97.12,-29.04 -122.78,-9.48 -175.07,128.16 -112.71,209.32 8.91,11.6 21.27,20.61 34.44,27.35 43.93,22.51 179.75,23.26 182.48,-34.99 0.69,-14.59 -2.8,-42.47 -5.92,-55.1 -42.31,8.7 -57.89,22.28 -118.83,21.47 -26.94,-0.36 -103.61,-14.04 -81.75,-45.98 18.2,-26.61 57.15,-39.15 100.05,-36.5 51.56,3.2 80.01,32.38 100.61,36zm-1406.23 -386.29c14.23,-8.9 112.09,2.05 124.27,18.63 -3.67,7.09 -3.21,5.35 -10.7,8.41l-43.44 11.5c-22.08,3 -45.74,3.14 -69.79,1.52l-0.34 -40.06zm-1.37 119.77c39.29,-1.13 78.25,3.91 114.16,-8.68 31.23,-10.95 54.71,-29.71 59.63,-65.7 13.33,-97.67 -33.6,-119.18 -115.23,-133.95 -22.95,-4.15 -96.06,-12.56 -109.48,4.54 -8.57,10.92 -3.08,97.44 -3.11,118.64 -0.03,41.53 -0.66,84.35 0.49,125.75 0.33,11.74 2.04,14.86 13.88,14.96 36.11,0.29 38.58,-32.08 39.66,-55.56zm420.82 241.27c1.6,-0.55 -2.63,-7.99 10.8,5.93 32.96,34.2 92.48,93.73 122.99,130.47 6.4,7.71 10.4,14.31 20.04,18.9 21.47,10.21 46.47,-8.93 49.23,-25.08l1.79 -155.14c0.36,-22.88 2.55,-52.75 0.46,-75.01 -9.9,-6.31 -27.06,-12.44 -42.77,-7.46 -16.31,5.19 -14.75,19.97 -15.2,39.07 -0.83,34.64 1.21,75.35 -1.44,108.92 -7.95,0.1 -8.98,-4.5 -13.34,-10.31 -24.45,-32.54 -95.2,-111.12 -125.59,-130.15 -20.9,-13.08 -54.09,-6.3 -66.47,10.99l0.23 36.55c0.17,52.09 -4.41,166.81 4.46,208.45 17.39,3.36 34.46,-3.4 43.17,-12.83 11.41,-12.35 8.71,-28.79 8.91,-49.44l2.73 -93.86zm1385.8 -314.29c-69.22,75.38 -225.86,32.25 -218.97,-9.53 1.76,-10.7 31.47,-26.12 46.86,-31.17 20.28,-6.66 44.19,-9.6 67.27,-9.62 27.4,-0.02 107.31,9.94 104.84,50.32zm-135.07 -136.82c-87.96,8.92 -121.18,68.77 -112.77,162.52 4.31,48.18 19.35,68.42 53.54,85.92 48.29,24.73 118.71,23.93 168.91,-3.1 13.87,-7.47 31.88,-18.89 40.07,-28.44 30.67,-35.75 49.82,-153.71 -31.53,-198.56 -34.28,-18.89 -73.77,-22.85 -118.22,-18.34zm-1175 129.26c9.98,-28.15 71.43,-42.34 112,-42.75 38.67,-0.38 62.36,3.73 92.05,23.69 8.23,5.53 18.16,9.35 15.63,23.47 -2.42,13.5 -29.62,26.84 -45.13,33.04 -20.95,8.36 -42.09,11.05 -67.11,10.87 -36.05,-0.25 -96.49,-10.02 -107.44,-48.32zm78.29 -128.44c-85.74,13.13 -116.54,70.83 -105.88,167.24 5.02,45.36 22.61,67.08 57.21,82.46 35.08,15.59 77.42,20.46 119.06,11.3 34.21,-7.54 73.81,-28.84 88.56,-48.28 27.99,-36.9 47.84,-150.57 -39.02,-198 -31.24,-17.05 -80.7,-20.73 -119.93,-14.72zm1104.68 377.3c-1.35,-18.8 -12.35,-22.89 -28.32,-26.99 -41.3,-10.6 -174.34,-12.47 -200.39,-2.48 -15.61,6 -10.42,25.4 -9.16,40.94 7.21,89.43 -4.09,28.31 -10.97,86.94 -1.71,14.59 -3.34,28.38 0.21,42.89l14.32 -1.14c3.68,74.44 -6.62,86.09 64.86,86.49 49.15,0.27 100.56,-0.47 149.61,3.44 7.41,-46.01 31.75,-73.81 -33.12,-79.19 -38.35,-3.18 -120.19,3.38 -130.08,1.68l0.12 -19.4c42.26,-3.32 145.73,1.75 151.86,0.66 6.23,-11.24 11.76,-49.28 6.27,-61.08 -4.91,-7.86 -26.25,-7.58 -35.29,-8.17 -12.81,-0.83 -26.3,-0.99 -38.95,-1.35 -22.8,-0.65 -63.95,1.99 -83.77,-0.97l0.32 -18.22c25.82,-3.89 63.96,-4.01 90.64,-3.35 28.86,0.72 60.31,8.11 84.44,8.1 7,-10.16 8.39,-34.82 7.4,-48.8zm-655.91 -280.83c-15.95,16.02 -17.61,63.68 -13.37,77.35l14.86 0.58c0.96,94.03 -7.97,85.88 140.34,86.9 21.51,0.15 53.73,3.08 73.03,1.9 7.53,-18.6 12.38,-42.6 8.82,-64.5 -13.04,-26.51 -143.37,-9.02 -170.25,-11.73l-1.4 -20.06c25.88,-1.11 50.4,-2 76.1,-1.56 20.25,0.34 60.47,5.21 77.44,2.15 3.86,-13.2 10.95,-46.55 5.67,-60.11 -13.09,-16.01 -130.9,-9.34 -158.45,-10.48l0.46 -19.47c30.22,-2.44 61.52,-3.3 90.86,-2.71 32.04,0.65 55.34,5.97 85.25,8.69 2.98,-9.95 6.72,-33.09 6.34,-46.43 -0.51,-18.69 -9.73,-24.88 -25.66,-29.31 -41.6,-11.58 -169.97,-13.48 -201.82,-3.64 -22.84,7.06 -6.53,46.01 -8.22,92.43zm-675 283.09c-0.64,-20.09 -8.85,-23.74 -26.28,-28.66 -41.17,-11.59 -176.03,-12.88 -202.24,-3.31 -19.14,6.99 -7.66,52.25 -6.92,91.49 -11.02,10.52 -12.49,24.8 -14.4,44.16 -4.64,47 3.8,33.13 15.47,34.73 3.02,72.88 -6.89,85.57 65.23,85.98 49.65,0.28 99.57,0.1 149.31,3.36 7.02,-48.89 31.83,-74.47 -35.18,-79.26 -21.45,-1.53 -44.66,-1 -66.2,-0.46 -18.22,0.46 -44.88,4.36 -62,2.7l0.23 -20.05c26.22,-1.13 51.44,-2 77.74,-1.53 17.85,0.33 60.67,6.24 73.69,2.02 6.12,-8.94 12.94,-48.37 6.61,-60.18 -10.5,-16.06 -144.36,-9.88 -158.27,-10.28l0.48 -19.34c89.83,-6.81 92.91,-2.83 174.93,5.79 5.58,-8.94 8.24,-33.39 7.8,-47.16zm-465.07 72.98l0.05 -28.78c27.12,-9.31 62.43,-2.93 89.69,4.36 9.89,2.64 7.15,0.61 10.42,6.39 -10.11,6.8 -84.76,20.56 -100.16,18.03zm-55.08 125.87c0.17,4.8 0.1,11.16 0.62,15.76 2.54,22.71 33.91,10.73 45.59,-5.62 8.26,-11.56 6.93,-34.41 7.36,-50.04 90.51,3.53 178.81,69.77 206.77,79.54 16.95,-51.71 25.52,-68.64 -22.34,-93.32 -14.39,-7.41 -44.08,-16.86 -51.51,-23.98 28.15,-21.82 47.98,-15.14 48.02,-63.96 0.03,-48.56 -14.08,-64.57 -51.59,-80.76 -49.91,-21.54 -104.69,-25.93 -159.46,-16.47 -22.49,3.89 -27.28,6.19 -26.85,31l3.39 207.85zm1923.67 -125.13l0.09 -30.2 31.65 -4.69c14.67,-1.29 57.09,7.56 68.66,13.84 -4.29,8.02 -9.66,5.75 -21.5,8.39 -23.98,5.33 -54.72,13.11 -78.9,12.66zm130.53 47.6c18.1,-12.04 44.22,-19.74 47.83,-44.89 3.71,-25.84 1.13,-60.5 -12.92,-75.27 -51.86,-54.51 -196.82,-51.68 -217.93,-35.19 -10.63,8.3 -5.13,69.38 -4.54,86.7 1.04,30.55 0.92,60.8 1.09,91.37 0.11,21.42 -4.49,67.2 7.14,82.23 19.87,1.97 33.3,-6.7 39.99,-17.81 9.65,-16.07 2.81,-33.5 8.68,-48.98 31.4,-1.17 86.61,19.26 111.61,30.46 43.74,19.63 64.41,35.21 91.52,47.99l9.89 -20.21c1.68,-5.64 4.13,-15.35 4.84,-22.15 2.4,-23.06 -1.69,-28.92 -14.64,-37.93 -28.83,-20.03 -63.32,-28.37 -72.56,-36.32zm-1631.65 -421.57c24.81,-4.76 81.73,-3.32 99.2,10.3 -7.03,10.1 -84.91,20.01 -101.04,20.66l1.84 -30.96zm-54.47 178.53l5.55 4.85c17.87,1.17 30.66,-5.93 38.76,-17.97 7.29,-10.83 6.22,-34.35 7.31,-49.53 35.31,1.38 81.55,17.45 110.79,29.98 26.58,11.39 92.23,48.33 94.95,49.38 11.7,-26.29 25.31,-61.71 -0.42,-80.04 -32.66,-23.25 -60.35,-26.27 -72.81,-36.38 13.76,-14.38 41.12,-16.55 46.43,-41.88 5.39,-25.66 1.99,-62.73 -11.54,-77.97 -39.8,-44.86 -165.18,-57.52 -213.86,-38.49 -16.37,6.39 -10.41,54 -9.67,80.49 0.84,29.79 0.32,160.46 4.51,177.56z"/>
     <path class="fil5" d="M2376.32 1397.78c0.04,24.8 3.4,41.9 6.76,64.3 24.95,-3.55 72.78,-31.13 89.93,-42.89 88.04,-60.35 133.25,-155.26 133.04,-272.67 -0.05,-26.67 -3.16,-46.13 -6.28,-71.05 -39.47,9.57 -124.03,80.31 -152.93,118.83 -40.04,53.38 -70.65,115.77 -70.52,203.48z"/>
     <path class="fil5" d="M2337.11 1452c9.58,-121.49 -44.24,-257.09 -136.46,-321.54 -22.77,-15.9 -70.18,-46.69 -103.21,-50.4 -4.99,53.73 -9.11,89.42 4.45,142.6 19,74.51 69.48,138.61 131.32,178.98 23.28,15.19 72.94,44.82 103.9,50.36z"/>
     <path class="fil6" d="M2790.12 1570.39c130.16,3.67 247.95,-43.77 318.93,-140.51 10.9,-14.87 50.4,-80.25 48.5,-103.56 -42.97,-9.32 -101.42,-5.21 -141.92,5.64 -74.08,19.84 -136.2,70.17 -177.15,133.23 -11.24,17.31 -48.13,81.49 -48.36,105.2z"/>
     <path class="fil3" d="M2512.52 1541.68c0.06,23.45 3.24,46.54 8.21,68.11l12.51 41.94c1.09,2.99 1.03,3.3 2.56,6.54l4.82 6.64c9.06,-5.06 29.92,-26.48 37.63,-35.3 37.21,-42.58 60.92,-96.5 60.89,-158.74 -0.01,-28.44 -10.69,-91.93 -25.49,-106.98 -25.21,11.76 -57.37,43.83 -71.61,67.22 -18.24,29.97 -29.64,66.8 -29.52,110.57z"/>
     <path class="fil6" d="M2860.69 1353.6c11.11,-4.46 36.96,-25.62 45.18,-33.46 16.78,-16 24.93,-25.39 38.16,-43.95 22.31,-31.28 39.79,-74.26 39.65,-122.81 -0.05,-17.84 -3.35,-53.91 -11.7,-67.27 -37.89,10.87 -81.47,55.87 -102,95.51 -24.98,48.24 -25.99,117.03 -9.29,171.98z"/>
     <path class="fil6" d="M2755.16 1544.45c11.36,-8.18 33.71,-48.93 38.54,-60.1 23.06,-53.27 33.21,-105.94 14.11,-164.27 -7.21,-22 -19.8,-52.33 -34.39,-63.69 -34.55,27.41 -63.45,84.54 -66.51,134.51 -1.89,30.94 3.55,62.22 12.97,87.64 8.09,21.81 21.68,52.74 35.28,65.91z"/>
     <path class="fil5" d="M2033.2 1464.02c6.57,12.8 38.18,34.99 56.12,45.1 50.43,28.43 110.72,29.96 165.28,11.02 18.36,-6.37 58.11,-22.58 66.7,-35.67 -43.65,-28.52 -71.29,-52.32 -134.67,-61.13 -47.02,-6.53 -99.31,4.14 -139.09,29.14 -6.6,4.14 -10.54,6.03 -14.34,11.54z"/>
     <path class="fil7" d="M2358.03 1211c25.44,-28.64 42.99,-108.16 39.4,-155.88 -3.44,-45.63 -31.02,-108.11 -62.22,-131.58 -11.51,6.92 -30.19,44.9 -36.73,62.87 -20.85,57.31 -12.06,112.55 15.12,165.73 8.85,17.32 30.49,50.5 44.43,58.86z"/>
     <path class="fil6" d="M2983.56 1599.19c6.66,34.21 55.96,85.52 95.28,105.02 47.32,23.49 130.78,29.43 170.66,10.45 -3.72,-7.91 -14.15,-21.73 -19.86,-28.86 -22.68,-28.32 -47.23,-51.65 -80.57,-70.04 -49.91,-27.51 -104.37,-33.81 -165.51,-16.57z"/>
     <path class="fil6" d="M2781.09 1616.01c-2.23,14.45 24.35,55.81 31.31,64.84 53.63,69.61 129.79,86.63 221.6,75 -4.88,-29.46 -60.05,-87.88 -90.12,-108.38 -42.09,-28.67 -100.3,-43.33 -162.79,-31.46z"/>
     <path class="fil7" d="M1929.23 1297.76c3.77,26.66 44.71,61.7 71.91,75.57 30.03,15.32 96.51,20.26 127.05,3.9 -7.67,-22.16 -51.2,-58.67 -75.75,-71.01 -36.67,-18.43 -82.25,-21.54 -123.21,-8.46z"/>
    </g>
   </g>
  </g>
 </g>
</svg>
